<ttFont>
    <TTGlyph name="A" xMin="19" yMin="0" xMax="526" yMax="637">
      <contour>
        <pt x="503" y="0" on="1"/>
        <pt x="490" y="43" on="1"/>
        <pt x="427" y="213" on="1"/>
        <pt x="125" y="213" on="1"/>
        <pt x="57" y="43" on="1"/>
        <pt x="43" y="0" on="1"/>
        <pt x="19" y="0" on="1"/>
        <pt x="273" y="637" on="1"/>
        <pt x="293" y="637" on="1"/>
        <pt x="526" y="0" on="1"/>
      </contour>
      <contour>
        <pt x="284" y="603" on="1"/>
        <pt x="280" y="603" on="1"/>
        <pt x="133" y="233" on="1"/>
        <pt x="420" y="233" on="1"/>
      </contour>
    </TTGlyph>
    <TTGlyph name="AE" xMin="-15" yMin="0" xMax="766" yMax="637">
      <contour>
        <pt x="762" y="0" on="1"/>
        <pt x="458" y="0" on="1"/>
        <pt x="453" y="43" on="1"/>
        <pt x="411" y="290" on="1"/>
        <pt x="150" y="247" on="1"/>
        <pt x="33" y="43" on="1"/>
        <pt x="12" y="0" on="1"/>
        <pt x="-15" y="0" on="1"/>
        <pt x="353" y="637" on="1"/>
        <pt x="654" y="637" on="1"/>
        <pt x="657" y="633" on="1"/>
        <pt x="652" y="617" on="1"/>
        <pt x="377" y="617" on="1"/>
        <pt x="428" y="313" on="1"/>
        <pt x="664" y="352" on="1"/>
        <pt x="667" y="349" on="1"/>
        <pt x="664" y="332" on="1"/>
        <pt x="431" y="294" on="1"/>
        <pt x="477" y="20" on="1"/>
        <pt x="764" y="20" on="1"/>
        <pt x="766" y="16" on="1"/>
      </contour>
      <contour>
        <pt x="358" y="602" on="1"/>
        <pt x="355" y="602" on="1"/>
        <pt x="164" y="270" on="1"/>
        <pt x="408" y="310" on="1"/>
      </contour>
    </TTGlyph>
    <TTGlyph name="AEacute" xMin="-15" yMin="0" xMax="766" yMax="836">
      <component glyphName="AE" x="0" y="0" flags="0x1000"/>
      <component glyphName="acute.cap" x="329" y="185" flags="0x1000"/>
    </TTGlyph>
    <TTGlyph name="Aacute" xMin="19" yMin="0" xMax="526" yMax="836">
      <component glyphName="A" x="0" y="0" flags="0x1000"/>
      <component glyphName="acute.cap" x="113" y="185" flags="0x1000"/>
    </TTGlyph>
    <TTGlyph name="Abreve" xMin="19" yMin="0" xMax="526" yMax="813">
      <component glyphName="A" x="0" y="0" flags="0x1000"/>
      <component glyphName="breve.cap" x="82" y="185" flags="0x1000"/>
    </TTGlyph>
    <TTGlyph name="Abreveacute" xMin="19" yMin="0" xMax="526" yMax="896">
      <component glyphName="A" x="0" y="0" flags="0x1000"/>
      <component glyphName="breveacute" x="82" y="185" flags="0x1000"/>
    </TTGlyph>
    <TTGlyph name="Abrevedotbelow" xMin="19" yMin="-128" xMax="526" yMax="813">
      <contour>
        <pt x="238" y="728" on="0"/>
        <pt x="186" y="766" on="0"/>
        <pt x="176" y="802" on="1"/>
        <pt x="189" y="813" on="1"/>
        <pt x="194" y="813" on="1"/>
        <pt x="209" y="748" on="0"/>
        <pt x="276" y="748" on="1"/>
        <pt x="343" y="748" on="0"/>
        <pt x="360" y="813" on="1"/>
        <pt x="365" y="813" on="1"/>
        <pt x="378" y="802" on="1"/>
        <pt x="367" y="766" on="0"/>
        <pt x="314" y="728" on="0"/>
        <pt x="276" y="728" on="1"/>
      </contour>
      <contour>
        <pt x="503" y="0" on="1"/>
        <pt x="490" y="43" on="1"/>
        <pt x="427" y="213" on="1"/>
        <pt x="125" y="213" on="1"/>
        <pt x="57" y="43" on="1"/>
        <pt x="43" y="0" on="1"/>
        <pt x="19" y="0" on="1"/>
        <pt x="273" y="637" on="1"/>
        <pt x="293" y="637" on="1"/>
        <pt x="526" y="0" on="1"/>
      </contour>
      <contour>
        <pt x="284" y="603" on="1"/>
        <pt x="280" y="603" on="1"/>
        <pt x="133" y="233" on="1"/>
        <pt x="420" y="233" on="1"/>
      </contour>
      <contour>
        <pt x="295" y="-88" on="0"/>
        <pt x="295" y="-108" on="1"/>
        <pt x="295" y="-128" on="0"/>
        <pt x="275" y="-128" on="1"/>
        <pt x="255" y="-128" on="0"/>
        <pt x="255" y="-108" on="1"/>
        <pt x="255" y="-88" on="0"/>
        <pt x="275" y="-88" on="1"/>
      </contour>
    </TTGlyph>
    <TTGlyph name="Abrevegrave" xMin="19" yMin="0" xMax="526" yMax="896">
      <component glyphName="A" x="0" y="0" flags="0x1000"/>
      <component glyphName="brevegrave" x="82" y="185" flags="0x1000"/>
    </TTGlyph>
    <TTGlyph name="Abrevehookabove" xMin="19" yMin="0" xMax="526" yMax="932">
      <contour>
        <pt x="255" y="912" on="0"/>
        <pt x="227" y="889" on="1"/>
        <pt x="219" y="903" on="1"/>
        <pt x="253" y="932" on="0"/>
        <pt x="283" y="932" on="1"/>
        <pt x="302" y="932" on="0"/>
        <pt x="327" y="910" on="0"/>
        <pt x="327" y="894" on="1"/>
        <pt x="327" y="865" on="0"/>
        <pt x="279" y="829" on="1"/>
        <pt x="295" y="800" on="1"/>
        <pt x="278" y="793" on="1"/>
        <pt x="256" y="834" on="1"/>
        <pt x="307" y="868" on="0"/>
        <pt x="307" y="892" on="1"/>
        <pt x="307" y="912" on="0"/>
        <pt x="281" y="912" on="1"/>
      </contour>
      <contour>
        <pt x="238" y="708" on="0"/>
        <pt x="186" y="746" on="0"/>
        <pt x="176" y="782" on="1"/>
        <pt x="189" y="793" on="1"/>
        <pt x="194" y="793" on="1"/>
        <pt x="209" y="728" on="0"/>
        <pt x="276" y="728" on="1"/>
        <pt x="343" y="728" on="0"/>
        <pt x="360" y="793" on="1"/>
        <pt x="365" y="793" on="1"/>
        <pt x="378" y="782" on="1"/>
        <pt x="367" y="746" on="0"/>
        <pt x="314" y="708" on="0"/>
        <pt x="276" y="708" on="1"/>
      </contour>
      <contour>
        <pt x="503" y="0" on="1"/>
        <pt x="490" y="43" on="1"/>
        <pt x="427" y="213" on="1"/>
        <pt x="125" y="213" on="1"/>
        <pt x="57" y="43" on="1"/>
        <pt x="43" y="0" on="1"/>
        <pt x="19" y="0" on="1"/>
        <pt x="273" y="637" on="1"/>
        <pt x="293" y="637" on="1"/>
        <pt x="526" y="0" on="1"/>
      </contour>
      <contour>
        <pt x="284" y="603" on="1"/>
        <pt x="280" y="603" on="1"/>
        <pt x="133" y="233" on="1"/>
        <pt x="420" y="233" on="1"/>
      </contour>
    </TTGlyph>
    <TTGlyph name="Abrevetilde" xMin="19" yMin="0" xMax="526" yMax="906">
      <contour>
        <pt x="148" y="850" on="1"/>
        <pt x="148" y="854" on="1"/>
        <pt x="198" y="901" on="1"/>
        <pt x="204" y="903" on="1"/>
        <pt x="223" y="901" on="0"/>
        <pt x="280" y="883" on="1"/>
        <pt x="340" y="865" on="0"/>
        <pt x="352" y="865" on="1"/>
        <pt x="360" y="865" on="0"/>
        <pt x="381" y="886" on="1"/>
        <pt x="389" y="895" on="0"/>
        <pt x="401" y="906" on="1"/>
        <pt x="404" y="906" on="1"/>
        <pt x="413" y="895" on="1"/>
        <pt x="413" y="891" on="1"/>
        <pt x="363" y="844" on="1"/>
        <pt x="358" y="842" on="1"/>
        <pt x="339" y="844" on="0"/>
        <pt x="282" y="862" on="1"/>
        <pt x="220" y="880" on="0"/>
        <pt x="209" y="880" on="1"/>
        <pt x="202" y="880" on="0"/>
        <pt x="179" y="857" on="1"/>
        <pt x="161" y="839" on="1"/>
        <pt x="157" y="839" on="1"/>
      </contour>
      <contour>
        <pt x="343" y="728" on="0"/>
        <pt x="360" y="793" on="1"/>
        <pt x="365" y="793" on="1"/>
        <pt x="378" y="782" on="1"/>
        <pt x="367" y="746" on="0"/>
        <pt x="314" y="708" on="0"/>
        <pt x="276" y="708" on="1"/>
        <pt x="238" y="708" on="0"/>
        <pt x="186" y="746" on="0"/>
        <pt x="176" y="782" on="1"/>
        <pt x="189" y="793" on="1"/>
        <pt x="194" y="793" on="1"/>
        <pt x="209" y="728" on="0"/>
        <pt x="276" y="728" on="1"/>
      </contour>
      <contour>
        <pt x="503" y="0" on="1"/>
        <pt x="490" y="43" on="1"/>
        <pt x="427" y="213" on="1"/>
        <pt x="125" y="213" on="1"/>
        <pt x="57" y="43" on="1"/>
        <pt x="43" y="0" on="1"/>
        <pt x="19" y="0" on="1"/>
        <pt x="273" y="637" on="1"/>
        <pt x="293" y="637" on="1"/>
        <pt x="526" y="0" on="1"/>
      </contour>
      <contour>
        <pt x="284" y="603" on="1"/>
        <pt x="280" y="603" on="1"/>
        <pt x="133" y="233" on="1"/>
        <pt x="420" y="233" on="1"/>
      </contour>
    </TTGlyph>
    <TTGlyph name="Acaron" xMin="19" yMin="0" xMax="526" yMax="819">
      <component glyphName="A" x="0" y="0" flags="0x1000"/>
      <component glyphName="caron.cap" x="82" y="185" flags="0x1000"/>
    </TTGlyph>
    <TTGlyph name="Acircumflex" xMin="19" yMin="0" xMax="526" yMax="828">
      <contour>
        <pt x="170" y="752" on="1"/>
        <pt x="217" y="785" on="0"/>
        <pt x="268" y="828" on="1"/>
        <pt x="284" y="828" on="1"/>
        <pt x="350" y="776" on="0"/>
        <pt x="384" y="752" on="1"/>
        <pt x="377" y="738" on="1"/>
        <pt x="372" y="738" on="1"/>
        <pt x="326" y="770" on="0"/>
        <pt x="277" y="808" on="1"/>
        <pt x="228" y="770" on="0"/>
        <pt x="182" y="738" on="1"/>
        <pt x="177" y="738" on="1"/>
      </contour>
      <contour>
        <pt x="503" y="0" on="1"/>
        <pt x="490" y="43" on="1"/>
        <pt x="427" y="213" on="1"/>
        <pt x="125" y="213" on="1"/>
        <pt x="57" y="43" on="1"/>
        <pt x="43" y="0" on="1"/>
        <pt x="19" y="0" on="1"/>
        <pt x="273" y="637" on="1"/>
        <pt x="293" y="637" on="1"/>
        <pt x="526" y="0" on="1"/>
      </contour>
      <contour>
        <pt x="284" y="603" on="1"/>
        <pt x="280" y="603" on="1"/>
        <pt x="133" y="233" on="1"/>
        <pt x="420" y="233" on="1"/>
      </contour>
    </TTGlyph>
    <TTGlyph name="Acircumflexacute" xMin="19" yMin="0" xMax="526" yMax="895">
      <component glyphName="A" x="0" y="0" flags="0x1000"/>
      <component glyphName="circumflexacute" x="82" y="185" flags="0x1000"/>
    </TTGlyph>
    <TTGlyph name="Acircumflexdotbelow" xMin="19" yMin="-128" xMax="526" yMax="828">
      <contour>
        <pt x="170" y="752" on="1"/>
        <pt x="217" y="785" on="0"/>
        <pt x="268" y="828" on="1"/>
        <pt x="284" y="828" on="1"/>
        <pt x="350" y="776" on="0"/>
        <pt x="384" y="752" on="1"/>
        <pt x="377" y="738" on="1"/>
        <pt x="372" y="738" on="1"/>
        <pt x="326" y="770" on="0"/>
        <pt x="277" y="808" on="1"/>
        <pt x="228" y="770" on="0"/>
        <pt x="182" y="738" on="1"/>
        <pt x="177" y="738" on="1"/>
      </contour>
      <contour>
        <pt x="503" y="0" on="1"/>
        <pt x="490" y="43" on="1"/>
        <pt x="427" y="213" on="1"/>
        <pt x="125" y="213" on="1"/>
        <pt x="57" y="43" on="1"/>
        <pt x="43" y="0" on="1"/>
        <pt x="19" y="0" on="1"/>
        <pt x="273" y="637" on="1"/>
        <pt x="293" y="637" on="1"/>
        <pt x="526" y="0" on="1"/>
      </contour>
      <contour>
        <pt x="284" y="603" on="1"/>
        <pt x="280" y="603" on="1"/>
        <pt x="133" y="233" on="1"/>
        <pt x="420" y="233" on="1"/>
      </contour>
      <contour>
        <pt x="295" y="-88" on="0"/>
        <pt x="295" y="-108" on="1"/>
        <pt x="295" y="-128" on="0"/>
        <pt x="275" y="-128" on="1"/>
        <pt x="255" y="-128" on="0"/>
        <pt x="255" y="-108" on="1"/>
        <pt x="255" y="-88" on="0"/>
        <pt x="275" y="-88" on="1"/>
      </contour>
    </TTGlyph>
    <TTGlyph name="Acircumflexgrave" xMin="19" yMin="0" xMax="526" yMax="895">
      <component glyphName="A" x="0" y="0" flags="0x1000"/>
      <component glyphName="circumflexgrave" x="82" y="185" flags="0x1000"/>
    </TTGlyph>
    <TTGlyph name="Acircumflexhookabove" xMin="19" yMin="0" xMax="526" yMax="922">
      <contour>
        <pt x="335" y="902" on="0"/>
        <pt x="310" y="881" on="1"/>
        <pt x="303" y="894" on="1"/>
        <pt x="336" y="922" on="0"/>
        <pt x="364" y="922" on="1"/>
        <pt x="382" y="922" on="0"/>
        <pt x="405" y="900" on="0"/>
        <pt x="405" y="885" on="1"/>
        <pt x="405" y="857" on="0"/>
        <pt x="360" y="823" on="1"/>
        <pt x="375" y="796" on="1"/>
        <pt x="359" y="789" on="1"/>
        <pt x="338" y="828" on="1"/>
        <pt x="386" y="861" on="0"/>
        <pt x="386" y="883" on="1"/>
        <pt x="386" y="902" on="0"/>
        <pt x="362" y="902" on="1"/>
      </contour>
      <contour>
        <pt x="170" y="732" on="1"/>
        <pt x="217" y="765" on="0"/>
        <pt x="268" y="808" on="1"/>
        <pt x="284" y="808" on="1"/>
        <pt x="350" y="756" on="0"/>
        <pt x="384" y="732" on="1"/>
        <pt x="377" y="718" on="1"/>
        <pt x="372" y="718" on="1"/>
        <pt x="326" y="750" on="0"/>
        <pt x="277" y="788" on="1"/>
        <pt x="228" y="750" on="0"/>
        <pt x="182" y="718" on="1"/>
        <pt x="177" y="718" on="1"/>
      </contour>
      <contour>
        <pt x="503" y="0" on="1"/>
        <pt x="490" y="43" on="1"/>
        <pt x="427" y="213" on="1"/>
        <pt x="125" y="213" on="1"/>
        <pt x="57" y="43" on="1"/>
        <pt x="43" y="0" on="1"/>
        <pt x="19" y="0" on="1"/>
        <pt x="273" y="637" on="1"/>
        <pt x="293" y="637" on="1"/>
        <pt x="526" y="0" on="1"/>
      </contour>
      <contour>
        <pt x="284" y="603" on="1"/>
        <pt x="280" y="603" on="1"/>
        <pt x="133" y="233" on="1"/>
        <pt x="420" y="233" on="1"/>
      </contour>
    </TTGlyph>
    <TTGlyph name="Acircumflextilde" xMin="19" yMin="0" xMax="526" yMax="906">
      <contour>
        <pt x="148" y="850" on="1"/>
        <pt x="148" y="854" on="1"/>
        <pt x="198" y="901" on="1"/>
        <pt x="204" y="903" on="1"/>
        <pt x="223" y="901" on="0"/>
        <pt x="280" y="883" on="1"/>
        <pt x="340" y="865" on="0"/>
        <pt x="352" y="865" on="1"/>
        <pt x="360" y="865" on="0"/>
        <pt x="381" y="886" on="1"/>
        <pt x="389" y="895" on="0"/>
        <pt x="401" y="906" on="1"/>
        <pt x="404" y="906" on="1"/>
        <pt x="413" y="895" on="1"/>
        <pt x="413" y="891" on="1"/>
        <pt x="363" y="844" on="1"/>
        <pt x="358" y="842" on="1"/>
        <pt x="339" y="844" on="0"/>
        <pt x="282" y="862" on="1"/>
        <pt x="220" y="880" on="0"/>
        <pt x="209" y="880" on="1"/>
        <pt x="202" y="880" on="0"/>
        <pt x="179" y="857" on="1"/>
        <pt x="161" y="839" on="1"/>
        <pt x="157" y="839" on="1"/>
      </contour>
      <contour>
        <pt x="350" y="756" on="0"/>
        <pt x="384" y="732" on="1"/>
        <pt x="377" y="718" on="1"/>
        <pt x="372" y="718" on="1"/>
        <pt x="326" y="750" on="0"/>
        <pt x="277" y="788" on="1"/>
        <pt x="228" y="750" on="0"/>
        <pt x="182" y="718" on="1"/>
        <pt x="177" y="718" on="1"/>
        <pt x="170" y="732" on="1"/>
        <pt x="217" y="765" on="0"/>
        <pt x="268" y="808" on="1"/>
        <pt x="284" y="808" on="1"/>
      </contour>
      <contour>
        <pt x="503" y="0" on="1"/>
        <pt x="490" y="43" on="1"/>
        <pt x="427" y="213" on="1"/>
        <pt x="125" y="213" on="1"/>
        <pt x="57" y="43" on="1"/>
        <pt x="43" y="0" on="1"/>
        <pt x="19" y="0" on="1"/>
        <pt x="273" y="637" on="1"/>
        <pt x="293" y="637" on="1"/>
        <pt x="526" y="0" on="1"/>
      </contour>
      <contour>
        <pt x="284" y="603" on="1"/>
        <pt x="280" y="603" on="1"/>
        <pt x="133" y="233" on="1"/>
        <pt x="420" y="233" on="1"/>
      </contour>
    </TTGlyph>
    <TTGlyph name="Adieresis" xMin="19" yMin="0" xMax="526" yMax="800">
      <contour>
        <pt x="187" y="760" on="0"/>
        <pt x="187" y="780" on="1"/>
        <pt x="187" y="800" on="0"/>
        <pt x="207" y="800" on="1"/>
        <pt x="227" y="800" on="0"/>
        <pt x="227" y="780" on="1"/>
        <pt x="227" y="760" on="0"/>
        <pt x="207" y="760" on="1"/>
      </contour>
      <contour>
        <pt x="327" y="760" on="0"/>
        <pt x="327" y="780" on="1"/>
        <pt x="327" y="800" on="0"/>
        <pt x="347" y="800" on="1"/>
        <pt x="367" y="800" on="0"/>
        <pt x="367" y="780" on="1"/>
        <pt x="367" y="760" on="0"/>
        <pt x="347" y="760" on="1"/>
      </contour>
      <contour>
        <pt x="503" y="0" on="1"/>
        <pt x="490" y="43" on="1"/>
        <pt x="427" y="213" on="1"/>
        <pt x="125" y="213" on="1"/>
        <pt x="57" y="43" on="1"/>
        <pt x="43" y="0" on="1"/>
        <pt x="19" y="0" on="1"/>
        <pt x="273" y="637" on="1"/>
        <pt x="293" y="637" on="1"/>
        <pt x="526" y="0" on="1"/>
      </contour>
      <contour>
        <pt x="284" y="603" on="1"/>
        <pt x="280" y="603" on="1"/>
        <pt x="133" y="233" on="1"/>
        <pt x="420" y="233" on="1"/>
      </contour>
    </TTGlyph>
    <TTGlyph name="Adotbelow" xMin="19" yMin="-128" xMax="526" yMax="637">
      <component glyphName="A" x="0" y="0" flags="0x1000"/>
      <component glyphName="period" x="160" y="-126" flags="0x1000"/>
    </TTGlyph>
    <TTGlyph name="Agrave" xMin="19" yMin="0" xMax="526" yMax="838">
      <contour>
        <pt x="251" y="781" on="0"/>
        <pt x="184" y="819" on="1"/>
        <pt x="182" y="824" on="1"/>
        <pt x="189" y="836" on="1"/>
        <pt x="194" y="838" on="1"/>
        <pt x="279" y="788" on="0"/>
        <pt x="370" y="744" on="1"/>
        <pt x="363" y="729" on="1"/>
        <pt x="358" y="726" on="1"/>
      </contour>
      <contour>
        <pt x="503" y="0" on="1"/>
        <pt x="490" y="43" on="1"/>
        <pt x="427" y="213" on="1"/>
        <pt x="125" y="213" on="1"/>
        <pt x="57" y="43" on="1"/>
        <pt x="43" y="0" on="1"/>
        <pt x="19" y="0" on="1"/>
        <pt x="273" y="637" on="1"/>
        <pt x="293" y="637" on="1"/>
        <pt x="526" y="0" on="1"/>
      </contour>
      <contour>
        <pt x="284" y="603" on="1"/>
        <pt x="280" y="603" on="1"/>
        <pt x="133" y="233" on="1"/>
        <pt x="420" y="233" on="1"/>
      </contour>
    </TTGlyph>
    <TTGlyph name="Ahookabove" xMin="19" yMin="0" xMax="526" yMax="862">
      <component glyphName="A" x="0" y="0" flags="0x1000"/>
      <component glyphName="hookabove" x="82" y="185" flags="0x1000"/>
    </TTGlyph>
    <TTGlyph name="Amacron" xMin="19" yMin="0" xMax="526" yMax="792">
      <component glyphName="A" x="0" y="0" flags="0x1000"/>
      <component glyphName="macron" x="82" y="185" flags="0x1000"/>
    </TTGlyph>
    <TTGlyph name="Aogonek" xMin="19" yMin="-197" xMax="600" yMax="637">
      <contour>
        <pt x="556" y="-197" on="0"/>
        <pt x="506" y="-197" on="1"/>
        <pt x="477" y="-197" on="0"/>
        <pt x="441" y="-161" on="0"/>
        <pt x="441" y="-134" on="1"/>
        <pt x="441" y="-114" on="0"/>
        <pt x="468" y="-57" on="0"/>
        <pt x="504" y="0" on="1"/>
        <pt x="503" y="0" on="1"/>
        <pt x="490" y="43" on="1"/>
        <pt x="427" y="213" on="1"/>
        <pt x="125" y="213" on="1"/>
        <pt x="57" y="43" on="1"/>
        <pt x="43" y="0" on="1"/>
        <pt x="19" y="0" on="1"/>
        <pt x="273" y="637" on="1"/>
        <pt x="293" y="637" on="1"/>
        <pt x="526" y="0" on="1"/>
        <pt x="524" y="0" on="1"/>
        <pt x="488" y="-57" on="0"/>
        <pt x="461" y="-114" on="0"/>
        <pt x="461" y="-132" on="1"/>
        <pt x="461" y="-152" on="0"/>
        <pt x="485" y="-177" on="0"/>
        <pt x="506" y="-177" on="1"/>
        <pt x="548" y="-177" on="0"/>
        <pt x="587" y="-124" on="1"/>
        <pt x="589" y="-124" on="1"/>
        <pt x="600" y="-140" on="1"/>
      </contour>
      <contour>
        <pt x="284" y="603" on="1"/>
        <pt x="280" y="603" on="1"/>
        <pt x="133" y="233" on="1"/>
        <pt x="420" y="233" on="1"/>
      </contour>
    </TTGlyph>
    <TTGlyph name="Aring" xMin="19" yMin="0" xMax="526" yMax="853">
      <component glyphName="A" x="0" y="0" flags="0x1000"/>
      <component glyphName="ring" x="82" y="185" flags="0x1000"/>
    </TTGlyph>
    <TTGlyph name="Aringacute" xMin="19" yMin="0" xMax="526" yMax="855">
      <contour>
        <pt x="205" y="793" on="1"/>
        <pt x="298" y="819" on="0"/>
        <pt x="395" y="855" on="1"/>
        <pt x="400" y="852" on="1"/>
        <pt x="404" y="839" on="1"/>
        <pt x="402" y="834" on="1"/>
        <pt x="328" y="807" on="0"/>
        <pt x="214" y="773" on="1"/>
        <pt x="210" y="777" on="1"/>
      </contour>
      <contour>
        <pt x="503" y="0" on="1"/>
        <pt x="490" y="43" on="1"/>
        <pt x="427" y="213" on="1"/>
        <pt x="125" y="213" on="1"/>
        <pt x="57" y="43" on="1"/>
        <pt x="43" y="0" on="1"/>
        <pt x="19" y="0" on="1"/>
        <pt x="266" y="619" on="1"/>
        <pt x="244" y="625" on="0"/>
        <pt x="213" y="661" on="0"/>
        <pt x="213" y="687" on="1"/>
        <pt x="213" y="717" on="0"/>
        <pt x="252" y="756" on="0"/>
        <pt x="283" y="756" on="1"/>
        <pt x="316" y="756" on="0"/>
        <pt x="354" y="714" on="0"/>
        <pt x="354" y="686" on="1"/>
        <pt x="354" y="660" on="0"/>
        <pt x="323" y="624" on="0"/>
        <pt x="300" y="619" on="1"/>
        <pt x="526" y="0" on="1"/>
      </contour>
      <contour>
        <pt x="233" y="664" on="0"/>
        <pt x="262" y="637" on="0"/>
        <pt x="283" y="637" on="1"/>
        <pt x="304" y="637" on="0"/>
        <pt x="334" y="663" on="0"/>
        <pt x="334" y="686" on="1"/>
        <pt x="334" y="707" on="0"/>
        <pt x="307" y="736" on="0"/>
        <pt x="283" y="736" on="1"/>
        <pt x="260" y="736" on="0"/>
        <pt x="233" y="709" on="0"/>
        <pt x="233" y="687" on="1"/>
      </contour>
      <contour>
        <pt x="284" y="603" on="1"/>
        <pt x="280" y="603" on="1"/>
        <pt x="133" y="233" on="1"/>
        <pt x="420" y="233" on="1"/>
      </contour>
    </TTGlyph>
    <TTGlyph name="Atilde" xMin="19" yMin="0" xMax="526" yMax="816">
      <component glyphName="A" x="0" y="0" flags="0x1000"/>
      <component glyphName="tilde" x="82" y="185" flags="0x1000"/>
    </TTGlyph>
    <TTGlyph name="B" xMin="110" yMin="-3" xMax="447" yMax="639">
      <contour>
        <pt x="370" y="324" on="0"/>
        <pt x="447" y="245" on="0"/>
        <pt x="447" y="176" on="1"/>
        <pt x="447" y="91" on="0"/>
        <pt x="329" y="-3" on="0"/>
        <pt x="219" y="-3" on="1"/>
        <pt x="161" y="-3" on="0"/>
        <pt x="110" y="0" on="1"/>
        <pt x="110" y="637" on="1"/>
        <pt x="233" y="639" on="1"/>
        <pt x="312" y="639" on="0"/>
        <pt x="397" y="562" on="0"/>
        <pt x="397" y="491" on="1"/>
        <pt x="397" y="372" on="0"/>
        <pt x="301" y="334" on="1"/>
      </contour>
      <contour>
        <pt x="130" y="618" on="1"/>
        <pt x="130" y="343" on="1"/>
        <pt x="260" y="340" on="1"/>
        <pt x="316" y="351" on="0"/>
        <pt x="376" y="429" on="0"/>
        <pt x="376" y="491" on="1"/>
        <pt x="376" y="549" on="0"/>
        <pt x="302" y="618" on="0"/>
        <pt x="240" y="618" on="1"/>
      </contour>
      <contour>
        <pt x="317" y="17" on="0"/>
        <pt x="427" y="101" on="0"/>
        <pt x="427" y="176" on="1"/>
        <pt x="427" y="240" on="0"/>
        <pt x="345" y="314" on="0"/>
        <pt x="269" y="320" on="1"/>
        <pt x="130" y="320" on="1"/>
        <pt x="130" y="20" on="1"/>
        <pt x="169" y="17" on="0"/>
        <pt x="215" y="17" on="1"/>
      </contour>
    </TTGlyph>
    <TTGlyph name="C" xMin="48" yMin="-5" xMax="491" yMax="641">
      <contour>
        <pt x="413" y="641" on="0"/>
        <pt x="489" y="582" on="1"/>
        <pt x="482" y="565" on="1"/>
        <pt x="475" y="565" on="1"/>
        <pt x="405" y="621" on="0"/>
        <pt x="313" y="621" on="1"/>
        <pt x="194" y="621" on="0"/>
        <pt x="68" y="463" on="0"/>
        <pt x="68" y="316" on="1"/>
        <pt x="68" y="171" on="0"/>
        <pt x="188" y="15" on="0"/>
        <pt x="301" y="15" on="1"/>
        <pt x="401" y="15" on="0"/>
        <pt x="484" y="82" on="1"/>
        <pt x="491" y="80" on="1"/>
        <pt x="489" y="62" on="1"/>
        <pt x="402" y="-5" on="0"/>
        <pt x="302" y="-5" on="1"/>
        <pt x="179" y="-5" on="0"/>
        <pt x="48" y="162" on="0"/>
        <pt x="48" y="317" on="1"/>
        <pt x="48" y="473" on="0"/>
        <pt x="185" y="641" on="0"/>
        <pt x="313" y="641" on="1"/>
      </contour>
    </TTGlyph>
    <TTGlyph name="C.ss01" xMin="-100" yMin="0" xMax="567" yMax="491">
      <contour>
        <pt x="369" y="471" on="1"/>
        <pt x="396" y="460" on="0"/>
        <pt x="417" y="446" on="1"/>
        <pt x="411" y="428" on="1"/>
        <pt x="405" y="428" on="1"/>
        <pt x="348" y="471" on="0"/>
        <pt x="275" y="471" on="1"/>
        <pt x="181" y="471" on="0"/>
        <pt x="81" y="354" on="0"/>
        <pt x="81" y="244" on="1"/>
        <pt x="81" y="135" on="0"/>
        <pt x="177" y="20" on="0"/>
        <pt x="266" y="20" on="1"/>
        <pt x="346" y="20" on="0"/>
        <pt x="412" y="70" on="1"/>
        <pt x="418" y="68" on="1"/>
        <pt x="416" y="50" on="1"/>
        <pt x="388" y="31" on="0"/>
        <pt x="360" y="20" on="1"/>
        <pt x="567" y="20" on="1"/>
        <pt x="567" y="0" on="1"/>
        <pt x="-100" y="0" on="1"/>
        <pt x="-100" y="20" on="1"/>
        <pt x="172" y="20" on="1"/>
        <pt x="61" y="72" on="0"/>
        <pt x="61" y="244" on="1"/>
        <pt x="61" y="420" on="0"/>
        <pt x="179" y="471" on="1"/>
        <pt x="-100" y="471" on="1"/>
        <pt x="-100" y="491" on="1"/>
        <pt x="567" y="491" on="1"/>
        <pt x="567" y="471" on="1"/>
      </contour>
    </TTGlyph>
    <TTGlyph name="Cacute" xMin="48" yMin="-5" xMax="491" yMax="836">
      <component glyphName="C" x="0" y="0" flags="0x1000"/>
      <component glyphName="acute.cap" x="149" y="185" flags="0x1000"/>
    </TTGlyph>
    <TTGlyph name="Ccaron" xMin="48" yMin="-5" xMax="491" yMax="819">
      <component glyphName="C" x="0" y="0" flags="0x1000"/>
      <component glyphName="caron.cap" x="118" y="185" flags="0x1000"/>
    </TTGlyph>
    <TTGlyph name="Ccedilla" xMin="48" yMin="-178" xMax="491" yMax="641">
      <contour>
        <pt x="410" y="1" on="0"/>
        <pt x="317" y="-5" on="1"/>
        <pt x="301" y="-55" on="1"/>
        <pt x="332" y="-75" on="1"/>
        <pt x="365" y="-96" on="0"/>
        <pt x="365" y="-125" on="1"/>
        <pt x="365" y="-149" on="0"/>
        <pt x="330" y="-178" on="0"/>
        <pt x="305" y="-178" on="1"/>
        <pt x="268" y="-178" on="0"/>
        <pt x="246" y="-145" on="1"/>
        <pt x="252" y="-127" on="1"/>
        <pt x="256" y="-127" on="1"/>
        <pt x="266" y="-143" on="0"/>
        <pt x="288" y="-158" on="0"/>
        <pt x="305" y="-158" on="1"/>
        <pt x="323" y="-158" on="0"/>
        <pt x="345" y="-141" on="0"/>
        <pt x="345" y="-125" on="1"/>
        <pt x="345" y="-114" on="0"/>
        <pt x="334" y="-101" on="0"/>
        <pt x="321" y="-92" on="1"/>
        <pt x="277" y="-64" on="1"/>
        <pt x="297" y="-5" on="1"/>
        <pt x="176" y="-3" on="0"/>
        <pt x="48" y="163" on="0"/>
        <pt x="48" y="317" on="1"/>
        <pt x="48" y="473" on="0"/>
        <pt x="185" y="641" on="0"/>
        <pt x="313" y="641" on="1"/>
        <pt x="413" y="641" on="0"/>
        <pt x="489" y="582" on="1"/>
        <pt x="482" y="565" on="1"/>
        <pt x="475" y="565" on="1"/>
        <pt x="405" y="621" on="0"/>
        <pt x="313" y="621" on="1"/>
        <pt x="194" y="621" on="0"/>
        <pt x="68" y="463" on="0"/>
        <pt x="68" y="316" on="1"/>
        <pt x="68" y="171" on="0"/>
        <pt x="188" y="15" on="0"/>
        <pt x="301" y="15" on="1"/>
        <pt x="401" y="15" on="0"/>
        <pt x="484" y="82" on="1"/>
        <pt x="491" y="80" on="1"/>
        <pt x="489" y="62" on="1"/>
      </contour>
    </TTGlyph>
    <TTGlyph name="Ccircumflex" xMin="48" yMin="-5" xMax="491" yMax="828">
      <component glyphName="C" x="0" y="0" flags="0x1000"/>
      <component glyphName="caron.cap" x="508" y="1372" scale="-1.0" flags="0x1000"/>
    </TTGlyph>
    <TTGlyph name="Cdotaccent" xMin="48" yMin="-5" xMax="491" yMax="816">
      <component glyphName="C" x="0" y="0" flags="0x1000"/>
      <component glyphName="period" x="198" y="778" flags="0x1000"/>
    </TTGlyph>
    <TTGlyph name="D" xMin="110" yMin="-5" xMax="589" yMax="642">
      <contour>
        <pt x="445" y="642" on="0"/>
        <pt x="589" y="485" on="0"/>
        <pt x="589" y="339" on="1"/>
        <pt x="589" y="173" on="0"/>
        <pt x="440" y="-5" on="0"/>
        <pt x="301" y="-5" on="1"/>
        <pt x="220" y="-5" on="0"/>
        <pt x="110" y="0" on="1"/>
        <pt x="110" y="637" on="1"/>
        <pt x="311" y="642" on="1"/>
      </contour>
      <contour>
        <pt x="430" y="15" on="0"/>
        <pt x="569" y="183" on="0"/>
        <pt x="569" y="339" on="1"/>
        <pt x="569" y="476" on="0"/>
        <pt x="435" y="622" on="0"/>
        <pt x="311" y="622" on="1"/>
        <pt x="233" y="622" on="0"/>
        <pt x="130" y="617" on="1"/>
        <pt x="130" y="20" on="1"/>
        <pt x="237" y="15" on="0"/>
        <pt x="301" y="15" on="1"/>
      </contour>
    </TTGlyph>
    <TTGlyph name="D.ss01" xMin="-100" yMin="0" xMax="661" yMax="491">
      <contour>
        <pt x="379" y="471" on="1"/>
        <pt x="499" y="422" on="0"/>
        <pt x="499" y="260" on="1"/>
        <pt x="499" y="75" on="0"/>
        <pt x="373" y="20" on="1"/>
        <pt x="661" y="20" on="1"/>
        <pt x="661" y="0" on="1"/>
        <pt x="-100" y="0" on="1"/>
        <pt x="-100" y="20" on="1"/>
        <pt x="112" y="20" on="1"/>
        <pt x="112" y="471" on="1"/>
        <pt x="-100" y="471" on="1"/>
        <pt x="-100" y="491" on="1"/>
        <pt x="661" y="491" on="1"/>
        <pt x="661" y="471" on="1"/>
      </contour>
      <contour>
        <pt x="479" y="361" on="0"/>
        <pt x="374" y="470" on="0"/>
        <pt x="275" y="470" on="1"/>
        <pt x="131" y="466" on="1"/>
        <pt x="131" y="23" on="1"/>
        <pt x="209" y="20" on="1"/>
        <pt x="293" y="20" on="1"/>
        <pt x="383" y="28" on="0"/>
        <pt x="479" y="151" on="0"/>
        <pt x="479" y="259" on="1"/>
      </contour>
    </TTGlyph>
    <TTGlyph name="Dcaron" xMin="110" yMin="-5" xMax="589" yMax="819">
      <component glyphName="D" x="0" y="0" flags="0x1000"/>
      <component glyphName="caron.cap" x="113" y="185" flags="0x1000"/>
    </TTGlyph>
    <TTGlyph name="Dcroat" xMin="110" yMin="-5" xMax="589" yMax="792">
      <component glyphName="D" x="0" y="0" flags="0x1000"/>
      <component glyphName="macron" x="113" y="185" flags="0x1000"/>
    </TTGlyph>
    <TTGlyph name="Delta" xMin="19" yMin="0" xMax="526" yMax="637">
      <contour>
        <pt x="19" y="0" on="1"/>
        <pt x="273" y="637" on="1"/>
        <pt x="293" y="637" on="1"/>
        <pt x="526" y="0" on="1"/>
      </contour>
      <contour>
        <pt x="47" y="20" on="1"/>
        <pt x="498" y="20" on="1"/>
        <pt x="285" y="603" on="1"/>
        <pt x="280" y="603" on="1"/>
      </contour>
    </TTGlyph>
    <TTGlyph name="E" xMin="110" yMin="0" xMax="425" yMax="637">
      <contour>
        <pt x="421" y="0" on="1"/>
        <pt x="110" y="0" on="1"/>
        <pt x="110" y="637" on="1"/>
        <pt x="418" y="637" on="1"/>
        <pt x="421" y="633" on="1"/>
        <pt x="417" y="617" on="1"/>
        <pt x="130" y="617" on="1"/>
        <pt x="130" y="340" on="1"/>
        <pt x="368" y="340" on="1"/>
        <pt x="371" y="336" on="1"/>
        <pt x="367" y="320" on="1"/>
        <pt x="130" y="320" on="1"/>
        <pt x="130" y="20" on="1"/>
        <pt x="422" y="20" on="1"/>
        <pt x="425" y="16" on="1"/>
      </contour>
    </TTGlyph>
    <TTGlyph name="Eacute" xMin="110" yMin="0" xMax="425" yMax="836">
      <component glyphName="E" x="0" y="0" flags="0x1000"/>
      <component glyphName="acute.cap" x="102" y="185" flags="0x1000"/>
    </TTGlyph>
    <TTGlyph name="Ebreve" xMin="110" yMin="0" xMax="425" yMax="813">
      <component glyphName="E" x="0" y="0" flags="0x1000"/>
      <component glyphName="breve.cap" x="71" y="185" flags="0x1000"/>
    </TTGlyph>
    <TTGlyph name="Ecaron" xMin="110" yMin="0" xMax="425" yMax="819">
      <component glyphName="E" x="0" y="0" flags="0x1000"/>
      <component glyphName="caron.cap" x="71" y="185" flags="0x1000"/>
    </TTGlyph>
    <TTGlyph name="Ecircumflex" xMin="110" yMin="0" xMax="425" yMax="828">
      <contour>
        <pt x="159" y="752" on="1"/>
        <pt x="206" y="785" on="0"/>
        <pt x="257" y="828" on="1"/>
        <pt x="273" y="828" on="1"/>
        <pt x="339" y="776" on="0"/>
        <pt x="373" y="752" on="1"/>
        <pt x="366" y="738" on="1"/>
        <pt x="361" y="738" on="1"/>
        <pt x="315" y="770" on="0"/>
        <pt x="266" y="808" on="1"/>
        <pt x="217" y="770" on="0"/>
        <pt x="171" y="738" on="1"/>
        <pt x="166" y="738" on="1"/>
      </contour>
      <contour>
        <pt x="421" y="0" on="1"/>
        <pt x="110" y="0" on="1"/>
        <pt x="110" y="637" on="1"/>
        <pt x="418" y="637" on="1"/>
        <pt x="421" y="633" on="1"/>
        <pt x="417" y="617" on="1"/>
        <pt x="130" y="617" on="1"/>
        <pt x="130" y="340" on="1"/>
        <pt x="368" y="340" on="1"/>
        <pt x="371" y="336" on="1"/>
        <pt x="367" y="320" on="1"/>
        <pt x="130" y="320" on="1"/>
        <pt x="130" y="20" on="1"/>
        <pt x="422" y="20" on="1"/>
        <pt x="425" y="16" on="1"/>
      </contour>
    </TTGlyph>
    <TTGlyph name="Ecircumflexacute" xMin="110" yMin="0" xMax="425" yMax="895">
      <component glyphName="E" x="0" y="0" flags="0x1000"/>
      <component glyphName="circumflexacute" x="71" y="185" flags="0x1000"/>
    </TTGlyph>
    <TTGlyph name="Ecircumflexdotbelow" xMin="110" yMin="-128" xMax="425" yMax="828">
      <contour>
        <pt x="159" y="752" on="1"/>
        <pt x="206" y="785" on="0"/>
        <pt x="257" y="828" on="1"/>
        <pt x="273" y="828" on="1"/>
        <pt x="339" y="776" on="0"/>
        <pt x="373" y="752" on="1"/>
        <pt x="366" y="738" on="1"/>
        <pt x="361" y="738" on="1"/>
        <pt x="315" y="770" on="0"/>
        <pt x="266" y="808" on="1"/>
        <pt x="217" y="770" on="0"/>
        <pt x="171" y="738" on="1"/>
        <pt x="166" y="738" on="1"/>
      </contour>
      <contour>
        <pt x="421" y="0" on="1"/>
        <pt x="110" y="0" on="1"/>
        <pt x="110" y="637" on="1"/>
        <pt x="418" y="637" on="1"/>
        <pt x="421" y="633" on="1"/>
        <pt x="417" y="617" on="1"/>
        <pt x="130" y="617" on="1"/>
        <pt x="130" y="340" on="1"/>
        <pt x="368" y="340" on="1"/>
        <pt x="371" y="336" on="1"/>
        <pt x="367" y="320" on="1"/>
        <pt x="130" y="320" on="1"/>
        <pt x="130" y="20" on="1"/>
        <pt x="422" y="20" on="1"/>
        <pt x="425" y="16" on="1"/>
      </contour>
      <contour>
        <pt x="287" y="-88" on="0"/>
        <pt x="287" y="-108" on="1"/>
        <pt x="287" y="-128" on="0"/>
        <pt x="267" y="-128" on="1"/>
        <pt x="247" y="-128" on="0"/>
        <pt x="247" y="-108" on="1"/>
        <pt x="247" y="-88" on="0"/>
        <pt x="267" y="-88" on="1"/>
      </contour>
    </TTGlyph>
    <TTGlyph name="Ecircumflexgrave" xMin="110" yMin="0" xMax="425" yMax="895">
      <component glyphName="E" x="0" y="0" flags="0x1000"/>
      <component glyphName="circumflexgrave" x="71" y="185" flags="0x1000"/>
    </TTGlyph>
    <TTGlyph name="Ecircumflexhookabove" xMin="110" yMin="0" xMax="425" yMax="922">
      <contour>
        <pt x="325" y="902" on="0"/>
        <pt x="299" y="881" on="1"/>
        <pt x="292" y="894" on="1"/>
        <pt x="325" y="922" on="0"/>
        <pt x="353" y="922" on="1"/>
        <pt x="371" y="922" on="0"/>
        <pt x="394" y="900" on="0"/>
        <pt x="394" y="885" on="1"/>
        <pt x="394" y="857" on="0"/>
        <pt x="349" y="823" on="1"/>
        <pt x="364" y="796" on="1"/>
        <pt x="348" y="789" on="1"/>
        <pt x="327" y="828" on="1"/>
        <pt x="375" y="861" on="0"/>
        <pt x="375" y="883" on="1"/>
        <pt x="375" y="902" on="0"/>
        <pt x="351" y="902" on="1"/>
      </contour>
      <contour>
        <pt x="159" y="732" on="1"/>
        <pt x="206" y="765" on="0"/>
        <pt x="257" y="808" on="1"/>
        <pt x="273" y="808" on="1"/>
        <pt x="339" y="756" on="0"/>
        <pt x="373" y="732" on="1"/>
        <pt x="366" y="718" on="1"/>
        <pt x="361" y="718" on="1"/>
        <pt x="315" y="750" on="0"/>
        <pt x="266" y="788" on="1"/>
        <pt x="217" y="750" on="0"/>
        <pt x="171" y="718" on="1"/>
        <pt x="166" y="718" on="1"/>
      </contour>
      <contour>
        <pt x="421" y="0" on="1"/>
        <pt x="110" y="0" on="1"/>
        <pt x="110" y="637" on="1"/>
        <pt x="418" y="637" on="1"/>
        <pt x="421" y="633" on="1"/>
        <pt x="417" y="617" on="1"/>
        <pt x="130" y="617" on="1"/>
        <pt x="130" y="340" on="1"/>
        <pt x="368" y="340" on="1"/>
        <pt x="371" y="336" on="1"/>
        <pt x="367" y="320" on="1"/>
        <pt x="130" y="320" on="1"/>
        <pt x="130" y="20" on="1"/>
        <pt x="422" y="20" on="1"/>
        <pt x="425" y="16" on="1"/>
      </contour>
    </TTGlyph>
    <TTGlyph name="Ecircumflextilde" xMin="110" yMin="0" xMax="425" yMax="895">
      <component glyphName="E" x="0" y="0" flags="0x1000"/>
      <component glyphName="circumflexgrave" x="71" y="185" flags="0x1000"/>
    </TTGlyph>
    <TTGlyph name="Edieresis" xMin="110" yMin="0" xMax="425" yMax="800">
      <contour>
        <pt x="176" y="760" on="0"/>
        <pt x="176" y="780" on="1"/>
        <pt x="176" y="800" on="0"/>
        <pt x="196" y="800" on="1"/>
        <pt x="216" y="800" on="0"/>
        <pt x="216" y="780" on="1"/>
        <pt x="216" y="760" on="0"/>
        <pt x="196" y="760" on="1"/>
      </contour>
      <contour>
        <pt x="316" y="760" on="0"/>
        <pt x="316" y="780" on="1"/>
        <pt x="316" y="800" on="0"/>
        <pt x="336" y="800" on="1"/>
        <pt x="356" y="800" on="0"/>
        <pt x="356" y="780" on="1"/>
        <pt x="356" y="760" on="0"/>
        <pt x="336" y="760" on="1"/>
      </contour>
      <contour>
        <pt x="421" y="0" on="1"/>
        <pt x="110" y="0" on="1"/>
        <pt x="110" y="637" on="1"/>
        <pt x="418" y="637" on="1"/>
        <pt x="421" y="633" on="1"/>
        <pt x="417" y="617" on="1"/>
        <pt x="130" y="617" on="1"/>
        <pt x="130" y="340" on="1"/>
        <pt x="368" y="340" on="1"/>
        <pt x="371" y="336" on="1"/>
        <pt x="367" y="320" on="1"/>
        <pt x="130" y="320" on="1"/>
        <pt x="130" y="20" on="1"/>
        <pt x="422" y="20" on="1"/>
        <pt x="425" y="16" on="1"/>
      </contour>
    </TTGlyph>
    <TTGlyph name="Edotaccent" xMin="110" yMin="0" xMax="425" yMax="816">
      <contour>
        <pt x="246" y="776" on="0"/>
        <pt x="246" y="796" on="1"/>
        <pt x="246" y="816" on="0"/>
        <pt x="266" y="816" on="1"/>
        <pt x="286" y="816" on="0"/>
        <pt x="286" y="796" on="1"/>
        <pt x="286" y="776" on="0"/>
        <pt x="266" y="776" on="1"/>
      </contour>
      <contour>
        <pt x="421" y="0" on="1"/>
        <pt x="110" y="0" on="1"/>
        <pt x="110" y="637" on="1"/>
        <pt x="418" y="637" on="1"/>
        <pt x="421" y="633" on="1"/>
        <pt x="417" y="617" on="1"/>
        <pt x="130" y="617" on="1"/>
        <pt x="130" y="340" on="1"/>
        <pt x="368" y="340" on="1"/>
        <pt x="371" y="336" on="1"/>
        <pt x="367" y="320" on="1"/>
        <pt x="130" y="320" on="1"/>
        <pt x="130" y="20" on="1"/>
        <pt x="422" y="20" on="1"/>
        <pt x="425" y="16" on="1"/>
      </contour>
    </TTGlyph>
    <TTGlyph name="Edotbelow" xMin="110" yMin="-128" xMax="425" yMax="637">
      <contour>
        <pt x="421" y="0" on="1"/>
        <pt x="110" y="0" on="1"/>
        <pt x="110" y="637" on="1"/>
        <pt x="418" y="637" on="1"/>
        <pt x="421" y="633" on="1"/>
        <pt x="417" y="617" on="1"/>
        <pt x="130" y="617" on="1"/>
        <pt x="130" y="340" on="1"/>
        <pt x="368" y="340" on="1"/>
        <pt x="371" y="336" on="1"/>
        <pt x="367" y="320" on="1"/>
        <pt x="130" y="320" on="1"/>
        <pt x="130" y="20" on="1"/>
        <pt x="422" y="20" on="1"/>
        <pt x="425" y="16" on="1"/>
      </contour>
      <contour>
        <pt x="287" y="-88" on="0"/>
        <pt x="287" y="-108" on="1"/>
        <pt x="287" y="-128" on="0"/>
        <pt x="267" y="-128" on="1"/>
        <pt x="247" y="-128" on="0"/>
        <pt x="247" y="-108" on="1"/>
        <pt x="247" y="-88" on="0"/>
        <pt x="267" y="-88" on="1"/>
      </contour>
    </TTGlyph>
    <TTGlyph name="Egrave" xMin="110" yMin="0" xMax="425" yMax="838">
      <contour>
        <pt x="240" y="781" on="0"/>
        <pt x="173" y="819" on="1"/>
        <pt x="171" y="824" on="1"/>
        <pt x="178" y="836" on="1"/>
        <pt x="183" y="838" on="1"/>
        <pt x="268" y="788" on="0"/>
        <pt x="359" y="744" on="1"/>
        <pt x="352" y="729" on="1"/>
        <pt x="347" y="726" on="1"/>
      </contour>
      <contour>
        <pt x="421" y="0" on="1"/>
        <pt x="110" y="0" on="1"/>
        <pt x="110" y="637" on="1"/>
        <pt x="418" y="637" on="1"/>
        <pt x="421" y="633" on="1"/>
        <pt x="417" y="617" on="1"/>
        <pt x="130" y="617" on="1"/>
        <pt x="130" y="340" on="1"/>
        <pt x="368" y="340" on="1"/>
        <pt x="371" y="336" on="1"/>
        <pt x="367" y="320" on="1"/>
        <pt x="130" y="320" on="1"/>
        <pt x="130" y="20" on="1"/>
        <pt x="422" y="20" on="1"/>
        <pt x="425" y="16" on="1"/>
      </contour>
    </TTGlyph>
    <TTGlyph name="Ehookabove" xMin="110" yMin="0" xMax="425" yMax="862">
      <component glyphName="E" x="0" y="0" flags="0x1000"/>
      <component glyphName="hookabove" x="71" y="185" flags="0x1000"/>
    </TTGlyph>
    <TTGlyph name="Emacron" xMin="110" yMin="0" xMax="425" yMax="792">
      <component glyphName="E" x="0" y="0" flags="0x1000"/>
      <component glyphName="macron" x="71" y="185" flags="0x1000"/>
    </TTGlyph>
    <TTGlyph name="Eng" xMin="110" yMin="-144" xMax="560" yMax="638">
      <contour>
        <pt x="558" y="39" on="1"/>
        <pt x="558" y="-20" on="0"/>
        <pt x="500" y="-102" on="0"/>
        <pt x="429" y="-144" on="1"/>
        <pt x="418" y="-133" on="1"/>
        <pt x="418" y="-127" on="1"/>
        <pt x="475" y="-93" on="0"/>
        <pt x="529" y="-33" on="0"/>
        <pt x="535" y="5" on="1"/>
        <pt x="135" y="595" on="1"/>
        <pt x="131" y="595" on="1"/>
        <pt x="130" y="199" on="1"/>
        <pt x="130" y="0" on="1"/>
        <pt x="110" y="0" on="1"/>
        <pt x="110" y="190" on="1"/>
        <pt x="111" y="637" on="1"/>
        <pt x="130" y="637" on="1"/>
        <pt x="534" y="42" on="1"/>
        <pt x="538" y="42" on="1"/>
        <pt x="540" y="636" on="1"/>
        <pt x="560" y="638" on="1"/>
        <pt x="559" y="176" on="1"/>
      </contour>
    </TTGlyph>
    <TTGlyph name="Eogonek" xMin="110" yMin="-197" xMax="431" yMax="637">
      <contour>
        <pt x="387" y="-197" on="0"/>
        <pt x="337" y="-197" on="1"/>
        <pt x="308" y="-197" on="0"/>
        <pt x="272" y="-162" on="0"/>
        <pt x="272" y="-132" on="1"/>
        <pt x="272" y="-101" on="0"/>
        <pt x="292" y="-72" on="1"/>
        <pt x="341" y="0" on="1"/>
        <pt x="110" y="0" on="1"/>
        <pt x="110" y="637" on="1"/>
        <pt x="418" y="637" on="1"/>
        <pt x="421" y="633" on="1"/>
        <pt x="417" y="617" on="1"/>
        <pt x="130" y="617" on="1"/>
        <pt x="130" y="340" on="1"/>
        <pt x="368" y="340" on="1"/>
        <pt x="371" y="336" on="1"/>
        <pt x="367" y="320" on="1"/>
        <pt x="130" y="320" on="1"/>
        <pt x="130" y="20" on="1"/>
        <pt x="422" y="20" on="1"/>
        <pt x="425" y="16" on="1"/>
        <pt x="421" y="0" on="1"/>
        <pt x="365" y="0" on="1"/>
        <pt x="312" y="-78" on="1"/>
        <pt x="292" y="-107" on="0"/>
        <pt x="292" y="-132" on="1"/>
        <pt x="292" y="-152" on="0"/>
        <pt x="316" y="-177" on="0"/>
        <pt x="337" y="-177" on="1"/>
        <pt x="379" y="-177" on="0"/>
        <pt x="418" y="-124" on="1"/>
        <pt x="420" y="-124" on="1"/>
        <pt x="431" y="-140" on="1"/>
      </contour>
    </TTGlyph>
    <TTGlyph name="Eth" xMin="8" yMin="-5" xMax="606" yMax="642">
      <contour>
        <pt x="462" y="642" on="0"/>
        <pt x="606" y="485" on="0"/>
        <pt x="606" y="339" on="1"/>
        <pt x="606" y="173" on="0"/>
        <pt x="457" y="-5" on="0"/>
        <pt x="318" y="-5" on="1"/>
        <pt x="237" y="-5" on="0"/>
        <pt x="127" y="0" on="1"/>
        <pt x="127" y="319" on="1"/>
        <pt x="10" y="319" on="1"/>
        <pt x="8" y="322" on="1"/>
        <pt x="9" y="339" on="1"/>
        <pt x="127" y="339" on="1"/>
        <pt x="127" y="637" on="1"/>
        <pt x="328" y="642" on="1"/>
      </contour>
      <contour>
        <pt x="447" y="15" on="0"/>
        <pt x="586" y="183" on="0"/>
        <pt x="586" y="339" on="1"/>
        <pt x="586" y="476" on="0"/>
        <pt x="452" y="622" on="0"/>
        <pt x="328" y="622" on="1"/>
        <pt x="250" y="622" on="0"/>
        <pt x="147" y="617" on="1"/>
        <pt x="147" y="339" on="1"/>
        <pt x="319" y="339" on="1"/>
        <pt x="321" y="336" on="1"/>
        <pt x="320" y="319" on="1"/>
        <pt x="147" y="319" on="1"/>
        <pt x="147" y="20" on="1"/>
        <pt x="254" y="15" on="0"/>
        <pt x="318" y="15" on="1"/>
      </contour>
    </TTGlyph>
    <TTGlyph name="Etilde" xMin="110" yMin="0" xMax="425" yMax="816">
      <component glyphName="E" x="0" y="0" flags="0x1000"/>
      <component glyphName="tilde" x="71" y="185" flags="0x1000"/>
    </TTGlyph>
    <TTGlyph name="Euro" xMin="22" yMin="-4" xMax="454" yMax="494">
      <contour>
        <pt x="382" y="16" on="0"/>
        <pt x="446" y="66" on="1"/>
        <pt x="452" y="64" on="1"/>
        <pt x="450" y="46" on="1"/>
        <pt x="381" y="-4" on="0"/>
        <pt x="302" y="-4" on="1"/>
        <pt x="222" y="-4" on="0"/>
        <pt x="122" y="83" on="0"/>
        <pt x="106" y="164" on="1"/>
        <pt x="25" y="164" on="1"/>
        <pt x="22" y="167" on="1"/>
        <pt x="24" y="184" on="1"/>
        <pt x="103" y="184" on="1"/>
        <pt x="100" y="211" on="0"/>
        <pt x="100" y="241" on="1"/>
        <pt x="100" y="257" on="0"/>
        <pt x="102" y="287" on="1"/>
        <pt x="25" y="287" on="1"/>
        <pt x="22" y="290" on="1"/>
        <pt x="24" y="307" on="1"/>
        <pt x="104" y="307" on="1"/>
        <pt x="118" y="398" on="0"/>
        <pt x="226" y="494" on="0"/>
        <pt x="315" y="494" on="1"/>
        <pt x="393" y="494" on="0"/>
        <pt x="454" y="450" on="1"/>
        <pt x="448" y="432" on="1"/>
        <pt x="442" y="432" on="1"/>
        <pt x="388" y="474" on="0"/>
        <pt x="314" y="474" on="1"/>
        <pt x="154" y="474" on="0"/>
        <pt x="126" y="307" on="1"/>
        <pt x="343" y="307" on="1"/>
        <pt x="346" y="304" on="1"/>
        <pt x="344" y="287" on="1"/>
        <pt x="123" y="287" on="1"/>
        <pt x="121" y="259" on="0"/>
        <pt x="121" y="241" on="1"/>
        <pt x="121" y="208" on="0"/>
        <pt x="125" y="184" on="1"/>
        <pt x="343" y="184" on="1"/>
        <pt x="346" y="181" on="1"/>
        <pt x="344" y="164" on="1"/>
        <pt x="129" y="164" on="1"/>
        <pt x="143" y="92" on="0"/>
        <pt x="232" y="16" on="0"/>
        <pt x="302" y="16" on="1"/>
      </contour>
    </TTGlyph>
    <TTGlyph name="F" xMin="110" yMin="0" xMax="410" yMax="637">
      <contour>
        <pt x="130" y="330" on="1"/>
        <pt x="357" y="330" on="1"/>
        <pt x="360" y="326" on="1"/>
        <pt x="356" y="310" on="1"/>
        <pt x="130" y="310" on="1"/>
        <pt x="130" y="0" on="1"/>
        <pt x="110" y="0" on="1"/>
        <pt x="110" y="637" on="1"/>
        <pt x="407" y="637" on="1"/>
        <pt x="410" y="633" on="1"/>
        <pt x="406" y="617" on="1"/>
        <pt x="130" y="617" on="1"/>
      </contour>
    </TTGlyph>
    <TTGlyph name="G" xMin="48" yMin="-5" xMax="523" yMax="641">
      <contour>
        <pt x="432" y="641" on="0"/>
        <pt x="523" y="587" on="1"/>
        <pt x="517" y="569" on="1"/>
        <pt x="510" y="569" on="1"/>
        <pt x="423" y="621" on="0"/>
        <pt x="343" y="621" on="1"/>
        <pt x="211" y="621" on="0"/>
        <pt x="68" y="461" on="0"/>
        <pt x="68" y="312" on="1"/>
        <pt x="68" y="169" on="0"/>
        <pt x="192" y="15" on="0"/>
        <pt x="307" y="15" on="1"/>
        <pt x="354" y="15" on="0"/>
        <pt x="433" y="28" on="0"/>
        <pt x="496" y="45" on="1"/>
        <pt x="496" y="236" on="1"/>
        <pt x="516" y="238" on="1"/>
        <pt x="516" y="30" on="1"/>
        <pt x="450" y="11" on="0"/>
        <pt x="363" y="-4" on="0"/>
        <pt x="308" y="-5" on="1"/>
        <pt x="183" y="-5" on="0"/>
        <pt x="48" y="160" on="0"/>
        <pt x="48" y="313" on="1"/>
        <pt x="48" y="471" on="0"/>
        <pt x="201" y="641" on="0"/>
        <pt x="343" y="641" on="1"/>
      </contour>
    </TTGlyph>
    <TTGlyph name="Gbreve" xMin="48" yMin="-5" xMax="523" yMax="813">
      <component glyphName="G" x="0" y="0" flags="0x1000"/>
      <component glyphName="breve.cap" x="130" y="185" flags="0x1000"/>
    </TTGlyph>
    <TTGlyph name="Gcircumflex" xMin="48" yMin="-5" xMax="523" yMax="828">
      <component glyphName="G" x="0" y="0" flags="0x1000"/>
      <component glyphName="caron.cap" x="520" y="1372" scale="-1.0" flags="0x1000"/>
    </TTGlyph>
    <TTGlyph name="Gcommaaccent" xMin="48" yMin="-211" xMax="523" yMax="641">
      <contour>
        <pt x="432" y="641" on="0"/>
        <pt x="523" y="587" on="1"/>
        <pt x="517" y="569" on="1"/>
        <pt x="510" y="569" on="1"/>
        <pt x="423" y="621" on="0"/>
        <pt x="343" y="621" on="1"/>
        <pt x="211" y="621" on="0"/>
        <pt x="68" y="461" on="0"/>
        <pt x="68" y="312" on="1"/>
        <pt x="68" y="169" on="0"/>
        <pt x="192" y="15" on="0"/>
        <pt x="307" y="15" on="1"/>
        <pt x="354" y="15" on="0"/>
        <pt x="433" y="28" on="0"/>
        <pt x="496" y="45" on="1"/>
        <pt x="496" y="236" on="1"/>
        <pt x="516" y="238" on="1"/>
        <pt x="516" y="30" on="1"/>
        <pt x="450" y="11" on="0"/>
        <pt x="363" y="-4" on="0"/>
        <pt x="308" y="-5" on="1"/>
        <pt x="183" y="-5" on="0"/>
        <pt x="48" y="160" on="0"/>
        <pt x="48" y="313" on="1"/>
        <pt x="48" y="471" on="0"/>
        <pt x="201" y="641" on="0"/>
        <pt x="343" y="641" on="1"/>
      </contour>
      <contour>
        <pt x="350" y="-87" on="0"/>
        <pt x="350" y="-118" on="1"/>
        <pt x="350" y="-160" on="0"/>
        <pt x="284" y="-211" on="1"/>
        <pt x="274" y="-200" on="1"/>
        <pt x="275" y="-197" on="1"/>
        <pt x="329" y="-157" on="0"/>
        <pt x="329" y="-119" on="1"/>
        <pt x="329" y="-99" on="0"/>
        <pt x="299" y="-85" on="1"/>
        <pt x="299" y="-81" on="1"/>
        <pt x="304" y="-74" on="0"/>
        <pt x="312" y="-70" on="1"/>
      </contour>
    </TTGlyph>
    <TTGlyph name="Gdieresis" xMin="48" yMin="-5" xMax="523" yMax="800">
      <component glyphName="G" x="0" y="0" flags="0x1000"/>
      <component glyphName="period" x="280" y="762" flags="0x1000"/>
      <component glyphName="period" x="140" y="762" flags="0x1000"/>
    </TTGlyph>
    <TTGlyph name="Gdotaccent" xMin="48" yMin="-5" xMax="523" yMax="816">
      <component glyphName="G" x="0" y="0" flags="0x1000"/>
      <component glyphName="period" x="210" y="778" flags="0x1000"/>
    </TTGlyph>
    <TTGlyph name="Gtilde" xMin="48" yMin="-5" xMax="523" yMax="816">
      <component glyphName="G" x="0" y="0" flags="0x1000"/>
      <component glyphName="tilde" x="130" y="185" flags="0x1000"/>
    </TTGlyph>
    <TTGlyph name="H" xMin="110" yMin="0" xMax="560" yMax="637">
      <contour>
        <pt x="560" y="0" on="1"/>
        <pt x="540" y="0" on="1"/>
        <pt x="540" y="314" on="1"/>
        <pt x="130" y="314" on="1"/>
        <pt x="130" y="0" on="1"/>
        <pt x="110" y="0" on="1"/>
        <pt x="110" y="637" on="1"/>
        <pt x="130" y="637" on="1"/>
        <pt x="130" y="334" on="1"/>
        <pt x="540" y="334" on="1"/>
        <pt x="540" y="637" on="1"/>
        <pt x="560" y="637" on="1"/>
      </contour>
    </TTGlyph>
    <TTGlyph name="Hbar" xMin="55" yMin="0" xMax="645" yMax="637">
      <contour>
        <pt x="575" y="484" on="1"/>
        <pt x="575" y="0" on="1"/>
        <pt x="555" y="0" on="1"/>
        <pt x="555" y="314" on="1"/>
        <pt x="145" y="314" on="1"/>
        <pt x="145" y="0" on="1"/>
        <pt x="125" y="0" on="1"/>
        <pt x="125" y="484" on="1"/>
        <pt x="59" y="484" on="1"/>
        <pt x="55" y="487" on="1"/>
        <pt x="57" y="504" on="1"/>
        <pt x="125" y="504" on="1"/>
        <pt x="125" y="637" on="1"/>
        <pt x="145" y="637" on="1"/>
        <pt x="145" y="504" on="1"/>
        <pt x="555" y="504" on="1"/>
        <pt x="555" y="637" on="1"/>
        <pt x="575" y="637" on="1"/>
        <pt x="575" y="504" on="1"/>
        <pt x="641" y="504" on="1"/>
        <pt x="645" y="501" on="1"/>
        <pt x="643" y="484" on="1"/>
      </contour>
      <contour>
        <pt x="145" y="484" on="1"/>
        <pt x="145" y="334" on="1"/>
        <pt x="555" y="334" on="1"/>
        <pt x="555" y="484" on="1"/>
      </contour>
    </TTGlyph>
    <TTGlyph name="Hcircumflex" xMin="110" yMin="0" xMax="560" yMax="828">
      <contour>
        <pt x="223" y="752" on="1"/>
        <pt x="270" y="785" on="0"/>
        <pt x="321" y="828" on="1"/>
        <pt x="337" y="828" on="1"/>
        <pt x="403" y="776" on="0"/>
        <pt x="437" y="752" on="1"/>
        <pt x="430" y="738" on="1"/>
        <pt x="425" y="738" on="1"/>
        <pt x="379" y="770" on="0"/>
        <pt x="330" y="808" on="1"/>
        <pt x="281" y="770" on="0"/>
        <pt x="235" y="738" on="1"/>
        <pt x="230" y="738" on="1"/>
      </contour>
      <contour>
        <pt x="560" y="0" on="1"/>
        <pt x="540" y="0" on="1"/>
        <pt x="540" y="314" on="1"/>
        <pt x="130" y="314" on="1"/>
        <pt x="130" y="0" on="1"/>
        <pt x="110" y="0" on="1"/>
        <pt x="110" y="637" on="1"/>
        <pt x="130" y="637" on="1"/>
        <pt x="130" y="334" on="1"/>
        <pt x="540" y="334" on="1"/>
        <pt x="540" y="637" on="1"/>
        <pt x="560" y="637" on="1"/>
      </contour>
    </TTGlyph>
    <TTGlyph name="I" xMin="110" yMin="0" xMax="130" yMax="637">
      <contour>
        <pt x="110" y="0" on="1"/>
        <pt x="110" y="637" on="1"/>
        <pt x="130" y="637" on="1"/>
        <pt x="130" y="0" on="1"/>
      </contour>
    </TTGlyph>
    <TTGlyph name="I.ss01" xMin="-100" yMin="0" xMax="337" yMax="491">
      <contour>
        <pt x="337" y="20" on="1"/>
        <pt x="337" y="0" on="1"/>
        <pt x="-100" y="0" on="1"/>
        <pt x="-100" y="20" on="1"/>
        <pt x="108" y="20" on="1"/>
        <pt x="108" y="471" on="1"/>
        <pt x="-100" y="471" on="1"/>
        <pt x="-100" y="491" on="1"/>
        <pt x="337" y="491" on="1"/>
        <pt x="337" y="471" on="1"/>
        <pt x="128" y="471" on="1"/>
        <pt x="128" y="20" on="1"/>
      </contour>
    </TTGlyph>
    <TTGlyph name="IJ" xMin="110" yMin="-98" xMax="400" yMax="637">
      <component glyphName="I" x="0" y="0" flags="0x1000"/>
      <component glyphName="J" x="240" y="0" flags="0x1000"/>
    </TTGlyph>
    <TTGlyph name="Iacute" xMin="58" yMin="0" xMax="246" yMax="836">
      <component glyphName="I" x="0" y="0" flags="0x1000"/>
      <component glyphName="acute.cap" x="-44" y="185" flags="0x1000"/>
    </TTGlyph>
    <TTGlyph name="Iacute_J.loclNLD" xMin="58" yMin="-98" xMax="474" yMax="836">
      <component glyphName="I" x="0" y="0" flags="0x1000"/>
      <component glyphName="acute.cap" x="-44" y="185" flags="0x1000"/>
      <component glyphName="J" x="240" y="0" flags="0x1000"/>
      <component glyphName="acute.cap" x="184" y="185" flags="0x1000"/>
    </TTGlyph>
    <TTGlyph name="Ibreve" xMin="19" yMin="0" xMax="221" yMax="813">
      <component glyphName="I" x="0" y="0" flags="0x1000"/>
      <component glyphName="breve.cap" x="-75" y="185" flags="0x1000"/>
    </TTGlyph>
    <TTGlyph name="Icaron" xMin="13" yMin="0" xMax="227" yMax="819">
      <component glyphName="I" x="0" y="0" flags="0x1000"/>
      <component glyphName="caron.cap" x="-75" y="185" flags="0x1000"/>
    </TTGlyph>
    <TTGlyph name="Icircumflex" xMin="13" yMin="0" xMax="227" yMax="828">
      <contour>
        <pt x="60" y="785" on="0"/>
        <pt x="111" y="828" on="1"/>
        <pt x="127" y="828" on="1"/>
        <pt x="193" y="776" on="0"/>
        <pt x="227" y="752" on="1"/>
        <pt x="220" y="738" on="1"/>
        <pt x="215" y="738" on="1"/>
        <pt x="169" y="770" on="0"/>
        <pt x="120" y="808" on="1"/>
        <pt x="71" y="770" on="0"/>
        <pt x="25" y="738" on="1"/>
        <pt x="20" y="738" on="1"/>
        <pt x="13" y="752" on="1"/>
      </contour>
      <contour>
        <pt x="110" y="0" on="1"/>
        <pt x="110" y="637" on="1"/>
        <pt x="130" y="637" on="1"/>
        <pt x="130" y="0" on="1"/>
      </contour>
    </TTGlyph>
    <TTGlyph name="Idieresis" xMin="50" yMin="0" xMax="190" yMax="800">
      <contour>
        <pt x="90" y="800" on="0"/>
        <pt x="90" y="780" on="1"/>
        <pt x="90" y="760" on="0"/>
        <pt x="70" y="760" on="1"/>
        <pt x="50" y="760" on="0"/>
        <pt x="50" y="780" on="1"/>
        <pt x="50" y="800" on="0"/>
        <pt x="70" y="800" on="1"/>
      </contour>
      <contour>
        <pt x="190" y="800" on="0"/>
        <pt x="190" y="780" on="1"/>
        <pt x="190" y="760" on="0"/>
        <pt x="170" y="760" on="1"/>
        <pt x="150" y="760" on="0"/>
        <pt x="150" y="780" on="1"/>
        <pt x="150" y="800" on="0"/>
        <pt x="170" y="800" on="1"/>
      </contour>
      <contour>
        <pt x="110" y="0" on="1"/>
        <pt x="110" y="637" on="1"/>
        <pt x="130" y="637" on="1"/>
        <pt x="130" y="0" on="1"/>
      </contour>
    </TTGlyph>
    <TTGlyph name="Idotaccent" xMin="100" yMin="0" xMax="140" yMax="816">
      <contour>
        <pt x="140" y="816" on="0"/>
        <pt x="140" y="796" on="1"/>
        <pt x="140" y="776" on="0"/>
        <pt x="120" y="776" on="1"/>
        <pt x="100" y="776" on="0"/>
        <pt x="100" y="796" on="1"/>
        <pt x="100" y="816" on="0"/>
        <pt x="120" y="816" on="1"/>
      </contour>
      <contour>
        <pt x="110" y="0" on="1"/>
        <pt x="110" y="637" on="1"/>
        <pt x="130" y="637" on="1"/>
        <pt x="130" y="0" on="1"/>
      </contour>
    </TTGlyph>
    <TTGlyph name="Idotbelow" xMin="95" yMin="-128" xMax="135" yMax="637">
      <contour>
        <pt x="110" y="0" on="1"/>
        <pt x="110" y="637" on="1"/>
        <pt x="130" y="637" on="1"/>
        <pt x="130" y="0" on="1"/>
      </contour>
      <contour>
        <pt x="135" y="-88" on="0"/>
        <pt x="135" y="-108" on="1"/>
        <pt x="135" y="-128" on="0"/>
        <pt x="115" y="-128" on="1"/>
        <pt x="95" y="-128" on="0"/>
        <pt x="95" y="-108" on="1"/>
        <pt x="95" y="-88" on="0"/>
        <pt x="115" y="-88" on="1"/>
      </contour>
    </TTGlyph>
    <TTGlyph name="Igrave" xMin="25" yMin="0" xMax="213" yMax="838">
      <contour>
        <pt x="122" y="788" on="0"/>
        <pt x="213" y="744" on="1"/>
        <pt x="206" y="729" on="1"/>
        <pt x="201" y="726" on="1"/>
        <pt x="94" y="781" on="0"/>
        <pt x="27" y="819" on="1"/>
        <pt x="25" y="824" on="1"/>
        <pt x="32" y="836" on="1"/>
        <pt x="37" y="838" on="1"/>
      </contour>
      <contour>
        <pt x="110" y="0" on="1"/>
        <pt x="110" y="637" on="1"/>
        <pt x="130" y="637" on="1"/>
        <pt x="130" y="0" on="1"/>
      </contour>
    </TTGlyph>
    <TTGlyph name="Ihookabove" xMin="58" yMin="0" xMax="166" yMax="862">
      <component glyphName="I" x="0" y="0" flags="0x1000"/>
      <component glyphName="hookabove" x="-75" y="185" flags="0x1000"/>
    </TTGlyph>
    <TTGlyph name="Imacron" xMin="14" yMin="0" xMax="226" yMax="792">
      <component glyphName="I" x="0" y="0" flags="0x1000"/>
      <component glyphName="macron.i" x="-75" y="185" flags="0x1000"/>
    </TTGlyph>
    <TTGlyph name="Iogonek" xMin="31" yMin="-197" xMax="140" yMax="637">
      <contour>
        <pt x="116" y="-197" on="0"/>
        <pt x="79" y="-197" on="1"/>
        <pt x="57" y="-197" on="0"/>
        <pt x="31" y="-170" on="0"/>
        <pt x="31" y="-151" on="1"/>
        <pt x="31" y="-129" on="0"/>
        <pt x="67" y="-64" on="0"/>
        <pt x="110" y="0" on="1"/>
        <pt x="110" y="637" on="1"/>
        <pt x="130" y="637" on="1"/>
        <pt x="130" y="0" on="1"/>
        <pt x="51" y="-119" on="0"/>
        <pt x="51" y="-150" on="1"/>
        <pt x="51" y="-162" on="0"/>
        <pt x="66" y="-177" on="0"/>
        <pt x="80" y="-177" on="1"/>
        <pt x="108" y="-177" on="0"/>
        <pt x="124" y="-134" on="1"/>
        <pt x="126" y="-134" on="1"/>
        <pt x="140" y="-149" on="1"/>
      </contour>
    </TTGlyph>
    <TTGlyph name="Itilde" xMin="-4" yMin="0" xMax="244" yMax="813">
      <component glyphName="I" x="0" y="0" flags="0x1000"/>
      <component glyphName="tilde.i" x="-75" y="185" flags="0x1000"/>
    </TTGlyph>
    <TTGlyph name="J" xMin="8" yMin="-98" xMax="160" yMax="637">
      <contour>
        <pt x="160" y="115" on="1"/>
        <pt x="160" y="45" on="0"/>
        <pt x="101" y="-52" on="0"/>
        <pt x="31" y="-98" on="1"/>
        <pt x="20" y="-87" on="1"/>
        <pt x="20" y="-81" on="1"/>
        <pt x="84" y="-39" on="0"/>
        <pt x="140" y="51" on="0"/>
        <pt x="140" y="113" on="1"/>
        <pt x="140" y="617" on="1"/>
        <pt x="12" y="617" on="1"/>
        <pt x="8" y="621" on="1"/>
        <pt x="11" y="637" on="1"/>
        <pt x="160" y="637" on="1"/>
      </contour>
    </TTGlyph>
    <TTGlyph name="Jcircumflex" xMin="1" yMin="-98" xMax="215" yMax="828">
      <component glyphName="J" x="0" y="0" flags="0x1000"/>
      <component glyphName="caron.cap" x="303" y="1372" scale="-1.0" flags="0x1000"/>
    </TTGlyph>
    <TTGlyph name="K" xMin="110" yMin="-7" xMax="498" yMax="637">
      <contour>
        <pt x="110" y="0" on="1"/>
        <pt x="110" y="637" on="1"/>
        <pt x="130" y="637" on="1"/>
        <pt x="130" y="0" on="1"/>
      </contour>
      <contour>
        <pt x="332" y="164" on="0"/>
        <pt x="498" y="5" on="1"/>
        <pt x="498" y="1" on="1"/>
        <pt x="495" y="-2" on="0"/>
        <pt x="484" y="-7" on="1"/>
        <pt x="480" y="-6" on="1"/>
        <pt x="297" y="172" on="0"/>
        <pt x="159" y="338" on="1"/>
        <pt x="159" y="341" on="1"/>
        <pt x="408" y="590" on="1"/>
        <pt x="451" y="637" on="1"/>
        <pt x="482" y="637" on="1"/>
        <pt x="186" y="340" on="1"/>
      </contour>
    </TTGlyph>
    <TTGlyph name="Kcommaaccent" xMin="110" yMin="-211" xMax="498" yMax="637">
      <contour>
        <pt x="110" y="0" on="1"/>
        <pt x="110" y="637" on="1"/>
        <pt x="130" y="637" on="1"/>
        <pt x="130" y="0" on="1"/>
      </contour>
      <contour>
        <pt x="332" y="164" on="0"/>
        <pt x="498" y="5" on="1"/>
        <pt x="498" y="1" on="1"/>
        <pt x="495" y="-2" on="0"/>
        <pt x="484" y="-7" on="1"/>
        <pt x="480" y="-6" on="1"/>
        <pt x="297" y="172" on="0"/>
        <pt x="159" y="338" on="1"/>
        <pt x="159" y="341" on="1"/>
        <pt x="408" y="590" on="1"/>
        <pt x="451" y="637" on="1"/>
        <pt x="482" y="637" on="1"/>
        <pt x="186" y="340" on="1"/>
      </contour>
      <contour>
        <pt x="312" y="-87" on="0"/>
        <pt x="312" y="-118" on="1"/>
        <pt x="312" y="-160" on="0"/>
        <pt x="246" y="-211" on="1"/>
        <pt x="236" y="-200" on="1"/>
        <pt x="237" y="-197" on="1"/>
        <pt x="291" y="-157" on="0"/>
        <pt x="291" y="-119" on="1"/>
        <pt x="291" y="-99" on="0"/>
        <pt x="261" y="-85" on="1"/>
        <pt x="261" y="-81" on="1"/>
        <pt x="266" y="-74" on="0"/>
        <pt x="274" y="-70" on="1"/>
      </contour>
    </TTGlyph>
    <TTGlyph name="L" xMin="109" yMin="0" xMax="393" yMax="637">
      <contour>
        <pt x="389" y="0" on="1"/>
        <pt x="109" y="0" on="1"/>
        <pt x="109" y="637" on="1"/>
        <pt x="129" y="637" on="1"/>
        <pt x="129" y="20" on="1"/>
        <pt x="390" y="20" on="1"/>
        <pt x="393" y="16" on="1"/>
      </contour>
    </TTGlyph>
    <TTGlyph name="L.ss01" xMin="-100" yMin="0" xMax="465" yMax="491">
      <contour>
        <pt x="322" y="20" on="1"/>
        <pt x="322" y="110" on="1"/>
        <pt x="342" y="110" on="1"/>
        <pt x="342" y="20" on="1"/>
        <pt x="465" y="20" on="1"/>
        <pt x="465" y="0" on="1"/>
        <pt x="-100" y="0" on="1"/>
        <pt x="-100" y="20" on="1"/>
        <pt x="107" y="20" on="1"/>
        <pt x="107" y="471" on="1"/>
        <pt x="-100" y="471" on="1"/>
        <pt x="-100" y="491" on="1"/>
        <pt x="465" y="491" on="1"/>
        <pt x="465" y="471" on="1"/>
        <pt x="127" y="471" on="1"/>
        <pt x="127" y="20" on="1"/>
      </contour>
    </TTGlyph>
    <TTGlyph name="Lacute" xMin="109" yMin="0" xMax="393" yMax="836">
      <component glyphName="L" x="0" y="0" flags="0x1000"/>
      <component glyphName="acute.cap" x="32" y="185" flags="0x1000"/>
    </TTGlyph>
    <TTGlyph name="Lcaron" xMin="109" yMin="0" xMax="393" yMax="637">
      <contour>
        <pt x="389" y="0" on="1"/>
        <pt x="109" y="0" on="1"/>
        <pt x="109" y="637" on="1"/>
        <pt x="129" y="637" on="1"/>
        <pt x="129" y="20" on="1"/>
        <pt x="390" y="20" on="1"/>
        <pt x="393" y="16" on="1"/>
      </contour>
      <contour>
        <pt x="323" y="433" on="1"/>
        <pt x="335" y="577" on="1"/>
        <pt x="352" y="579" on="1"/>
        <pt x="355" y="575" on="1"/>
        <pt x="343" y="431" on="1"/>
        <pt x="326" y="429" on="1"/>
      </contour>
    </TTGlyph>
    <TTGlyph name="Lcommaaccent" xMin="109" yMin="-211" xMax="393" yMax="637">
      <contour>
        <pt x="389" y="0" on="1"/>
        <pt x="109" y="0" on="1"/>
        <pt x="109" y="637" on="1"/>
        <pt x="129" y="637" on="1"/>
        <pt x="129" y="20" on="1"/>
        <pt x="390" y="20" on="1"/>
        <pt x="393" y="16" on="1"/>
      </contour>
      <contour>
        <pt x="274" y="-87" on="0"/>
        <pt x="274" y="-118" on="1"/>
        <pt x="274" y="-160" on="0"/>
        <pt x="208" y="-211" on="1"/>
        <pt x="198" y="-200" on="1"/>
        <pt x="199" y="-197" on="1"/>
        <pt x="253" y="-157" on="0"/>
        <pt x="253" y="-119" on="1"/>
        <pt x="253" y="-99" on="0"/>
        <pt x="223" y="-85" on="1"/>
        <pt x="223" y="-81" on="1"/>
        <pt x="228" y="-74" on="0"/>
        <pt x="236" y="-70" on="1"/>
      </contour>
    </TTGlyph>
    <TTGlyph name="Ldot" xMin="109" yMin="0" xMax="393" yMax="637">
      <component glyphName="L" x="0" y="0" flags="0x1000"/>
      <component glyphName="period" x="194" y="349" flags="0x1000"/>
    </TTGlyph>
    <TTGlyph name="Lslash" xMin="22" yMin="0" xMax="403" yMax="637">
      <contour>
        <pt x="399" y="0" on="1"/>
        <pt x="119" y="0" on="1"/>
        <pt x="119" y="333" on="1"/>
        <pt x="33" y="286" on="1"/>
        <pt x="28" y="289" on="1"/>
        <pt x="22" y="304" on="1"/>
        <pt x="119" y="357" on="1"/>
        <pt x="119" y="637" on="1"/>
        <pt x="139" y="637" on="1"/>
        <pt x="139" y="367" on="1"/>
        <pt x="299" y="454" on="1"/>
        <pt x="304" y="452" on="1"/>
        <pt x="310" y="437" on="1"/>
        <pt x="139" y="344" on="1"/>
        <pt x="139" y="20" on="1"/>
        <pt x="400" y="20" on="1"/>
        <pt x="403" y="16" on="1"/>
      </contour>
    </TTGlyph>
    <TTGlyph name="M" xMin="76" yMin="0" xMax="705" yMax="637">
      <contour>
        <pt x="684" y="0" on="1"/>
        <pt x="664" y="195" on="1"/>
        <pt x="620" y="589" on="1"/>
        <pt x="615" y="589" on="1"/>
        <pt x="401" y="81" on="1"/>
        <pt x="376" y="81" on="1"/>
        <pt x="166" y="589" on="1"/>
        <pt x="161" y="589" on="1"/>
        <pt x="118" y="195" on="1"/>
        <pt x="97" y="0" on="1"/>
        <pt x="76" y="0" on="1"/>
        <pt x="146" y="637" on="1"/>
        <pt x="169" y="637" on="1"/>
        <pt x="209" y="538" on="1"/>
        <pt x="386" y="110" on="1"/>
        <pt x="390" y="110" on="1"/>
        <pt x="577" y="549" on="1"/>
        <pt x="614" y="637" on="1"/>
        <pt x="637" y="637" on="1"/>
        <pt x="705" y="0" on="1"/>
      </contour>
    </TTGlyph>
    <TTGlyph name="M.ss01" xMin="-100" yMin="0" xMax="778" yMax="491">
      <contour>
        <pt x="588" y="20" on="1"/>
        <pt x="778" y="20" on="1"/>
        <pt x="778" y="0" on="1"/>
        <pt x="-100" y="0" on="1"/>
        <pt x="-100" y="20" on="1"/>
        <pt x="88" y="20" on="1"/>
        <pt x="140" y="471" on="1"/>
        <pt x="-100" y="471" on="1"/>
        <pt x="-100" y="491" on="1"/>
        <pt x="778" y="491" on="1"/>
        <pt x="778" y="471" on="1"/>
        <pt x="538" y="471" on="1"/>
      </contour>
      <contour>
        <pt x="172" y="471" on="1"/>
        <pt x="196" y="415" on="1"/>
        <pt x="335" y="107" on="1"/>
        <pt x="338" y="107" on="1"/>
        <pt x="506" y="471" on="1"/>
      </contour>
      <contour>
        <pt x="520" y="446" on="1"/>
        <pt x="516" y="446" on="1"/>
        <pt x="348" y="79" on="1"/>
        <pt x="325" y="79" on="1"/>
        <pt x="160" y="446" on="1"/>
        <pt x="157" y="446" on="1"/>
        <pt x="123" y="158" on="1"/>
        <pt x="108" y="20" on="1"/>
        <pt x="569" y="20" on="1"/>
        <pt x="554" y="157" on="1"/>
      </contour>
    </TTGlyph>
    <TTGlyph name="N" xMin="110" yMin="0" xMax="560" yMax="638">
      <contour>
        <pt x="558" y="0" on="1"/>
        <pt x="539" y="0" on="1"/>
        <pt x="135" y="595" on="1"/>
        <pt x="131" y="595" on="1"/>
        <pt x="130" y="199" on="1"/>
        <pt x="130" y="0" on="1"/>
        <pt x="110" y="0" on="1"/>
        <pt x="110" y="190" on="1"/>
        <pt x="111" y="637" on="1"/>
        <pt x="130" y="637" on="1"/>
        <pt x="534" y="42" on="1"/>
        <pt x="538" y="42" on="1"/>
        <pt x="540" y="636" on="1"/>
        <pt x="560" y="638" on="1"/>
        <pt x="559" y="176" on="1"/>
      </contour>
    </TTGlyph>
    <TTGlyph name="Nacute" xMin="110" yMin="0" xMax="560" yMax="836">
      <component glyphName="N" x="0" y="0" flags="0x1000"/>
      <component glyphName="acute.cap" x="167" y="185" flags="0x1000"/>
    </TTGlyph>
    <TTGlyph name="Ncaron" xMin="110" yMin="0" xMax="560" yMax="819">
      <component glyphName="N" x="0" y="0" flags="0x1000"/>
      <component glyphName="caron.cap" x="136" y="185" flags="0x1000"/>
    </TTGlyph>
    <TTGlyph name="Ncommaaccent" xMin="110" yMin="-211" xMax="560" yMax="638">
      <contour>
        <pt x="558" y="0" on="1"/>
        <pt x="539" y="0" on="1"/>
        <pt x="135" y="595" on="1"/>
        <pt x="131" y="595" on="1"/>
        <pt x="130" y="199" on="1"/>
        <pt x="130" y="0" on="1"/>
        <pt x="110" y="0" on="1"/>
        <pt x="110" y="190" on="1"/>
        <pt x="111" y="637" on="1"/>
        <pt x="130" y="637" on="1"/>
        <pt x="534" y="42" on="1"/>
        <pt x="538" y="42" on="1"/>
        <pt x="540" y="636" on="1"/>
        <pt x="560" y="638" on="1"/>
        <pt x="559" y="176" on="1"/>
      </contour>
      <contour>
        <pt x="368" y="-87" on="0"/>
        <pt x="368" y="-118" on="1"/>
        <pt x="368" y="-160" on="0"/>
        <pt x="302" y="-211" on="1"/>
        <pt x="292" y="-200" on="1"/>
        <pt x="293" y="-197" on="1"/>
        <pt x="347" y="-157" on="0"/>
        <pt x="347" y="-119" on="1"/>
        <pt x="347" y="-99" on="0"/>
        <pt x="317" y="-85" on="1"/>
        <pt x="317" y="-81" on="1"/>
        <pt x="322" y="-74" on="0"/>
        <pt x="330" y="-70" on="1"/>
      </contour>
    </TTGlyph>
    <TTGlyph name="Ntilde" xMin="110" yMin="0" xMax="560" yMax="816">
      <component glyphName="N" x="0" y="0" flags="0x1000"/>
      <component glyphName="tilde" x="136" y="185" flags="0x1000"/>
    </TTGlyph>
    <TTGlyph name="O" xMin="48" yMin="-5" xMax="579" yMax="642">
      <contour>
        <pt x="444" y="642" on="0"/>
        <pt x="579" y="480" on="0"/>
        <pt x="579" y="329" on="1"/>
        <pt x="579" y="168" on="0"/>
        <pt x="439" y="-5" on="0"/>
        <pt x="308" y="-5" on="1"/>
        <pt x="183" y="-5" on="0"/>
        <pt x="48" y="162" on="0"/>
        <pt x="48" y="317" on="1"/>
        <pt x="48" y="474" on="0"/>
        <pt x="188" y="642" on="0"/>
        <pt x="318" y="642" on="1"/>
      </contour>
      <contour>
        <pt x="197" y="622" on="0"/>
        <pt x="68" y="464" on="0"/>
        <pt x="68" y="317" on="1"/>
        <pt x="68" y="172" on="0"/>
        <pt x="192" y="15" on="0"/>
        <pt x="308" y="15" on="1"/>
        <pt x="429" y="15" on="0"/>
        <pt x="559" y="178" on="0"/>
        <pt x="559" y="329" on="1"/>
        <pt x="559" y="470" on="0"/>
        <pt x="434" y="622" on="0"/>
        <pt x="318" y="622" on="1"/>
      </contour>
    </TTGlyph>
    <TTGlyph name="OE" xMin="48" yMin="-12" xMax="804" yMax="649">
      <contour>
        <pt x="384" y="649" on="0"/>
        <pt x="434" y="643" on="1"/>
        <pt x="484" y="637" on="0"/>
        <pt x="511" y="637" on="1"/>
        <pt x="797" y="637" on="1"/>
        <pt x="800" y="633" on="1"/>
        <pt x="796" y="617" on="1"/>
        <pt x="509" y="617" on="1"/>
        <pt x="509" y="340" on="1"/>
        <pt x="747" y="340" on="1"/>
        <pt x="750" y="336" on="1"/>
        <pt x="746" y="320" on="1"/>
        <pt x="509" y="320" on="1"/>
        <pt x="509" y="20" on="1"/>
        <pt x="801" y="20" on="1"/>
        <pt x="804" y="16" on="1"/>
        <pt x="800" y="0" on="1"/>
        <pt x="511" y="0" on="1"/>
        <pt x="480" y="0" on="0"/>
        <pt x="424" y="-6" on="1"/>
        <pt x="372" y="-12" on="0"/>
        <pt x="348" y="-12" on="1"/>
        <pt x="205" y="-12" on="0"/>
        <pt x="48" y="161" on="0"/>
        <pt x="48" y="317" on="1"/>
        <pt x="48" y="474" on="0"/>
        <pt x="210" y="649" on="0"/>
        <pt x="358" y="649" on="1"/>
      </contour>
      <contour>
        <pt x="220" y="629" on="0"/>
        <pt x="68" y="465" on="0"/>
        <pt x="68" y="316" on="1"/>
        <pt x="68" y="170" on="0"/>
        <pt x="214" y="8" on="0"/>
        <pt x="353" y="8" on="1"/>
        <pt x="398" y="8" on="0"/>
        <pt x="461" y="18" on="1"/>
        <pt x="478" y="21" on="0"/>
        <pt x="489" y="31" on="0"/>
        <pt x="489" y="43" on="1"/>
        <pt x="487" y="586" on="1"/>
        <pt x="487" y="604" on="0"/>
        <pt x="481" y="616" on="0"/>
        <pt x="473" y="618" on="1"/>
        <pt x="411" y="629" on="0"/>
        <pt x="358" y="629" on="1"/>
      </contour>
    </TTGlyph>
    <TTGlyph name="Oacute" xMin="48" yMin="-5" xMax="579" yMax="836">
      <component glyphName="O" x="0" y="0" flags="0x1000"/>
      <component glyphName="acute.cap" x="150" y="185" flags="0x1000"/>
    </TTGlyph>
    <TTGlyph name="Obreve" xMin="48" yMin="-5" xMax="579" yMax="813">
      <component glyphName="O" x="0" y="0" flags="0x1000"/>
      <component glyphName="breve.cap" x="119" y="185" flags="0x1000"/>
    </TTGlyph>
    <TTGlyph name="Ocaron" xMin="48" yMin="-5" xMax="579" yMax="819">
      <component glyphName="O" x="0" y="0" flags="0x1000"/>
      <component glyphName="caron.cap" x="119" y="185" flags="0x1000"/>
    </TTGlyph>
    <TTGlyph name="Ocircumflex" xMin="48" yMin="-5" xMax="579" yMax="828">
      <component glyphName="O" x="0" y="0" flags="0x1000"/>
      <component glyphName="caron.cap" x="509" y="1372" scale="-1.0" flags="0x1000"/>
    </TTGlyph>
    <TTGlyph name="Ocircumflexacute" xMin="48" yMin="-5" xMax="579" yMax="895">
      <component glyphName="O" x="0" y="0" flags="0x1000"/>
      <component glyphName="circumflexacute" x="119" y="185" flags="0x1000"/>
    </TTGlyph>
    <TTGlyph name="Ocircumflexdotbelow" xMin="48" yMin="-128" xMax="579" yMax="818">
      <contour>
        <pt x="269" y="775" on="0"/>
        <pt x="320" y="818" on="1"/>
        <pt x="336" y="818" on="1"/>
        <pt x="402" y="766" on="0"/>
        <pt x="436" y="742" on="1"/>
        <pt x="429" y="728" on="1"/>
        <pt x="424" y="728" on="1"/>
        <pt x="378" y="760" on="0"/>
        <pt x="329" y="798" on="1"/>
        <pt x="280" y="760" on="0"/>
        <pt x="234" y="728" on="1"/>
        <pt x="229" y="728" on="1"/>
        <pt x="222" y="742" on="1"/>
      </contour>
      <contour>
        <pt x="444" y="642" on="0"/>
        <pt x="579" y="480" on="0"/>
        <pt x="579" y="329" on="1"/>
        <pt x="579" y="168" on="0"/>
        <pt x="439" y="-5" on="0"/>
        <pt x="308" y="-5" on="1"/>
        <pt x="183" y="-5" on="0"/>
        <pt x="48" y="162" on="0"/>
        <pt x="48" y="317" on="1"/>
        <pt x="48" y="474" on="0"/>
        <pt x="188" y="642" on="0"/>
        <pt x="318" y="642" on="1"/>
      </contour>
      <contour>
        <pt x="197" y="622" on="0"/>
        <pt x="68" y="464" on="0"/>
        <pt x="68" y="317" on="1"/>
        <pt x="68" y="172" on="0"/>
        <pt x="192" y="15" on="0"/>
        <pt x="308" y="15" on="1"/>
        <pt x="429" y="15" on="0"/>
        <pt x="559" y="178" on="0"/>
        <pt x="559" y="329" on="1"/>
        <pt x="559" y="470" on="0"/>
        <pt x="434" y="622" on="0"/>
        <pt x="318" y="622" on="1"/>
      </contour>
      <contour>
        <pt x="330" y="-88" on="0"/>
        <pt x="330" y="-108" on="1"/>
        <pt x="330" y="-128" on="0"/>
        <pt x="310" y="-128" on="1"/>
        <pt x="290" y="-128" on="0"/>
        <pt x="290" y="-108" on="1"/>
        <pt x="290" y="-88" on="0"/>
        <pt x="310" y="-88" on="1"/>
      </contour>
    </TTGlyph>
    <TTGlyph name="Ocircumflexgrave" xMin="48" yMin="-5" xMax="579" yMax="895">
      <component glyphName="O" x="0" y="0" flags="0x1000"/>
      <component glyphName="circumflexgrave" x="119" y="185" flags="0x1000"/>
    </TTGlyph>
    <TTGlyph name="Ocircumflexhookabove" xMin="48" yMin="-5" xMax="579" yMax="909">
      <component glyphName="O" x="0" y="0" flags="0x1000"/>
      <component glyphName="hookabove" x="203" y="264" scale="0.951965332031" flags="0x1000"/>
      <component glyphName="circumflex.cap" x="119" y="165" flags="0x1000"/>
    </TTGlyph>
    <TTGlyph name="Ocircumflextilde" xMin="48" yMin="-5" xMax="579" yMax="906">
      <component glyphName="O" x="0" y="0" flags="0x1000"/>
      <component glyphName="tilde" x="126" y="275" scalex="0.951965332031" scaley="1.0" flags="0x1000"/>
      <component glyphName="circumflex.cap" x="119" y="165" flags="0x1000"/>
    </TTGlyph>
    <TTGlyph name="Odieresis" xMin="48" yMin="-5" xMax="579" yMax="800">
      <component glyphName="O" x="0" y="0" flags="0x1000"/>
      <component glyphName="period" x="269" y="762" flags="0x1000"/>
      <component glyphName="dotaccent" x="129" y="169" flags="0x1000"/>
    </TTGlyph>
    <TTGlyph name="Odotbelow" xMin="48" yMin="-128" xMax="579" yMax="642">
      <contour>
        <pt x="444" y="642" on="0"/>
        <pt x="579" y="480" on="0"/>
        <pt x="579" y="329" on="1"/>
        <pt x="579" y="168" on="0"/>
        <pt x="439" y="-5" on="0"/>
        <pt x="308" y="-5" on="1"/>
        <pt x="183" y="-5" on="0"/>
        <pt x="48" y="162" on="0"/>
        <pt x="48" y="317" on="1"/>
        <pt x="48" y="474" on="0"/>
        <pt x="188" y="642" on="0"/>
        <pt x="318" y="642" on="1"/>
      </contour>
      <contour>
        <pt x="197" y="622" on="0"/>
        <pt x="68" y="464" on="0"/>
        <pt x="68" y="317" on="1"/>
        <pt x="68" y="172" on="0"/>
        <pt x="192" y="15" on="0"/>
        <pt x="308" y="15" on="1"/>
        <pt x="429" y="15" on="0"/>
        <pt x="559" y="178" on="0"/>
        <pt x="559" y="329" on="1"/>
        <pt x="559" y="470" on="0"/>
        <pt x="434" y="622" on="0"/>
        <pt x="318" y="622" on="1"/>
      </contour>
      <contour>
        <pt x="330" y="-88" on="0"/>
        <pt x="330" y="-108" on="1"/>
        <pt x="330" y="-128" on="0"/>
        <pt x="310" y="-128" on="1"/>
        <pt x="290" y="-128" on="0"/>
        <pt x="290" y="-108" on="1"/>
        <pt x="290" y="-88" on="0"/>
        <pt x="310" y="-88" on="1"/>
      </contour>
    </TTGlyph>
    <TTGlyph name="Ograve" xMin="48" yMin="-5" xMax="579" yMax="838">
      <component glyphName="O" x="0" y="0" flags="0x1000"/>
      <component glyphName="acute.cap" x="509" y="187" scalex="-1.0" scaley="1.0" flags="0x1000"/>
    </TTGlyph>
    <TTGlyph name="Ohm" xMin="51" yMin="-1" xMax="682" yMax="642">
      <component glyphName="Omega" x="0" y="0" flags="0x1000"/>
    </TTGlyph>
    <TTGlyph name="Ohookabove" xMin="48" yMin="-5" xMax="579" yMax="862">
      <component glyphName="O" x="0" y="0" flags="0x1000"/>
      <component glyphName="hookabove" x="119" y="185" flags="0x1000"/>
    </TTGlyph>
    <TTGlyph name="Ohorn" xMin="48" yMin="-5" xMax="598" yMax="753">
      <contour>
        <pt x="565" y="753" on="0"/>
        <pt x="584" y="732" on="0"/>
        <pt x="598" y="696" on="0"/>
        <pt x="598" y="675" on="1"/>
        <pt x="598" y="631" on="0"/>
        <pt x="533" y="585" on="0"/>
        <pt x="482" y="587" on="1"/>
        <pt x="579" y="506" on="0"/>
        <pt x="579" y="325" on="1"/>
        <pt x="579" y="168" on="0"/>
        <pt x="438" y="-5" on="0"/>
        <pt x="309" y="-5" on="1"/>
        <pt x="183" y="-5" on="0"/>
        <pt x="48" y="162" on="0"/>
        <pt x="48" y="317" on="1"/>
        <pt x="48" y="474" on="0"/>
        <pt x="188" y="642" on="0"/>
        <pt x="321" y="642" on="1"/>
        <pt x="375" y="642" on="0"/>
        <pt x="437" y="619" on="1"/>
        <pt x="470" y="605" on="0"/>
        <pt x="494" y="605" on="1"/>
        <pt x="528" y="605" on="0"/>
        <pt x="578" y="640" on="0"/>
        <pt x="578" y="671" on="1"/>
        <pt x="578" y="707" on="0"/>
        <pt x="544" y="743" on="1"/>
        <pt x="546" y="748" on="1"/>
        <pt x="554" y="753" on="0"/>
        <pt x="559" y="753" on="1"/>
      </contour>
      <contour>
        <pt x="197" y="622" on="0"/>
        <pt x="68" y="464" on="0"/>
        <pt x="68" y="316" on="1"/>
        <pt x="68" y="171" on="0"/>
        <pt x="193" y="15" on="0"/>
        <pt x="309" y="15" on="1"/>
        <pt x="429" y="15" on="0"/>
        <pt x="559" y="178" on="0"/>
        <pt x="559" y="326" on="1"/>
        <pt x="559" y="470" on="0"/>
        <pt x="434" y="622" on="0"/>
        <pt x="317" y="622" on="1"/>
      </contour>
    </TTGlyph>
    <TTGlyph name="Ohornacute" xMin="48" yMin="-5" xMax="598" yMax="836">
      <component glyphName="Ohorn" x="0" y="0" flags="0x1000"/>
      <component glyphName="acute.cap" x="150" y="185" flags="0x1000"/>
    </TTGlyph>
    <TTGlyph name="Ohorndotbelow" xMin="48" yMin="-128" xMax="598" yMax="753">
      <contour>
        <pt x="565" y="753" on="0"/>
        <pt x="584" y="732" on="0"/>
        <pt x="598" y="696" on="0"/>
        <pt x="598" y="675" on="1"/>
        <pt x="598" y="631" on="0"/>
        <pt x="533" y="585" on="0"/>
        <pt x="482" y="587" on="1"/>
        <pt x="579" y="506" on="0"/>
        <pt x="579" y="325" on="1"/>
        <pt x="579" y="168" on="0"/>
        <pt x="438" y="-5" on="0"/>
        <pt x="309" y="-5" on="1"/>
        <pt x="183" y="-5" on="0"/>
        <pt x="48" y="162" on="0"/>
        <pt x="48" y="317" on="1"/>
        <pt x="48" y="474" on="0"/>
        <pt x="188" y="642" on="0"/>
        <pt x="321" y="642" on="1"/>
        <pt x="375" y="642" on="0"/>
        <pt x="437" y="619" on="1"/>
        <pt x="470" y="605" on="0"/>
        <pt x="494" y="605" on="1"/>
        <pt x="528" y="605" on="0"/>
        <pt x="578" y="640" on="0"/>
        <pt x="578" y="671" on="1"/>
        <pt x="578" y="707" on="0"/>
        <pt x="544" y="743" on="1"/>
        <pt x="546" y="748" on="1"/>
        <pt x="554" y="753" on="0"/>
        <pt x="559" y="753" on="1"/>
      </contour>
      <contour>
        <pt x="197" y="622" on="0"/>
        <pt x="68" y="464" on="0"/>
        <pt x="68" y="316" on="1"/>
        <pt x="68" y="171" on="0"/>
        <pt x="193" y="15" on="0"/>
        <pt x="309" y="15" on="1"/>
        <pt x="429" y="15" on="0"/>
        <pt x="559" y="178" on="0"/>
        <pt x="559" y="326" on="1"/>
        <pt x="559" y="470" on="0"/>
        <pt x="434" y="622" on="0"/>
        <pt x="317" y="622" on="1"/>
      </contour>
      <contour>
        <pt x="330" y="-88" on="0"/>
        <pt x="330" y="-108" on="1"/>
        <pt x="330" y="-128" on="0"/>
        <pt x="310" y="-128" on="1"/>
        <pt x="290" y="-128" on="0"/>
        <pt x="290" y="-108" on="1"/>
        <pt x="290" y="-88" on="0"/>
        <pt x="310" y="-88" on="1"/>
      </contour>
    </TTGlyph>
    <TTGlyph name="Ohorngrave" xMin="48" yMin="-5" xMax="598" yMax="838">
      <component glyphName="Ohorn" x="0" y="0" flags="0x1000"/>
      <component glyphName="acute.cap" x="509" y="187" scalex="-1.0" scaley="1.0" flags="0x1000"/>
    </TTGlyph>
    <TTGlyph name="Ohornhookabove" xMin="48" yMin="-5" xMax="598" yMax="862">
      <component glyphName="Ohorn" x="0" y="0" flags="0x1000"/>
      <component glyphName="hookabove" x="119" y="185" flags="0x1000"/>
    </TTGlyph>
    <TTGlyph name="Ohorntilde" xMin="48" yMin="-5" xMax="598" yMax="816">
      <component glyphName="Ohorn" x="0" y="0" flags="0x1000"/>
      <component glyphName="tilde" x="119" y="185" flags="0x1000"/>
    </TTGlyph>
    <TTGlyph name="Ohungarumlaut" xMin="48" yMin="-5" xMax="579" yMax="841">
      <component glyphName="O" x="0" y="0" flags="0x1000"/>
      <component glyphName="hungarumlaut.cap" x="146" y="185" flags="0x1000"/>
    </TTGlyph>
    <TTGlyph name="Omacron" xMin="48" yMin="-5" xMax="579" yMax="792">
      <component glyphName="O" x="0" y="0" flags="0x1000"/>
      <component glyphName="macron" x="119" y="185" flags="0x1000"/>
    </TTGlyph>
    <TTGlyph name="Omega" xMin="51" yMin="-1" xMax="682" yMax="642">
      <contour>
        <pt x="496" y="642" on="0"/>
        <pt x="632" y="489" on="0"/>
        <pt x="632" y="347" on="1"/>
        <pt x="632" y="243" on="0"/>
        <pt x="551" y="75" on="0"/>
        <pt x="475" y="23" on="1"/>
        <pt x="475" y="20" on="1"/>
        <pt x="601" y="20" on="1"/>
        <pt x="679" y="21" on="1"/>
        <pt x="682" y="17" on="1"/>
        <pt x="678" y="-1" on="1"/>
        <pt x="596" y="0" on="1"/>
        <pt x="474" y="0" on="1"/>
        <pt x="434" y="-1" on="1"/>
        <pt x="432" y="1" on="1"/>
        <pt x="432" y="17" on="1"/>
        <pt x="519" y="69" on="0"/>
        <pt x="612" y="240" on="0"/>
        <pt x="612" y="347" on="1"/>
        <pt x="612" y="480" on="0"/>
        <pt x="486" y="622" on="0"/>
        <pt x="369" y="622" on="1"/>
        <pt x="250" y="622" on="0"/>
        <pt x="121" y="478" on="0"/>
        <pt x="121" y="345" on="1"/>
        <pt x="121" y="238" on="0"/>
        <pt x="214" y="68" on="0"/>
        <pt x="301" y="17" on="1"/>
        <pt x="301" y="1" on="1"/>
        <pt x="299" y="-1" on="1"/>
        <pt x="259" y="0" on="1"/>
        <pt x="132" y="0" on="1"/>
        <pt x="54" y="-1" on="1"/>
        <pt x="51" y="3" on="1"/>
        <pt x="55" y="21" on="1"/>
        <pt x="137" y="20" on="1"/>
        <pt x="258" y="20" on="1"/>
        <pt x="258" y="23" on="1"/>
        <pt x="182" y="75" on="0"/>
        <pt x="101" y="241" on="0"/>
        <pt x="101" y="345" on="1"/>
        <pt x="101" y="488" on="0"/>
        <pt x="240" y="642" on="0"/>
        <pt x="369" y="642" on="1"/>
      </contour>
    </TTGlyph>
    <TTGlyph name="Oogonek" xMin="48" yMin="-197" xMax="579" yMax="642">
      <contour>
        <pt x="326" y="-107" on="0"/>
        <pt x="326" y="-132" on="1"/>
        <pt x="326" y="-152" on="0"/>
        <pt x="350" y="-177" on="0"/>
        <pt x="371" y="-177" on="1"/>
        <pt x="413" y="-177" on="0"/>
        <pt x="452" y="-124" on="1"/>
        <pt x="454" y="-124" on="1"/>
        <pt x="465" y="-140" on="1"/>
        <pt x="421" y="-197" on="0"/>
        <pt x="371" y="-197" on="1"/>
        <pt x="342" y="-197" on="0"/>
        <pt x="306" y="-162" on="0"/>
        <pt x="306" y="-132" on="1"/>
        <pt x="306" y="-101" on="0"/>
        <pt x="326" y="-72" on="1"/>
        <pt x="376" y="2" on="1"/>
        <pt x="347" y="-5" on="0"/>
        <pt x="308" y="-5" on="1"/>
        <pt x="183" y="-5" on="0"/>
        <pt x="48" y="162" on="0"/>
        <pt x="48" y="317" on="1"/>
        <pt x="48" y="474" on="0"/>
        <pt x="188" y="642" on="0"/>
        <pt x="318" y="642" on="1"/>
        <pt x="444" y="642" on="0"/>
        <pt x="579" y="480" on="0"/>
        <pt x="579" y="329" on="1"/>
        <pt x="579" y="201" on="0"/>
        <pt x="490" y="39" on="0"/>
        <pt x="405" y="10" on="1"/>
        <pt x="346" y="-78" on="1"/>
      </contour>
      <contour>
        <pt x="68" y="172" on="0"/>
        <pt x="192" y="15" on="0"/>
        <pt x="308" y="15" on="1"/>
        <pt x="429" y="15" on="0"/>
        <pt x="559" y="178" on="0"/>
        <pt x="559" y="329" on="1"/>
        <pt x="559" y="470" on="0"/>
        <pt x="434" y="622" on="0"/>
        <pt x="318" y="622" on="1"/>
        <pt x="197" y="622" on="0"/>
        <pt x="68" y="464" on="0"/>
        <pt x="68" y="317" on="1"/>
      </contour>
    </TTGlyph>
    <TTGlyph name="Oslash" xMin="48" yMin="-87" xMax="579" yMax="709">
      <contour>
        <pt x="579" y="538" on="0"/>
        <pt x="579" y="329" on="1"/>
        <pt x="579" y="168" on="0"/>
        <pt x="439" y="-5" on="0"/>
        <pt x="308" y="-5" on="1"/>
        <pt x="236" y="-5" on="0"/>
        <pt x="182" y="23" on="1"/>
        <pt x="131" y="-87" on="1"/>
        <pt x="115" y="-84" on="1"/>
        <pt x="113" y="-80" on="1"/>
        <pt x="165" y="33" on="1"/>
        <pt x="48" y="110" on="0"/>
        <pt x="48" y="317" on="1"/>
        <pt x="48" y="474" on="0"/>
        <pt x="188" y="642" on="0"/>
        <pt x="318" y="642" on="1"/>
        <pt x="384" y="642" on="0"/>
        <pt x="435" y="619" on="1"/>
        <pt x="477" y="709" on="1"/>
        <pt x="493" y="706" on="1"/>
        <pt x="495" y="701" on="1"/>
        <pt x="453" y="610" on="1"/>
      </contour>
      <contour>
        <pt x="68" y="124" on="0"/>
        <pt x="174" y="52" on="1"/>
        <pt x="427" y="600" on="1"/>
        <pt x="382" y="622" on="0"/>
        <pt x="318" y="622" on="1"/>
        <pt x="197" y="622" on="0"/>
        <pt x="68" y="464" on="0"/>
        <pt x="68" y="317" on="1"/>
      </contour>
      <contour>
        <pt x="429" y="15" on="0"/>
        <pt x="559" y="178" on="0"/>
        <pt x="559" y="329" on="1"/>
        <pt x="559" y="524" on="0"/>
        <pt x="444" y="591" on="1"/>
        <pt x="191" y="42" on="1"/>
        <pt x="241" y="15" on="0"/>
        <pt x="308" y="15" on="1"/>
      </contour>
    </TTGlyph>
    <TTGlyph name="Oslashacute" xMin="48" yMin="-87" xMax="579" yMax="836">
      <component glyphName="Oslash" x="0" y="0" flags="0x1000"/>
      <component glyphName="acute.cap" x="148" y="185" flags="0x1000"/>
    </TTGlyph>
    <TTGlyph name="Otilde" xMin="48" yMin="-5" xMax="579" yMax="816">
      <component glyphName="O" x="0" y="0" flags="0x1000"/>
      <component glyphName="tilde" x="119" y="185" flags="0x1000"/>
    </TTGlyph>
    <TTGlyph name="P" xMin="110" yMin="0" xMax="432" yMax="639">
      <contour>
        <pt x="338" y="639" on="0"/>
        <pt x="432" y="546" on="0"/>
        <pt x="432" y="460" on="1"/>
        <pt x="432" y="358" on="0"/>
        <pt x="322" y="249" on="0"/>
        <pt x="219" y="249" on="1"/>
        <pt x="130" y="249" on="1"/>
        <pt x="130" y="0" on="1"/>
        <pt x="110" y="0" on="1"/>
        <pt x="110" y="637" on="1"/>
        <pt x="251" y="639" on="1"/>
      </contour>
      <contour>
        <pt x="327" y="276" on="0"/>
        <pt x="412" y="377" on="0"/>
        <pt x="412" y="460" on="1"/>
        <pt x="412" y="534" on="0"/>
        <pt x="332" y="616" on="0"/>
        <pt x="258" y="619" on="1"/>
        <pt x="130" y="618" on="1"/>
        <pt x="130" y="269" on="1"/>
        <pt x="249" y="269" on="1"/>
      </contour>
    </TTGlyph>
    <TTGlyph name="Q" xMin="48" yMin="-182" xMax="729" yMax="642">
      <contour>
        <pt x="439" y="-67" on="0"/>
        <pt x="628" y="-152" on="0"/>
        <pt x="729" y="-164" on="1"/>
        <pt x="729" y="-170" on="1"/>
        <pt x="721" y="-182" on="1"/>
        <pt x="716" y="-182" on="1"/>
        <pt x="614" y="-169" on="0"/>
        <pt x="417" y="-77" on="0"/>
        <pt x="336" y="-4" on="1"/>
        <pt x="327" y="-5" on="0"/>
        <pt x="308" y="-5" on="1"/>
        <pt x="183" y="-5" on="0"/>
        <pt x="48" y="162" on="0"/>
        <pt x="48" y="317" on="1"/>
        <pt x="48" y="474" on="0"/>
        <pt x="188" y="642" on="0"/>
        <pt x="318" y="642" on="1"/>
        <pt x="444" y="642" on="0"/>
        <pt x="579" y="480" on="0"/>
        <pt x="579" y="329" on="1"/>
        <pt x="579" y="185" on="0"/>
        <pt x="467" y="16" on="0"/>
        <pt x="362" y="-1" on="1"/>
      </contour>
      <contour>
        <pt x="68" y="172" on="0"/>
        <pt x="192" y="15" on="0"/>
        <pt x="308" y="15" on="1"/>
        <pt x="429" y="15" on="0"/>
        <pt x="559" y="178" on="0"/>
        <pt x="559" y="329" on="1"/>
        <pt x="559" y="470" on="0"/>
        <pt x="434" y="622" on="0"/>
        <pt x="318" y="622" on="1"/>
        <pt x="197" y="622" on="0"/>
        <pt x="68" y="464" on="0"/>
        <pt x="68" y="317" on="1"/>
      </contour>
    </TTGlyph>
    <TTGlyph name="R" xMin="110" yMin="-7" xMax="466" yMax="639">
      <contour>
        <pt x="363" y="139" on="0"/>
        <pt x="466" y="5" on="1"/>
        <pt x="466" y="1" on="1"/>
        <pt x="461" y="-4" on="0"/>
        <pt x="454" y="-7" on="1"/>
        <pt x="448" y="-5" on="1"/>
        <pt x="341" y="135" on="0"/>
        <pt x="264" y="263" on="1"/>
        <pt x="130" y="263" on="1"/>
        <pt x="130" y="0" on="1"/>
        <pt x="110" y="0" on="1"/>
        <pt x="110" y="637" on="1"/>
        <pt x="251" y="639" on="1"/>
        <pt x="338" y="639" on="0"/>
        <pt x="432" y="549" on="0"/>
        <pt x="432" y="464" on="1"/>
        <pt x="432" y="390" on="0"/>
        <pt x="356" y="289" on="0"/>
        <pt x="285" y="267" on="1"/>
      </contour>
      <contour>
        <pt x="272" y="283" on="1"/>
        <pt x="339" y="300" on="0"/>
        <pt x="412" y="394" on="0"/>
        <pt x="412" y="464" on="1"/>
        <pt x="412" y="536" on="0"/>
        <pt x="332" y="616" on="0"/>
        <pt x="258" y="619" on="1"/>
        <pt x="130" y="618" on="1"/>
        <pt x="130" y="283" on="1"/>
      </contour>
    </TTGlyph>
    <TTGlyph name="Racute" xMin="110" yMin="-7" xMax="466" yMax="854">
      <component glyphName="R" x="0" y="0" flags="0x1000"/>
      <component glyphName="acute" x="95" y="185" flags="0x1000"/>
    </TTGlyph>
    <TTGlyph name="Rcaron" xMin="110" yMin="-7" xMax="466" yMax="843">
      <component glyphName="R" x="0" y="0" flags="0x1000"/>
      <component glyphName="caron" x="64" y="185" flags="0x1000"/>
    </TTGlyph>
    <TTGlyph name="Rcommaaccent" xMin="110" yMin="-211" xMax="466" yMax="639">
      <contour>
        <pt x="363" y="139" on="0"/>
        <pt x="466" y="5" on="1"/>
        <pt x="466" y="1" on="1"/>
        <pt x="461" y="-4" on="0"/>
        <pt x="454" y="-7" on="1"/>
        <pt x="448" y="-5" on="1"/>
        <pt x="341" y="135" on="0"/>
        <pt x="264" y="263" on="1"/>
        <pt x="130" y="263" on="1"/>
        <pt x="130" y="0" on="1"/>
        <pt x="110" y="0" on="1"/>
        <pt x="110" y="637" on="1"/>
        <pt x="251" y="639" on="1"/>
        <pt x="338" y="639" on="0"/>
        <pt x="432" y="549" on="0"/>
        <pt x="432" y="464" on="1"/>
        <pt x="432" y="390" on="0"/>
        <pt x="356" y="289" on="0"/>
        <pt x="285" y="267" on="1"/>
      </contour>
      <contour>
        <pt x="272" y="283" on="1"/>
        <pt x="339" y="300" on="0"/>
        <pt x="412" y="394" on="0"/>
        <pt x="412" y="464" on="1"/>
        <pt x="412" y="536" on="0"/>
        <pt x="332" y="616" on="0"/>
        <pt x="258" y="619" on="1"/>
        <pt x="130" y="618" on="1"/>
        <pt x="130" y="283" on="1"/>
      </contour>
      <contour>
        <pt x="297" y="-87" on="0"/>
        <pt x="297" y="-118" on="1"/>
        <pt x="297" y="-160" on="0"/>
        <pt x="231" y="-211" on="1"/>
        <pt x="221" y="-200" on="1"/>
        <pt x="222" y="-197" on="1"/>
        <pt x="276" y="-157" on="0"/>
        <pt x="276" y="-119" on="1"/>
        <pt x="276" y="-99" on="0"/>
        <pt x="246" y="-85" on="1"/>
        <pt x="246" y="-81" on="1"/>
        <pt x="251" y="-74" on="0"/>
        <pt x="259" y="-70" on="1"/>
      </contour>
    </TTGlyph>
    <TTGlyph name="S" xMin="52" yMin="-4" xMax="390" yMax="640">
      <contour>
        <pt x="306" y="640" on="0"/>
        <pt x="368" y="611" on="1"/>
        <pt x="364" y="593" on="1"/>
        <pt x="357" y="592" on="1"/>
        <pt x="302" y="620" on="0"/>
        <pt x="244" y="620" on="1"/>
        <pt x="196" y="620" on="0"/>
        <pt x="124" y="579" on="0"/>
        <pt x="86" y="514" on="0"/>
        <pt x="86" y="480" on="1"/>
        <pt x="86" y="445" on="0"/>
        <pt x="124" y="394" on="0"/>
        <pt x="179" y="361" on="0"/>
        <pt x="228" y="337" on="1"/>
        <pt x="282" y="310" on="0"/>
        <pt x="345" y="270" on="0"/>
        <pt x="390" y="207" on="0"/>
        <pt x="390" y="162" on="1"/>
        <pt x="390" y="118" on="0"/>
        <pt x="342" y="41" on="0"/>
        <pt x="257" y="-4" on="0"/>
        <pt x="204" y="-4" on="1"/>
        <pt x="165" y="-4" on="0"/>
        <pt x="83" y="20" on="0"/>
        <pt x="52" y="43" on="1"/>
        <pt x="53" y="62" on="1"/>
        <pt x="58" y="64" on="1"/>
        <pt x="88" y="40" on="0"/>
        <pt x="166" y="16" on="0"/>
        <pt x="203" y="16" on="1"/>
        <pt x="252" y="16" on="0"/>
        <pt x="329" y="58" on="0"/>
        <pt x="370" y="125" on="0"/>
        <pt x="370" y="162" on="1"/>
        <pt x="370" y="200" on="0"/>
        <pt x="330" y="254" on="0"/>
        <pt x="273" y="290" on="0"/>
        <pt x="223" y="314" on="1"/>
        <pt x="170" y="340" on="0"/>
        <pt x="109" y="379" on="0"/>
        <pt x="66" y="440" on="0"/>
        <pt x="66" y="483" on="1"/>
        <pt x="66" y="526" on="0"/>
        <pt x="112" y="598" on="0"/>
        <pt x="194" y="640" on="0"/>
        <pt x="246" y="640" on="1"/>
      </contour>
    </TTGlyph>
    <TTGlyph name="Sacute" xMin="52" yMin="-4" xMax="390" yMax="854">
      <component glyphName="S" x="0" y="0" flags="0x1000"/>
      <component glyphName="acute" x="69" y="185" flags="0x1000"/>
    </TTGlyph>
    <TTGlyph name="Scaron" xMin="52" yMin="-4" xMax="390" yMax="843">
      <component glyphName="S" x="0" y="0" flags="0x1000"/>
      <component glyphName="caron" x="38" y="185" flags="0x1000"/>
    </TTGlyph>
    <TTGlyph name="Scedilla" xMin="52" yMin="-178" xMax="390" yMax="640">
      <contour>
        <pt x="390" y="121" on="0"/>
        <pt x="349" y="50" on="0"/>
        <pt x="277" y="2" on="0"/>
        <pt x="230" y="-3" on="1"/>
        <pt x="213" y="-55" on="1"/>
        <pt x="244" y="-75" on="1"/>
        <pt x="277" y="-96" on="0"/>
        <pt x="277" y="-125" on="1"/>
        <pt x="277" y="-149" on="0"/>
        <pt x="242" y="-178" on="0"/>
        <pt x="217" y="-178" on="1"/>
        <pt x="180" y="-178" on="0"/>
        <pt x="158" y="-145" on="1"/>
        <pt x="164" y="-127" on="1"/>
        <pt x="168" y="-127" on="1"/>
        <pt x="178" y="-143" on="0"/>
        <pt x="200" y="-158" on="0"/>
        <pt x="217" y="-158" on="1"/>
        <pt x="235" y="-158" on="0"/>
        <pt x="257" y="-141" on="0"/>
        <pt x="257" y="-125" on="1"/>
        <pt x="257" y="-114" on="0"/>
        <pt x="246" y="-101" on="0"/>
        <pt x="233" y="-92" on="1"/>
        <pt x="189" y="-64" on="1"/>
        <pt x="209" y="-4" on="1"/>
        <pt x="204" y="-4" on="1"/>
        <pt x="165" y="-4" on="0"/>
        <pt x="83" y="20" on="0"/>
        <pt x="52" y="43" on="1"/>
        <pt x="53" y="62" on="1"/>
        <pt x="58" y="64" on="1"/>
        <pt x="88" y="40" on="0"/>
        <pt x="166" y="16" on="0"/>
        <pt x="203" y="16" on="1"/>
        <pt x="252" y="16" on="0"/>
        <pt x="329" y="58" on="0"/>
        <pt x="370" y="125" on="0"/>
        <pt x="370" y="162" on="1"/>
        <pt x="370" y="200" on="0"/>
        <pt x="330" y="254" on="0"/>
        <pt x="273" y="290" on="0"/>
        <pt x="223" y="314" on="1"/>
        <pt x="170" y="340" on="0"/>
        <pt x="109" y="379" on="0"/>
        <pt x="66" y="440" on="0"/>
        <pt x="66" y="483" on="1"/>
        <pt x="66" y="526" on="0"/>
        <pt x="112" y="598" on="0"/>
        <pt x="194" y="640" on="0"/>
        <pt x="246" y="640" on="1"/>
        <pt x="306" y="640" on="0"/>
        <pt x="368" y="611" on="1"/>
        <pt x="364" y="593" on="1"/>
        <pt x="357" y="592" on="1"/>
        <pt x="302" y="620" on="0"/>
        <pt x="244" y="620" on="1"/>
        <pt x="196" y="620" on="0"/>
        <pt x="124" y="579" on="0"/>
        <pt x="86" y="514" on="0"/>
        <pt x="86" y="480" on="1"/>
        <pt x="86" y="445" on="0"/>
        <pt x="124" y="394" on="0"/>
        <pt x="179" y="361" on="0"/>
        <pt x="228" y="337" on="1"/>
        <pt x="282" y="310" on="0"/>
        <pt x="345" y="270" on="0"/>
        <pt x="390" y="207" on="0"/>
        <pt x="390" y="162" on="1"/>
      </contour>
    </TTGlyph>
    <TTGlyph name="Scircumflex" xMin="52" yMin="-4" xMax="390" yMax="843">
      <contour>
        <pt x="161" y="760" on="0"/>
        <pt x="224" y="843" on="1"/>
        <pt x="242" y="843" on="1"/>
        <pt x="305" y="760" on="0"/>
        <pt x="343" y="717" on="1"/>
        <pt x="334" y="705" on="1"/>
        <pt x="329" y="705" on="1"/>
        <pt x="281" y="758" on="0"/>
        <pt x="233" y="822" on="1"/>
        <pt x="185" y="758" on="0"/>
        <pt x="137" y="705" on="1"/>
        <pt x="132" y="705" on="1"/>
        <pt x="123" y="717" on="1"/>
      </contour>
      <contour>
        <pt x="306" y="640" on="0"/>
        <pt x="368" y="611" on="1"/>
        <pt x="364" y="593" on="1"/>
        <pt x="357" y="592" on="1"/>
        <pt x="302" y="620" on="0"/>
        <pt x="244" y="620" on="1"/>
        <pt x="196" y="620" on="0"/>
        <pt x="124" y="579" on="0"/>
        <pt x="86" y="514" on="0"/>
        <pt x="86" y="480" on="1"/>
        <pt x="86" y="445" on="0"/>
        <pt x="124" y="394" on="0"/>
        <pt x="179" y="361" on="0"/>
        <pt x="228" y="337" on="1"/>
        <pt x="282" y="310" on="0"/>
        <pt x="345" y="270" on="0"/>
        <pt x="390" y="207" on="0"/>
        <pt x="390" y="162" on="1"/>
        <pt x="390" y="118" on="0"/>
        <pt x="342" y="41" on="0"/>
        <pt x="257" y="-4" on="0"/>
        <pt x="204" y="-4" on="1"/>
        <pt x="165" y="-4" on="0"/>
        <pt x="83" y="20" on="0"/>
        <pt x="52" y="43" on="1"/>
        <pt x="53" y="62" on="1"/>
        <pt x="58" y="64" on="1"/>
        <pt x="88" y="40" on="0"/>
        <pt x="166" y="16" on="0"/>
        <pt x="203" y="16" on="1"/>
        <pt x="252" y="16" on="0"/>
        <pt x="329" y="58" on="0"/>
        <pt x="370" y="125" on="0"/>
        <pt x="370" y="162" on="1"/>
        <pt x="370" y="200" on="0"/>
        <pt x="330" y="254" on="0"/>
        <pt x="273" y="290" on="0"/>
        <pt x="223" y="314" on="1"/>
        <pt x="170" y="340" on="0"/>
        <pt x="109" y="379" on="0"/>
        <pt x="66" y="440" on="0"/>
        <pt x="66" y="483" on="1"/>
        <pt x="66" y="526" on="0"/>
        <pt x="112" y="598" on="0"/>
        <pt x="194" y="640" on="0"/>
        <pt x="246" y="640" on="1"/>
      </contour>
    </TTGlyph>
    <TTGlyph name="Scommaaccent" xMin="52" yMin="-211" xMax="390" yMax="640">
      <contour>
        <pt x="306" y="640" on="0"/>
        <pt x="368" y="611" on="1"/>
        <pt x="364" y="593" on="1"/>
        <pt x="357" y="592" on="1"/>
        <pt x="302" y="620" on="0"/>
        <pt x="244" y="620" on="1"/>
        <pt x="196" y="620" on="0"/>
        <pt x="124" y="579" on="0"/>
        <pt x="86" y="514" on="0"/>
        <pt x="86" y="480" on="1"/>
        <pt x="86" y="445" on="0"/>
        <pt x="124" y="394" on="0"/>
        <pt x="179" y="361" on="0"/>
        <pt x="228" y="337" on="1"/>
        <pt x="282" y="310" on="0"/>
        <pt x="345" y="270" on="0"/>
        <pt x="390" y="207" on="0"/>
        <pt x="390" y="162" on="1"/>
        <pt x="390" y="118" on="0"/>
        <pt x="342" y="41" on="0"/>
        <pt x="257" y="-4" on="0"/>
        <pt x="204" y="-4" on="1"/>
        <pt x="165" y="-4" on="0"/>
        <pt x="83" y="20" on="0"/>
        <pt x="52" y="43" on="1"/>
        <pt x="53" y="62" on="1"/>
        <pt x="58" y="64" on="1"/>
        <pt x="88" y="40" on="0"/>
        <pt x="166" y="16" on="0"/>
        <pt x="203" y="16" on="1"/>
        <pt x="252" y="16" on="0"/>
        <pt x="329" y="58" on="0"/>
        <pt x="370" y="125" on="0"/>
        <pt x="370" y="162" on="1"/>
        <pt x="370" y="200" on="0"/>
        <pt x="330" y="254" on="0"/>
        <pt x="273" y="290" on="0"/>
        <pt x="223" y="314" on="1"/>
        <pt x="170" y="340" on="0"/>
        <pt x="109" y="379" on="0"/>
        <pt x="66" y="440" on="0"/>
        <pt x="66" y="483" on="1"/>
        <pt x="66" y="526" on="0"/>
        <pt x="112" y="598" on="0"/>
        <pt x="194" y="640" on="0"/>
        <pt x="246" y="640" on="1"/>
      </contour>
      <contour>
        <pt x="252" y="-87" on="0"/>
        <pt x="252" y="-118" on="1"/>
        <pt x="252" y="-160" on="0"/>
        <pt x="186" y="-211" on="1"/>
        <pt x="176" y="-200" on="1"/>
        <pt x="177" y="-197" on="1"/>
        <pt x="231" y="-157" on="0"/>
        <pt x="231" y="-119" on="1"/>
        <pt x="231" y="-99" on="0"/>
        <pt x="201" y="-85" on="1"/>
        <pt x="201" y="-81" on="1"/>
        <pt x="206" y="-74" on="0"/>
        <pt x="214" y="-70" on="1"/>
      </contour>
    </TTGlyph>
    <TTGlyph name="T" xMin="28" yMin="0" xMax="447" yMax="637">
      <contour>
        <pt x="443" y="617" on="1"/>
        <pt x="248" y="617" on="1"/>
        <pt x="248" y="0" on="1"/>
        <pt x="228" y="0" on="1"/>
        <pt x="228" y="617" on="1"/>
        <pt x="31" y="617" on="1"/>
        <pt x="28" y="621" on="1"/>
        <pt x="32" y="637" on="1"/>
        <pt x="444" y="637" on="1"/>
        <pt x="447" y="633" on="1"/>
      </contour>
    </TTGlyph>
    <TTGlyph name="Tbar" xMin="28" yMin="0" xMax="447" yMax="637">
      <contour>
        <pt x="248" y="350" on="1"/>
        <pt x="352" y="350" on="1"/>
        <pt x="355" y="347" on="1"/>
        <pt x="353" y="330" on="1"/>
        <pt x="248" y="330" on="1"/>
        <pt x="248" y="0" on="1"/>
        <pt x="228" y="0" on="1"/>
        <pt x="228" y="330" on="1"/>
        <pt x="131" y="330" on="1"/>
        <pt x="128" y="333" on="1"/>
        <pt x="130" y="350" on="1"/>
        <pt x="228" y="350" on="1"/>
        <pt x="228" y="617" on="1"/>
        <pt x="31" y="617" on="1"/>
        <pt x="28" y="621" on="1"/>
        <pt x="32" y="637" on="1"/>
        <pt x="444" y="637" on="1"/>
        <pt x="447" y="633" on="1"/>
        <pt x="443" y="617" on="1"/>
        <pt x="248" y="617" on="1"/>
      </contour>
    </TTGlyph>
    <TTGlyph name="Tcaron" xMin="28" yMin="0" xMax="447" yMax="843">
      <component glyphName="T" x="0" y="0" flags="0x1000"/>
      <component glyphName="caron" x="47" y="185" flags="0x1000"/>
    </TTGlyph>
    <TTGlyph name="Tcedilla" xMin="28" yMin="-178" xMax="447" yMax="637">
      <contour>
        <pt x="443" y="617" on="1"/>
        <pt x="248" y="617" on="1"/>
        <pt x="248" y="11" on="1"/>
        <pt x="250" y="11" on="1"/>
        <pt x="248" y="5" on="1"/>
        <pt x="248" y="0" on="1"/>
        <pt x="247" y="0" on="1"/>
        <pt x="229" y="-55" on="1"/>
        <pt x="260" y="-75" on="1"/>
        <pt x="293" y="-96" on="0"/>
        <pt x="293" y="-125" on="1"/>
        <pt x="293" y="-149" on="0"/>
        <pt x="258" y="-178" on="0"/>
        <pt x="233" y="-178" on="1"/>
        <pt x="196" y="-178" on="0"/>
        <pt x="174" y="-145" on="1"/>
        <pt x="180" y="-127" on="1"/>
        <pt x="184" y="-127" on="1"/>
        <pt x="194" y="-143" on="0"/>
        <pt x="216" y="-158" on="0"/>
        <pt x="233" y="-158" on="1"/>
        <pt x="251" y="-158" on="0"/>
        <pt x="273" y="-141" on="0"/>
        <pt x="273" y="-125" on="1"/>
        <pt x="273" y="-114" on="0"/>
        <pt x="262" y="-101" on="0"/>
        <pt x="249" y="-92" on="1"/>
        <pt x="205" y="-64" on="1"/>
        <pt x="228" y="5" on="1"/>
        <pt x="228" y="617" on="1"/>
        <pt x="31" y="617" on="1"/>
        <pt x="28" y="621" on="1"/>
        <pt x="32" y="637" on="1"/>
        <pt x="444" y="637" on="1"/>
        <pt x="447" y="633" on="1"/>
      </contour>
    </TTGlyph>
    <TTGlyph name="Thorn" xMin="110" yMin="0" xMax="432" yMax="637">
      <contour>
        <pt x="338" y="516" on="0"/>
        <pt x="432" y="423" on="0"/>
        <pt x="432" y="337" on="1"/>
        <pt x="432" y="235" on="0"/>
        <pt x="322" y="126" on="0"/>
        <pt x="219" y="126" on="1"/>
        <pt x="130" y="126" on="1"/>
        <pt x="130" y="0" on="1"/>
        <pt x="110" y="0" on="1"/>
        <pt x="110" y="637" on="1"/>
        <pt x="130" y="637" on="1"/>
        <pt x="130" y="514" on="1"/>
        <pt x="251" y="516" on="1"/>
      </contour>
      <contour>
        <pt x="328" y="156" on="0"/>
        <pt x="412" y="254" on="0"/>
        <pt x="412" y="337" on="1"/>
        <pt x="412" y="411" on="0"/>
        <pt x="332" y="493" on="0"/>
        <pt x="258" y="496" on="1"/>
        <pt x="130" y="495" on="1"/>
        <pt x="130" y="146" on="1"/>
        <pt x="249" y="146" on="1"/>
      </contour>
    </TTGlyph>
    <TTGlyph name="U" xMin="86" yMin="-4" xMax="526" yMax="637">
      <contour>
        <pt x="529" y="119" on="0"/>
        <pt x="413" y="-4" on="0"/>
        <pt x="306" y="-4" on="1"/>
        <pt x="199" y="-4" on="0"/>
        <pt x="86" y="116" on="0"/>
        <pt x="86" y="229" on="1"/>
        <pt x="86" y="637" on="1"/>
        <pt x="106" y="637" on="1"/>
        <pt x="106" y="229" on="1"/>
        <pt x="105" y="126" on="0"/>
        <pt x="209" y="16" on="0"/>
        <pt x="306" y="16" on="1"/>
        <pt x="403" y="16" on="0"/>
        <pt x="506" y="126" on="0"/>
        <pt x="506" y="229" on="1"/>
        <pt x="506" y="637" on="1"/>
        <pt x="526" y="637" on="1"/>
        <pt x="526" y="229" on="1"/>
      </contour>
    </TTGlyph>
    <TTGlyph name="Uacute" xMin="86" yMin="-4" xMax="526" yMax="836">
      <component glyphName="U" x="0" y="0" flags="0x1000"/>
      <component glyphName="acute.cap" x="146" y="185" flags="0x1000"/>
    </TTGlyph>
    <TTGlyph name="Ubreve" xMin="86" yMin="-4" xMax="526" yMax="825">
      <component glyphName="U" x="0" y="0" flags="0x1000"/>
      <component glyphName="breve" x="115" y="185" flags="0x1000"/>
    </TTGlyph>
    <TTGlyph name="Ucaron" xMin="86" yMin="-4" xMax="526" yMax="843">
      <component glyphName="U" x="0" y="0" flags="0x1000"/>
      <component glyphName="caron" x="115" y="185" flags="0x1000"/>
    </TTGlyph>
    <TTGlyph name="Ucircumflex" xMin="86" yMin="-4" xMax="526" yMax="828">
      <component glyphName="U" x="0" y="0" flags="0x1000"/>
      <component glyphName="caron.cap" x="505" y="1372" scale="-1.0" flags="0x1000"/>
    </TTGlyph>
    <TTGlyph name="Udieresis" xMin="86" yMin="-4" xMax="526" yMax="800">
      <component glyphName="U" x="0" y="0" flags="0x1000"/>
      <component glyphName="period" x="265" y="762" flags="0x1000"/>
      <component glyphName="dotaccent" x="125" y="169" flags="0x1000"/>
    </TTGlyph>
    <TTGlyph name="Udieresisacute" xMin="86" yMin="-4" xMax="526" yMax="921">
      <component glyphName="U" x="0" y="0" flags="0x1000"/>
      <component glyphName="dieresisacute" x="115" y="185" flags="0x1000"/>
    </TTGlyph>
    <TTGlyph name="Udieresiscaron" xMin="86" yMin="-4" xMax="526" yMax="903">
      <component glyphName="U" x="0" y="0" flags="0x1000"/>
      <component glyphName="dieresiscaron" x="115" y="185" flags="0x1000"/>
    </TTGlyph>
    <TTGlyph name="Udieresisgrave" xMin="86" yMin="-4" xMax="526" yMax="921">
      <component glyphName="U" x="0" y="0" flags="0x1000"/>
      <component glyphName="dieresisgrave" x="115" y="185" flags="0x1000"/>
    </TTGlyph>
    <TTGlyph name="Udieresismacron" xMin="86" yMin="-4" xMax="526" yMax="876">
      <component glyphName="U" x="0" y="0" flags="0x1000"/>
      <component glyphName="dieresismacron" x="115" y="185" flags="0x1000"/>
    </TTGlyph>
    <TTGlyph name="Udotbelow" xMin="86" yMin="-128" xMax="526" yMax="637">
      <contour>
        <pt x="529" y="119" on="0"/>
        <pt x="413" y="-4" on="0"/>
        <pt x="306" y="-4" on="1"/>
        <pt x="199" y="-4" on="0"/>
        <pt x="86" y="116" on="0"/>
        <pt x="86" y="229" on="1"/>
        <pt x="86" y="637" on="1"/>
        <pt x="106" y="637" on="1"/>
        <pt x="106" y="229" on="1"/>
        <pt x="105" y="126" on="0"/>
        <pt x="209" y="16" on="0"/>
        <pt x="306" y="16" on="1"/>
        <pt x="403" y="16" on="0"/>
        <pt x="506" y="126" on="0"/>
        <pt x="506" y="229" on="1"/>
        <pt x="506" y="637" on="1"/>
        <pt x="526" y="637" on="1"/>
        <pt x="526" y="229" on="1"/>
      </contour>
      <contour>
        <pt x="323" y="-88" on="0"/>
        <pt x="323" y="-108" on="1"/>
        <pt x="323" y="-128" on="0"/>
        <pt x="303" y="-128" on="1"/>
        <pt x="283" y="-128" on="0"/>
        <pt x="283" y="-108" on="1"/>
        <pt x="283" y="-88" on="0"/>
        <pt x="303" y="-88" on="1"/>
      </contour>
    </TTGlyph>
    <TTGlyph name="Ugrave" xMin="86" yMin="-4" xMax="526" yMax="838">
      <component glyphName="U" x="0" y="0" flags="0x1000"/>
      <component glyphName="acute.cap" x="505" y="187" scalex="-1.0" scaley="1.0" flags="0x1000"/>
    </TTGlyph>
    <TTGlyph name="Uhookabove" xMin="86" yMin="-4" xMax="526" yMax="862">
      <component glyphName="U" x="0" y="0" flags="0x1000"/>
      <component glyphName="hookabove" x="115" y="185" flags="0x1000"/>
    </TTGlyph>
    <TTGlyph name="Uhorn" xMin="86" yMin="-4" xMax="605" yMax="761">
      <contour>
        <pt x="529" y="119" on="0"/>
        <pt x="413" y="-4" on="0"/>
        <pt x="306" y="-4" on="1"/>
        <pt x="199" y="-4" on="0"/>
        <pt x="86" y="116" on="0"/>
        <pt x="86" y="229" on="1"/>
        <pt x="86" y="637" on="1"/>
        <pt x="106" y="637" on="1"/>
        <pt x="106" y="229" on="1"/>
        <pt x="105" y="126" on="0"/>
        <pt x="209" y="16" on="0"/>
        <pt x="306" y="16" on="1"/>
        <pt x="403" y="16" on="0"/>
        <pt x="506" y="126" on="0"/>
        <pt x="506" y="229" on="1"/>
        <pt x="506" y="637" on="1"/>
        <pt x="516" y="637" on="1"/>
        <pt x="547" y="637" on="0"/>
        <pt x="585" y="666" on="0"/>
        <pt x="585" y="690" on="1"/>
        <pt x="585" y="718" on="0"/>
        <pt x="551" y="751" on="1"/>
        <pt x="553" y="756" on="1"/>
        <pt x="561" y="761" on="0"/>
        <pt x="565" y="761" on="1"/>
        <pt x="571" y="761" on="0"/>
        <pt x="590" y="741" on="0"/>
        <pt x="605" y="708" on="0"/>
        <pt x="605" y="690" on="1"/>
        <pt x="605" y="659" on="0"/>
        <pt x="562" y="620" on="0"/>
        <pt x="526" y="617" on="1"/>
        <pt x="526" y="229" on="1"/>
      </contour>
    </TTGlyph>
    <TTGlyph name="Uhornacute" xMin="86" yMin="-4" xMax="605" yMax="836">
      <component glyphName="Uhorn" x="0" y="0" flags="0x1000"/>
      <component glyphName="acute.cap" x="146" y="185" flags="0x1000"/>
    </TTGlyph>
    <TTGlyph name="Uhorndotbelow" xMin="86" yMin="-128" xMax="605" yMax="761">
      <contour>
        <pt x="529" y="119" on="0"/>
        <pt x="413" y="-4" on="0"/>
        <pt x="306" y="-4" on="1"/>
        <pt x="199" y="-4" on="0"/>
        <pt x="86" y="116" on="0"/>
        <pt x="86" y="229" on="1"/>
        <pt x="86" y="637" on="1"/>
        <pt x="106" y="637" on="1"/>
        <pt x="106" y="229" on="1"/>
        <pt x="105" y="126" on="0"/>
        <pt x="209" y="16" on="0"/>
        <pt x="306" y="16" on="1"/>
        <pt x="403" y="16" on="0"/>
        <pt x="506" y="126" on="0"/>
        <pt x="506" y="229" on="1"/>
        <pt x="506" y="637" on="1"/>
        <pt x="516" y="637" on="1"/>
        <pt x="547" y="637" on="0"/>
        <pt x="585" y="666" on="0"/>
        <pt x="585" y="690" on="1"/>
        <pt x="585" y="718" on="0"/>
        <pt x="551" y="751" on="1"/>
        <pt x="553" y="756" on="1"/>
        <pt x="561" y="761" on="0"/>
        <pt x="565" y="761" on="1"/>
        <pt x="571" y="761" on="0"/>
        <pt x="590" y="741" on="0"/>
        <pt x="605" y="708" on="0"/>
        <pt x="605" y="690" on="1"/>
        <pt x="605" y="659" on="0"/>
        <pt x="562" y="620" on="0"/>
        <pt x="526" y="617" on="1"/>
        <pt x="526" y="229" on="1"/>
      </contour>
      <contour>
        <pt x="326" y="-88" on="0"/>
        <pt x="326" y="-108" on="1"/>
        <pt x="326" y="-128" on="0"/>
        <pt x="306" y="-128" on="1"/>
        <pt x="286" y="-128" on="0"/>
        <pt x="286" y="-108" on="1"/>
        <pt x="286" y="-88" on="0"/>
        <pt x="306" y="-88" on="1"/>
      </contour>
    </TTGlyph>
    <TTGlyph name="Uhorngrave" xMin="86" yMin="-4" xMax="605" yMax="838">
      <component glyphName="Uhorn" x="0" y="0" flags="0x1000"/>
      <component glyphName="acute.cap" x="505" y="187" scalex="-1.0" scaley="1.0" flags="0x1000"/>
    </TTGlyph>
    <TTGlyph name="Uhornhookabove" xMin="86" yMin="-4" xMax="605" yMax="862">
      <component glyphName="Uhorn" x="0" y="0" flags="0x1000"/>
      <component glyphName="hookabove" x="115" y="185" flags="0x1000"/>
    </TTGlyph>
    <TTGlyph name="Uhorntilde" xMin="86" yMin="-4" xMax="605" yMax="816">
      <component glyphName="Uhorn" x="0" y="0" flags="0x1000"/>
      <component glyphName="tilde" x="115" y="185" flags="0x1000"/>
    </TTGlyph>
    <TTGlyph name="Uhungarumlaut" xMin="86" yMin="-4" xMax="526" yMax="841">
      <component glyphName="U" x="0" y="0" flags="0x1000"/>
      <component glyphName="hungarumlaut.cap" x="142" y="185" flags="0x1000"/>
    </TTGlyph>
    <TTGlyph name="Umacron" xMin="86" yMin="-4" xMax="526" yMax="792">
      <component glyphName="U" x="0" y="0" flags="0x1000"/>
      <component glyphName="macron" x="115" y="185" flags="0x1000"/>
    </TTGlyph>
    <TTGlyph name="Uogonek" xMin="86" yMin="-197" xMax="526" yMax="637">
      <contour>
        <pt x="478" y="-140" on="1"/>
        <pt x="434" y="-197" on="0"/>
        <pt x="384" y="-197" on="1"/>
        <pt x="355" y="-197" on="0"/>
        <pt x="319" y="-162" on="0"/>
        <pt x="319" y="-132" on="1"/>
        <pt x="319" y="-101" on="0"/>
        <pt x="339" y="-72" on="1"/>
        <pt x="394" y="9" on="1"/>
        <pt x="352" y="-4" on="0"/>
        <pt x="306" y="-4" on="1"/>
        <pt x="199" y="-4" on="0"/>
        <pt x="86" y="116" on="0"/>
        <pt x="86" y="229" on="1"/>
        <pt x="86" y="637" on="1"/>
        <pt x="106" y="637" on="1"/>
        <pt x="106" y="229" on="1"/>
        <pt x="105" y="126" on="0"/>
        <pt x="209" y="16" on="0"/>
        <pt x="306" y="16" on="1"/>
        <pt x="403" y="16" on="0"/>
        <pt x="506" y="126" on="0"/>
        <pt x="506" y="229" on="1"/>
        <pt x="506" y="637" on="1"/>
        <pt x="526" y="637" on="1"/>
        <pt x="526" y="229" on="1"/>
        <pt x="528" y="157" on="0"/>
        <pt x="478" y="52" on="0"/>
        <pt x="429" y="25" on="1"/>
        <pt x="359" y="-78" on="1"/>
        <pt x="339" y="-107" on="0"/>
        <pt x="339" y="-132" on="1"/>
        <pt x="339" y="-152" on="0"/>
        <pt x="363" y="-177" on="0"/>
        <pt x="384" y="-177" on="1"/>
        <pt x="426" y="-177" on="0"/>
        <pt x="465" y="-124" on="1"/>
        <pt x="467" y="-124" on="1"/>
      </contour>
    </TTGlyph>
    <TTGlyph name="Uring" xMin="86" yMin="-4" xMax="526" yMax="853">
      <component glyphName="U" x="0" y="0" flags="0x1000"/>
      <component glyphName="ring" x="115" y="185" flags="0x1000"/>
    </TTGlyph>
    <TTGlyph name="Utilde" xMin="86" yMin="-4" xMax="526" yMax="816">
      <component glyphName="U" x="0" y="0" flags="0x1000"/>
      <component glyphName="tilde" x="115" y="185" flags="0x1000"/>
    </TTGlyph>
    <TTGlyph name="V" xMin="20" yMin="0" xMax="527" yMax="637">
      <contour>
        <pt x="253" y="0" on="1"/>
        <pt x="20" y="637" on="1"/>
        <pt x="43" y="637" on="1"/>
        <pt x="56" y="594" on="1"/>
        <pt x="262" y="34" on="1"/>
        <pt x="266" y="34" on="1"/>
        <pt x="489" y="594" on="1"/>
        <pt x="503" y="637" on="1"/>
        <pt x="527" y="637" on="1"/>
        <pt x="273" y="0" on="1"/>
      </contour>
    </TTGlyph>
    <TTGlyph name="V.ss01" xMin="-100" yMin="0" xMax="581" yMax="491">
      <contour>
        <pt x="254" y="20" on="1"/>
        <pt x="581" y="20" on="1"/>
        <pt x="581" y="0" on="1"/>
        <pt x="-100" y="0" on="1"/>
        <pt x="-100" y="20" on="1"/>
        <pt x="218" y="20" on="1"/>
        <pt x="44" y="471" on="1"/>
        <pt x="-100" y="471" on="1"/>
        <pt x="-100" y="491" on="1"/>
        <pt x="581" y="491" on="1"/>
        <pt x="581" y="471" on="1"/>
        <pt x="443" y="471" on="1"/>
      </contour>
      <contour>
        <pt x="64" y="471" on="1"/>
        <pt x="70" y="453" on="1"/>
        <pt x="235" y="32" on="1"/>
        <pt x="238" y="32" on="1"/>
        <pt x="416" y="453" on="1"/>
        <pt x="422" y="471" on="1"/>
      </contour>
    </TTGlyph>
    <TTGlyph name="W" xMin="23" yMin="0" xMax="871" yMax="637">
      <contour>
        <pt x="602" y="0" on="1"/>
        <pt x="446" y="438" on="1"/>
        <pt x="442" y="438" on="1"/>
        <pt x="272" y="0" on="1"/>
        <pt x="252" y="0" on="1"/>
        <pt x="23" y="637" on="1"/>
        <pt x="46" y="637" on="1"/>
        <pt x="59" y="594" on="1"/>
        <pt x="261" y="34" on="1"/>
        <pt x="265" y="34" on="1"/>
        <pt x="434" y="471" on="1"/>
        <pt x="374" y="637" on="1"/>
        <pt x="396" y="637" on="1"/>
        <pt x="409" y="594" on="1"/>
        <pt x="611" y="34" on="1"/>
        <pt x="615" y="34" on="1"/>
        <pt x="834" y="594" on="1"/>
        <pt x="848" y="637" on="1"/>
        <pt x="871" y="637" on="1"/>
        <pt x="622" y="0" on="1"/>
      </contour>
    </TTGlyph>
    <TTGlyph name="Wacute" xMin="23" yMin="0" xMax="871" yMax="836">
      <component glyphName="W" x="0" y="0" flags="0x1000"/>
      <component glyphName="acute.cap" x="270" y="185" flags="0x1000"/>
    </TTGlyph>
    <TTGlyph name="Wcircumflex" xMin="23" yMin="0" xMax="871" yMax="828">
      <contour>
        <pt x="374" y="785" on="0"/>
        <pt x="425" y="828" on="1"/>
        <pt x="441" y="828" on="1"/>
        <pt x="507" y="776" on="0"/>
        <pt x="541" y="752" on="1"/>
        <pt x="534" y="738" on="1"/>
        <pt x="529" y="738" on="1"/>
        <pt x="483" y="770" on="0"/>
        <pt x="434" y="808" on="1"/>
        <pt x="385" y="770" on="0"/>
        <pt x="339" y="738" on="1"/>
        <pt x="334" y="738" on="1"/>
        <pt x="327" y="752" on="1"/>
      </contour>
      <contour>
        <pt x="602" y="0" on="1"/>
        <pt x="446" y="438" on="1"/>
        <pt x="442" y="438" on="1"/>
        <pt x="272" y="0" on="1"/>
        <pt x="252" y="0" on="1"/>
        <pt x="23" y="637" on="1"/>
        <pt x="46" y="637" on="1"/>
        <pt x="59" y="594" on="1"/>
        <pt x="261" y="34" on="1"/>
        <pt x="265" y="34" on="1"/>
        <pt x="434" y="471" on="1"/>
        <pt x="374" y="637" on="1"/>
        <pt x="396" y="637" on="1"/>
        <pt x="409" y="594" on="1"/>
        <pt x="611" y="34" on="1"/>
        <pt x="615" y="34" on="1"/>
        <pt x="834" y="594" on="1"/>
        <pt x="848" y="637" on="1"/>
        <pt x="871" y="637" on="1"/>
        <pt x="622" y="0" on="1"/>
      </contour>
    </TTGlyph>
    <TTGlyph name="Wdieresis" xMin="23" yMin="0" xMax="871" yMax="800">
      <contour>
        <pt x="384" y="800" on="0"/>
        <pt x="384" y="780" on="1"/>
        <pt x="384" y="760" on="0"/>
        <pt x="364" y="760" on="1"/>
        <pt x="344" y="760" on="0"/>
        <pt x="344" y="780" on="1"/>
        <pt x="344" y="800" on="0"/>
        <pt x="364" y="800" on="1"/>
      </contour>
      <contour>
        <pt x="524" y="800" on="0"/>
        <pt x="524" y="780" on="1"/>
        <pt x="524" y="760" on="0"/>
        <pt x="504" y="760" on="1"/>
        <pt x="484" y="760" on="0"/>
        <pt x="484" y="780" on="1"/>
        <pt x="484" y="800" on="0"/>
        <pt x="504" y="800" on="1"/>
      </contour>
      <contour>
        <pt x="602" y="0" on="1"/>
        <pt x="446" y="438" on="1"/>
        <pt x="442" y="438" on="1"/>
        <pt x="272" y="0" on="1"/>
        <pt x="252" y="0" on="1"/>
        <pt x="23" y="637" on="1"/>
        <pt x="46" y="637" on="1"/>
        <pt x="59" y="594" on="1"/>
        <pt x="261" y="34" on="1"/>
        <pt x="265" y="34" on="1"/>
        <pt x="434" y="471" on="1"/>
        <pt x="374" y="637" on="1"/>
        <pt x="396" y="637" on="1"/>
        <pt x="409" y="594" on="1"/>
        <pt x="611" y="34" on="1"/>
        <pt x="615" y="34" on="1"/>
        <pt x="834" y="594" on="1"/>
        <pt x="848" y="637" on="1"/>
        <pt x="871" y="637" on="1"/>
        <pt x="622" y="0" on="1"/>
      </contour>
    </TTGlyph>
    <TTGlyph name="Wgrave" xMin="23" yMin="0" xMax="871" yMax="838">
      <contour>
        <pt x="436" y="788" on="0"/>
        <pt x="527" y="744" on="1"/>
        <pt x="520" y="729" on="1"/>
        <pt x="515" y="726" on="1"/>
        <pt x="408" y="781" on="0"/>
        <pt x="341" y="819" on="1"/>
        <pt x="339" y="824" on="1"/>
        <pt x="346" y="836" on="1"/>
        <pt x="351" y="838" on="1"/>
      </contour>
      <contour>
        <pt x="602" y="0" on="1"/>
        <pt x="446" y="438" on="1"/>
        <pt x="442" y="438" on="1"/>
        <pt x="272" y="0" on="1"/>
        <pt x="252" y="0" on="1"/>
        <pt x="23" y="637" on="1"/>
        <pt x="46" y="637" on="1"/>
        <pt x="59" y="594" on="1"/>
        <pt x="261" y="34" on="1"/>
        <pt x="265" y="34" on="1"/>
        <pt x="434" y="471" on="1"/>
        <pt x="374" y="637" on="1"/>
        <pt x="396" y="637" on="1"/>
        <pt x="409" y="594" on="1"/>
        <pt x="611" y="34" on="1"/>
        <pt x="615" y="34" on="1"/>
        <pt x="834" y="594" on="1"/>
        <pt x="848" y="637" on="1"/>
        <pt x="871" y="637" on="1"/>
        <pt x="622" y="0" on="1"/>
      </contour>
    </TTGlyph>
    <TTGlyph name="X" xMin="34" yMin="0" xMax="520" yMax="637">
      <contour>
        <pt x="520" y="0" on="1"/>
        <pt x="493" y="0" on="1"/>
        <pt x="469" y="38" on="1"/>
        <pt x="276" y="314" on="1"/>
        <pt x="83" y="36" on="1"/>
        <pt x="61" y="0" on="1"/>
        <pt x="34" y="0" on="1"/>
        <pt x="263" y="330" on="1"/>
        <pt x="48" y="637" on="1"/>
        <pt x="76" y="637" on="1"/>
        <pt x="98" y="602" on="1"/>
        <pt x="276" y="346" on="1"/>
        <pt x="450" y="597" on="1"/>
        <pt x="474" y="637" on="1"/>
        <pt x="501" y="637" on="1"/>
        <pt x="289" y="330" on="1"/>
      </contour>
    </TTGlyph>
    <TTGlyph name="X.ss01" xMin="-100" yMin="0" xMax="604" yMax="491">
      <contour>
        <pt x="433" y="20" on="1"/>
        <pt x="604" y="20" on="1"/>
        <pt x="604" y="0" on="1"/>
        <pt x="-100" y="0" on="1"/>
        <pt x="-100" y="20" on="1"/>
        <pt x="61" y="20" on="1"/>
        <pt x="233" y="253" on="1"/>
        <pt x="71" y="471" on="1"/>
        <pt x="-100" y="471" on="1"/>
        <pt x="-100" y="491" on="1"/>
        <pt x="604" y="491" on="1"/>
        <pt x="604" y="471" on="1"/>
        <pt x="418" y="471" on="1"/>
        <pt x="258" y="253" on="1"/>
      </contour>
      <contour>
        <pt x="385" y="456" on="1"/>
        <pt x="394" y="471" on="1"/>
        <pt x="97" y="471" on="1"/>
        <pt x="104" y="460" on="1"/>
        <pt x="246" y="269" on="1"/>
      </contour>
      <contour>
        <pt x="91" y="31" on="1"/>
        <pt x="84" y="20" on="1"/>
        <pt x="407" y="20" on="1"/>
        <pt x="399" y="32" on="1"/>
        <pt x="246" y="238" on="1"/>
      </contour>
    </TTGlyph>
    <TTGlyph name="Y" xMin="26" yMin="0" xMax="466" yMax="637">
      <contour>
        <pt x="248" y="0" on="1"/>
        <pt x="228" y="0" on="1"/>
        <pt x="228" y="246" on="1"/>
        <pt x="26" y="637" on="1"/>
        <pt x="52" y="637" on="1"/>
        <pt x="63" y="611" on="1"/>
        <pt x="236" y="277" on="1"/>
        <pt x="241" y="277" on="1"/>
        <pt x="429" y="611" on="1"/>
        <pt x="440" y="637" on="1"/>
        <pt x="466" y="637" on="1"/>
        <pt x="248" y="245" on="1"/>
      </contour>
    </TTGlyph>
    <TTGlyph name="Yacute" xMin="26" yMin="0" xMax="466" yMax="836">
      <component glyphName="Y" x="0" y="0" flags="0x1000"/>
      <component glyphName="acute.cap" x="75" y="185" flags="0x1000"/>
    </TTGlyph>
    <TTGlyph name="Ycircumflex" xMin="26" yMin="0" xMax="466" yMax="828">
      <contour>
        <pt x="132" y="752" on="1"/>
        <pt x="179" y="785" on="0"/>
        <pt x="230" y="828" on="1"/>
        <pt x="246" y="828" on="1"/>
        <pt x="312" y="776" on="0"/>
        <pt x="346" y="752" on="1"/>
        <pt x="339" y="738" on="1"/>
        <pt x="334" y="738" on="1"/>
        <pt x="288" y="770" on="0"/>
        <pt x="239" y="808" on="1"/>
        <pt x="190" y="770" on="0"/>
        <pt x="144" y="738" on="1"/>
        <pt x="139" y="738" on="1"/>
      </contour>
      <contour>
        <pt x="248" y="0" on="1"/>
        <pt x="228" y="0" on="1"/>
        <pt x="228" y="246" on="1"/>
        <pt x="26" y="637" on="1"/>
        <pt x="52" y="637" on="1"/>
        <pt x="63" y="611" on="1"/>
        <pt x="236" y="277" on="1"/>
        <pt x="241" y="277" on="1"/>
        <pt x="429" y="611" on="1"/>
        <pt x="440" y="637" on="1"/>
        <pt x="466" y="637" on="1"/>
        <pt x="248" y="245" on="1"/>
      </contour>
    </TTGlyph>
    <TTGlyph name="Ydieresis" xMin="26" yMin="0" xMax="466" yMax="800">
      <contour>
        <pt x="149" y="760" on="0"/>
        <pt x="149" y="780" on="1"/>
        <pt x="149" y="800" on="0"/>
        <pt x="169" y="800" on="1"/>
        <pt x="189" y="800" on="0"/>
        <pt x="189" y="780" on="1"/>
        <pt x="189" y="760" on="0"/>
        <pt x="169" y="760" on="1"/>
      </contour>
      <contour>
        <pt x="289" y="760" on="0"/>
        <pt x="289" y="780" on="1"/>
        <pt x="289" y="800" on="0"/>
        <pt x="309" y="800" on="1"/>
        <pt x="329" y="800" on="0"/>
        <pt x="329" y="780" on="1"/>
        <pt x="329" y="760" on="0"/>
        <pt x="309" y="760" on="1"/>
      </contour>
      <contour>
        <pt x="248" y="0" on="1"/>
        <pt x="228" y="0" on="1"/>
        <pt x="228" y="246" on="1"/>
        <pt x="26" y="637" on="1"/>
        <pt x="52" y="637" on="1"/>
        <pt x="63" y="611" on="1"/>
        <pt x="236" y="277" on="1"/>
        <pt x="241" y="277" on="1"/>
        <pt x="429" y="611" on="1"/>
        <pt x="440" y="637" on="1"/>
        <pt x="466" y="637" on="1"/>
        <pt x="248" y="245" on="1"/>
      </contour>
    </TTGlyph>
    <TTGlyph name="Ydotbelow" xMin="26" yMin="-128" xMax="466" yMax="637">
      <contour>
        <pt x="26" y="637" on="1"/>
        <pt x="52" y="637" on="1"/>
        <pt x="63" y="611" on="1"/>
        <pt x="236" y="277" on="1"/>
        <pt x="241" y="277" on="1"/>
        <pt x="429" y="611" on="1"/>
        <pt x="440" y="637" on="1"/>
        <pt x="466" y="637" on="1"/>
        <pt x="248" y="245" on="1"/>
        <pt x="248" y="0" on="1"/>
        <pt x="228" y="0" on="1"/>
        <pt x="228" y="246" on="1"/>
      </contour>
      <contour>
        <pt x="258" y="-88" on="0"/>
        <pt x="258" y="-108" on="1"/>
        <pt x="258" y="-128" on="0"/>
        <pt x="238" y="-128" on="1"/>
        <pt x="218" y="-128" on="0"/>
        <pt x="218" y="-108" on="1"/>
        <pt x="218" y="-88" on="0"/>
        <pt x="238" y="-88" on="1"/>
      </contour>
    </TTGlyph>
    <TTGlyph name="Ygrave" xMin="26" yMin="0" xMax="466" yMax="838">
      <contour>
        <pt x="213" y="781" on="0"/>
        <pt x="146" y="819" on="1"/>
        <pt x="144" y="824" on="1"/>
        <pt x="151" y="836" on="1"/>
        <pt x="156" y="838" on="1"/>
        <pt x="241" y="788" on="0"/>
        <pt x="332" y="744" on="1"/>
        <pt x="325" y="729" on="1"/>
        <pt x="320" y="726" on="1"/>
      </contour>
      <contour>
        <pt x="248" y="0" on="1"/>
        <pt x="228" y="0" on="1"/>
        <pt x="228" y="246" on="1"/>
        <pt x="26" y="637" on="1"/>
        <pt x="52" y="637" on="1"/>
        <pt x="63" y="611" on="1"/>
        <pt x="236" y="277" on="1"/>
        <pt x="241" y="277" on="1"/>
        <pt x="429" y="611" on="1"/>
        <pt x="440" y="637" on="1"/>
        <pt x="466" y="637" on="1"/>
        <pt x="248" y="245" on="1"/>
      </contour>
    </TTGlyph>
    <TTGlyph name="Yhookabove" xMin="26" yMin="0" xMax="466" yMax="862">
      <component glyphName="Y" x="0" y="0" flags="0x1000"/>
      <component glyphName="hookabove" x="44" y="185" flags="0x1000"/>
    </TTGlyph>
    <TTGlyph name="Ytilde" xMin="26" yMin="0" xMax="466" yMax="816">
      <component glyphName="Y" x="0" y="0" flags="0x1000"/>
      <component glyphName="tilde" x="44" y="185" flags="0x1000"/>
    </TTGlyph>
    <TTGlyph name="Z" xMin="32" yMin="-1" xMax="462" yMax="638">
      <contour>
        <pt x="59" y="20" on="1"/>
        <pt x="390" y="20" on="1"/>
        <pt x="458" y="21" on="1"/>
        <pt x="462" y="16" on="1"/>
        <pt x="459" y="0" on="1"/>
        <pt x="68" y="0" on="1"/>
        <pt x="32" y="-1" on="1"/>
        <pt x="32" y="17" on="1"/>
        <pt x="433" y="617" on="1"/>
        <pt x="113" y="617" on="1"/>
        <pt x="55" y="616" on="1"/>
        <pt x="51" y="621" on="1"/>
        <pt x="54" y="638" on="1"/>
        <pt x="119" y="637" on="1"/>
        <pt x="423" y="637" on="1"/>
        <pt x="460" y="638" on="1"/>
        <pt x="460" y="620" on="1"/>
      </contour>
    </TTGlyph>
    <TTGlyph name="Zacute" xMin="32" yMin="-1" xMax="462" yMax="836">
      <component glyphName="Z" x="0" y="0" flags="0x1000"/>
      <component glyphName="acute.cap" x="97" y="185" flags="0x1000"/>
    </TTGlyph>
    <TTGlyph name="Zcaron" xMin="32" yMin="-1" xMax="462" yMax="819">
      <component glyphName="Z" x="0" y="0" flags="0x1000"/>
      <component glyphName="caron.cap" x="66" y="185" flags="0x1000"/>
    </TTGlyph>
    <TTGlyph name="Zdotaccent" xMin="32" yMin="-1" xMax="462" yMax="816">
      <contour>
        <pt x="281" y="816" on="0"/>
        <pt x="281" y="796" on="1"/>
        <pt x="281" y="776" on="0"/>
        <pt x="261" y="776" on="1"/>
        <pt x="241" y="776" on="0"/>
        <pt x="241" y="796" on="1"/>
        <pt x="241" y="816" on="0"/>
        <pt x="261" y="816" on="1"/>
      </contour>
      <contour>
        <pt x="59" y="20" on="1"/>
        <pt x="390" y="20" on="1"/>
        <pt x="458" y="21" on="1"/>
        <pt x="462" y="16" on="1"/>
        <pt x="459" y="0" on="1"/>
        <pt x="68" y="0" on="1"/>
        <pt x="32" y="-1" on="1"/>
        <pt x="32" y="17" on="1"/>
        <pt x="433" y="617" on="1"/>
        <pt x="113" y="617" on="1"/>
        <pt x="55" y="616" on="1"/>
        <pt x="51" y="621" on="1"/>
        <pt x="54" y="638" on="1"/>
        <pt x="119" y="637" on="1"/>
        <pt x="423" y="637" on="1"/>
        <pt x="460" y="638" on="1"/>
        <pt x="460" y="620" on="1"/>
      </contour>
    </TTGlyph>
    <TTGlyph name="a" xMin="34" yMin="0" xMax="452" yMax="491">
      <contour>
        <pt x="429" y="0" on="1"/>
        <pt x="419" y="35" on="1"/>
        <pt x="370" y="161" on="1"/>
        <pt x="122" y="161" on="1"/>
        <pt x="69" y="35" on="1"/>
        <pt x="57" y="0" on="1"/>
        <pt x="34" y="0" on="1"/>
        <pt x="241" y="491" on="1"/>
        <pt x="262" y="491" on="1"/>
        <pt x="452" y="0" on="1"/>
      </contour>
      <contour>
        <pt x="252" y="461" on="1"/>
        <pt x="249" y="461" on="1"/>
        <pt x="130" y="180" on="1"/>
        <pt x="362" y="180" on="1"/>
      </contour>
    </TTGlyph>
    <TTGlyph name="a.sups" xMin="40" yMin="347" xMax="277" yMax="644">
      <contour>
        <pt x="188" y="644" on="0"/>
        <pt x="230" y="605" on="0"/>
        <pt x="230" y="570" on="1"/>
        <pt x="230" y="543" on="0"/>
        <pt x="227" y="486" on="1"/>
        <pt x="224" y="401" on="1"/>
        <pt x="224" y="366" on="0"/>
        <pt x="247" y="366" on="1"/>
        <pt x="261" y="366" on="0"/>
        <pt x="273" y="375" on="1"/>
        <pt x="277" y="373" on="1"/>
        <pt x="274" y="357" on="1"/>
        <pt x="261" y="348" on="0"/>
        <pt x="242" y="348" on="1"/>
        <pt x="205" y="348" on="0"/>
        <pt x="204" y="396" on="1"/>
        <pt x="202" y="396" on="1"/>
        <pt x="161" y="349" on="0"/>
        <pt x="117" y="347" on="1"/>
        <pt x="80" y="347" on="0"/>
        <pt x="40" y="385" on="0"/>
        <pt x="40" y="420" on="1"/>
        <pt x="40" y="470" on="0"/>
        <pt x="96" y="483" on="1"/>
        <pt x="208" y="507" on="1"/>
        <pt x="210" y="566" on="1"/>
        <pt x="210" y="625" on="0"/>
        <pt x="147" y="625" on="1"/>
        <pt x="105" y="625" on="0"/>
        <pt x="56" y="585" on="1"/>
        <pt x="52" y="586" on="1"/>
        <pt x="48" y="601" on="1"/>
        <pt x="99" y="644" on="0"/>
        <pt x="149" y="644" on="1"/>
      </contour>
      <contour>
        <pt x="61" y="458" on="0"/>
        <pt x="61" y="421" on="1"/>
        <pt x="61" y="395" on="0"/>
        <pt x="91" y="365" on="0"/>
        <pt x="119" y="365" on="1"/>
        <pt x="163" y="365" on="0"/>
        <pt x="204" y="419" on="1"/>
        <pt x="207" y="491" on="1"/>
        <pt x="103" y="467" on="1"/>
      </contour>
    </TTGlyph>
    <TTGlyph name="aacute" xMin="34" yMin="0" xMax="452" yMax="708">
      <component glyphName="a" x="0" y="0" flags="0x1000"/>
      <component glyphName="acute" x="87" y="39" flags="0x1000"/>
    </TTGlyph>
    <TTGlyph name="abreve" xMin="34" yMin="0" xMax="452" yMax="679">
      <component glyphName="a" x="0" y="0" flags="0x1000"/>
      <component glyphName="breve" x="56" y="39" flags="0x1000"/>
    </TTGlyph>
    <TTGlyph name="abreveacute" xMin="34" yMin="0" xMax="452" yMax="750">
      <component glyphName="a" x="0" y="0" flags="0x1000"/>
      <component glyphName="breveacute" x="56" y="39" flags="0x1000"/>
    </TTGlyph>
    <TTGlyph name="abrevedotbelow" xMin="34" yMin="-128" xMax="452" yMax="679">
      <contour>
        <pt x="169" y="561" on="0"/>
        <pt x="150" y="666" on="1"/>
        <pt x="163" y="679" on="1"/>
        <pt x="168" y="679" on="1"/>
        <pt x="181" y="581" on="0"/>
        <pt x="251" y="581" on="1"/>
        <pt x="321" y="581" on="0"/>
        <pt x="334" y="679" on="1"/>
        <pt x="339" y="679" on="1"/>
        <pt x="352" y="666" on="1"/>
        <pt x="333" y="561" on="0"/>
        <pt x="251" y="561" on="1"/>
      </contour>
      <contour>
        <pt x="429" y="0" on="1"/>
        <pt x="419" y="35" on="1"/>
        <pt x="370" y="161" on="1"/>
        <pt x="122" y="161" on="1"/>
        <pt x="69" y="35" on="1"/>
        <pt x="57" y="0" on="1"/>
        <pt x="34" y="0" on="1"/>
        <pt x="241" y="491" on="1"/>
        <pt x="262" y="491" on="1"/>
        <pt x="452" y="0" on="1"/>
      </contour>
      <contour>
        <pt x="252" y="461" on="1"/>
        <pt x="249" y="461" on="1"/>
        <pt x="130" y="180" on="1"/>
        <pt x="362" y="180" on="1"/>
      </contour>
      <contour>
        <pt x="266" y="-88" on="0"/>
        <pt x="266" y="-108" on="1"/>
        <pt x="266" y="-128" on="0"/>
        <pt x="246" y="-128" on="1"/>
        <pt x="226" y="-128" on="0"/>
        <pt x="226" y="-108" on="1"/>
        <pt x="226" y="-88" on="0"/>
        <pt x="246" y="-88" on="1"/>
      </contour>
    </TTGlyph>
    <TTGlyph name="abrevegrave" xMin="34" yMin="0" xMax="452" yMax="750">
      <component glyphName="a" x="0" y="0" flags="0x1000"/>
      <component glyphName="brevegrave" x="56" y="39" flags="0x1000"/>
    </TTGlyph>
    <TTGlyph name="abrevehookabove" xMin="34" yMin="0" xMax="452" yMax="786">
      <contour>
        <pt x="229" y="766" on="0"/>
        <pt x="201" y="743" on="1"/>
        <pt x="193" y="757" on="1"/>
        <pt x="227" y="786" on="0"/>
        <pt x="257" y="786" on="1"/>
        <pt x="276" y="786" on="0"/>
        <pt x="301" y="764" on="0"/>
        <pt x="301" y="748" on="1"/>
        <pt x="301" y="719" on="0"/>
        <pt x="253" y="683" on="1"/>
        <pt x="269" y="654" on="1"/>
        <pt x="252" y="647" on="1"/>
        <pt x="230" y="688" on="1"/>
        <pt x="281" y="722" on="0"/>
        <pt x="281" y="746" on="1"/>
        <pt x="281" y="766" on="0"/>
        <pt x="255" y="766" on="1"/>
      </contour>
      <contour>
        <pt x="212" y="562" on="0"/>
        <pt x="160" y="600" on="0"/>
        <pt x="150" y="636" on="1"/>
        <pt x="163" y="647" on="1"/>
        <pt x="168" y="647" on="1"/>
        <pt x="183" y="582" on="0"/>
        <pt x="250" y="582" on="1"/>
        <pt x="317" y="582" on="0"/>
        <pt x="334" y="647" on="1"/>
        <pt x="339" y="647" on="1"/>
        <pt x="352" y="636" on="1"/>
        <pt x="341" y="600" on="0"/>
        <pt x="288" y="562" on="0"/>
        <pt x="250" y="562" on="1"/>
      </contour>
      <contour>
        <pt x="429" y="0" on="1"/>
        <pt x="419" y="35" on="1"/>
        <pt x="370" y="161" on="1"/>
        <pt x="122" y="161" on="1"/>
        <pt x="69" y="35" on="1"/>
        <pt x="57" y="0" on="1"/>
        <pt x="34" y="0" on="1"/>
        <pt x="241" y="491" on="1"/>
        <pt x="262" y="491" on="1"/>
        <pt x="452" y="0" on="1"/>
      </contour>
      <contour>
        <pt x="252" y="461" on="1"/>
        <pt x="249" y="461" on="1"/>
        <pt x="130" y="180" on="1"/>
        <pt x="362" y="180" on="1"/>
      </contour>
    </TTGlyph>
    <TTGlyph name="abrevetilde" xMin="34" yMin="0" xMax="452" yMax="760">
      <contour>
        <pt x="122" y="704" on="1"/>
        <pt x="122" y="708" on="1"/>
        <pt x="172" y="755" on="1"/>
        <pt x="178" y="757" on="1"/>
        <pt x="197" y="755" on="0"/>
        <pt x="254" y="737" on="1"/>
        <pt x="314" y="719" on="0"/>
        <pt x="326" y="719" on="1"/>
        <pt x="334" y="719" on="0"/>
        <pt x="355" y="740" on="1"/>
        <pt x="363" y="749" on="0"/>
        <pt x="375" y="760" on="1"/>
        <pt x="378" y="760" on="1"/>
        <pt x="387" y="749" on="1"/>
        <pt x="387" y="745" on="1"/>
        <pt x="337" y="698" on="1"/>
        <pt x="332" y="696" on="1"/>
        <pt x="313" y="698" on="0"/>
        <pt x="256" y="716" on="1"/>
        <pt x="194" y="734" on="0"/>
        <pt x="183" y="734" on="1"/>
        <pt x="176" y="734" on="0"/>
        <pt x="153" y="711" on="1"/>
        <pt x="135" y="693" on="1"/>
        <pt x="131" y="693" on="1"/>
      </contour>
      <contour>
        <pt x="317" y="582" on="0"/>
        <pt x="334" y="647" on="1"/>
        <pt x="339" y="647" on="1"/>
        <pt x="352" y="636" on="1"/>
        <pt x="341" y="600" on="0"/>
        <pt x="288" y="562" on="0"/>
        <pt x="250" y="562" on="1"/>
        <pt x="212" y="562" on="0"/>
        <pt x="160" y="600" on="0"/>
        <pt x="150" y="636" on="1"/>
        <pt x="163" y="647" on="1"/>
        <pt x="168" y="647" on="1"/>
        <pt x="183" y="582" on="0"/>
        <pt x="250" y="582" on="1"/>
      </contour>
      <contour>
        <pt x="429" y="0" on="1"/>
        <pt x="419" y="35" on="1"/>
        <pt x="370" y="161" on="1"/>
        <pt x="122" y="161" on="1"/>
        <pt x="69" y="35" on="1"/>
        <pt x="57" y="0" on="1"/>
        <pt x="34" y="0" on="1"/>
        <pt x="241" y="491" on="1"/>
        <pt x="262" y="491" on="1"/>
        <pt x="452" y="0" on="1"/>
      </contour>
      <contour>
        <pt x="252" y="461" on="1"/>
        <pt x="249" y="461" on="1"/>
        <pt x="130" y="180" on="1"/>
        <pt x="362" y="180" on="1"/>
      </contour>
    </TTGlyph>
    <TTGlyph name="acaron" xMin="34" yMin="0" xMax="452" yMax="697">
      <component glyphName="a" x="0" y="0" flags="0x1000"/>
      <component glyphName="caron" x="56" y="39" flags="0x1000"/>
    </TTGlyph>
    <TTGlyph name="acircumflex" xMin="34" yMin="0" xMax="452" yMax="697">
      <contour>
        <pt x="141" y="571" on="1"/>
        <pt x="179" y="614" on="0"/>
        <pt x="242" y="697" on="1"/>
        <pt x="260" y="697" on="1"/>
        <pt x="323" y="614" on="0"/>
        <pt x="361" y="571" on="1"/>
        <pt x="352" y="559" on="1"/>
        <pt x="347" y="559" on="1"/>
        <pt x="299" y="612" on="0"/>
        <pt x="251" y="676" on="1"/>
        <pt x="203" y="612" on="0"/>
        <pt x="155" y="559" on="1"/>
        <pt x="150" y="559" on="1"/>
      </contour>
      <contour>
        <pt x="429" y="0" on="1"/>
        <pt x="419" y="35" on="1"/>
        <pt x="370" y="161" on="1"/>
        <pt x="122" y="161" on="1"/>
        <pt x="69" y="35" on="1"/>
        <pt x="57" y="0" on="1"/>
        <pt x="34" y="0" on="1"/>
        <pt x="241" y="491" on="1"/>
        <pt x="262" y="491" on="1"/>
        <pt x="452" y="0" on="1"/>
      </contour>
      <contour>
        <pt x="252" y="461" on="1"/>
        <pt x="249" y="461" on="1"/>
        <pt x="130" y="180" on="1"/>
        <pt x="362" y="180" on="1"/>
      </contour>
    </TTGlyph>
    <TTGlyph name="acircumflexacute" xMin="34" yMin="0" xMax="452" yMax="749">
      <component glyphName="a" x="0" y="0" flags="0x1000"/>
      <component glyphName="circumflexacute" x="56" y="39" flags="0x1000"/>
    </TTGlyph>
    <TTGlyph name="acircumflexdotbelow" xMin="34" yMin="-128" xMax="452" yMax="697">
      <contour>
        <pt x="141" y="571" on="1"/>
        <pt x="179" y="614" on="0"/>
        <pt x="242" y="697" on="1"/>
        <pt x="260" y="697" on="1"/>
        <pt x="323" y="614" on="0"/>
        <pt x="361" y="571" on="1"/>
        <pt x="352" y="559" on="1"/>
        <pt x="347" y="559" on="1"/>
        <pt x="299" y="612" on="0"/>
        <pt x="251" y="676" on="1"/>
        <pt x="203" y="612" on="0"/>
        <pt x="155" y="559" on="1"/>
        <pt x="150" y="559" on="1"/>
      </contour>
      <contour>
        <pt x="429" y="0" on="1"/>
        <pt x="419" y="35" on="1"/>
        <pt x="370" y="161" on="1"/>
        <pt x="122" y="161" on="1"/>
        <pt x="69" y="35" on="1"/>
        <pt x="57" y="0" on="1"/>
        <pt x="34" y="0" on="1"/>
        <pt x="241" y="491" on="1"/>
        <pt x="262" y="491" on="1"/>
        <pt x="452" y="0" on="1"/>
      </contour>
      <contour>
        <pt x="252" y="461" on="1"/>
        <pt x="249" y="461" on="1"/>
        <pt x="130" y="180" on="1"/>
        <pt x="362" y="180" on="1"/>
      </contour>
      <contour>
        <pt x="266" y="-88" on="0"/>
        <pt x="266" y="-108" on="1"/>
        <pt x="266" y="-128" on="0"/>
        <pt x="246" y="-128" on="1"/>
        <pt x="226" y="-128" on="0"/>
        <pt x="226" y="-108" on="1"/>
        <pt x="226" y="-88" on="0"/>
        <pt x="246" y="-88" on="1"/>
      </contour>
    </TTGlyph>
    <TTGlyph name="acircumflexgrave" xMin="34" yMin="0" xMax="452" yMax="749">
      <component glyphName="a" x="0" y="0" flags="0x1000"/>
      <component glyphName="circumflexgrave" x="56" y="39" flags="0x1000"/>
    </TTGlyph>
    <TTGlyph name="acircumflexhookabove" xMin="34" yMin="0" xMax="452" yMax="776">
      <contour>
        <pt x="310" y="756" on="0"/>
        <pt x="284" y="735" on="1"/>
        <pt x="277" y="748" on="1"/>
        <pt x="310" y="776" on="0"/>
        <pt x="338" y="776" on="1"/>
        <pt x="356" y="776" on="0"/>
        <pt x="379" y="754" on="0"/>
        <pt x="379" y="739" on="1"/>
        <pt x="379" y="711" on="0"/>
        <pt x="334" y="677" on="1"/>
        <pt x="349" y="650" on="1"/>
        <pt x="333" y="643" on="1"/>
        <pt x="312" y="682" on="1"/>
        <pt x="360" y="715" on="0"/>
        <pt x="360" y="737" on="1"/>
        <pt x="360" y="756" on="0"/>
        <pt x="336" y="756" on="1"/>
      </contour>
      <contour>
        <pt x="144" y="586" on="1"/>
        <pt x="191" y="619" on="0"/>
        <pt x="242" y="662" on="1"/>
        <pt x="258" y="662" on="1"/>
        <pt x="324" y="610" on="0"/>
        <pt x="358" y="586" on="1"/>
        <pt x="351" y="572" on="1"/>
        <pt x="346" y="572" on="1"/>
        <pt x="300" y="604" on="0"/>
        <pt x="251" y="642" on="1"/>
        <pt x="202" y="604" on="0"/>
        <pt x="156" y="572" on="1"/>
        <pt x="151" y="572" on="1"/>
      </contour>
      <contour>
        <pt x="429" y="0" on="1"/>
        <pt x="419" y="35" on="1"/>
        <pt x="370" y="161" on="1"/>
        <pt x="122" y="161" on="1"/>
        <pt x="69" y="35" on="1"/>
        <pt x="57" y="0" on="1"/>
        <pt x="34" y="0" on="1"/>
        <pt x="241" y="491" on="1"/>
        <pt x="262" y="491" on="1"/>
        <pt x="452" y="0" on="1"/>
      </contour>
      <contour>
        <pt x="252" y="461" on="1"/>
        <pt x="249" y="461" on="1"/>
        <pt x="130" y="180" on="1"/>
        <pt x="362" y="180" on="1"/>
      </contour>
    </TTGlyph>
    <TTGlyph name="acircumflextilde" xMin="34" yMin="0" xMax="452" yMax="760">
      <contour>
        <pt x="122" y="704" on="1"/>
        <pt x="122" y="708" on="1"/>
        <pt x="172" y="755" on="1"/>
        <pt x="178" y="757" on="1"/>
        <pt x="197" y="755" on="0"/>
        <pt x="254" y="737" on="1"/>
        <pt x="314" y="719" on="0"/>
        <pt x="326" y="719" on="1"/>
        <pt x="334" y="719" on="0"/>
        <pt x="355" y="740" on="1"/>
        <pt x="363" y="749" on="0"/>
        <pt x="375" y="760" on="1"/>
        <pt x="378" y="760" on="1"/>
        <pt x="387" y="749" on="1"/>
        <pt x="387" y="745" on="1"/>
        <pt x="337" y="698" on="1"/>
        <pt x="332" y="696" on="1"/>
        <pt x="313" y="698" on="0"/>
        <pt x="256" y="716" on="1"/>
        <pt x="194" y="734" on="0"/>
        <pt x="183" y="734" on="1"/>
        <pt x="176" y="734" on="0"/>
        <pt x="153" y="711" on="1"/>
        <pt x="135" y="693" on="1"/>
        <pt x="131" y="693" on="1"/>
      </contour>
      <contour>
        <pt x="324" y="610" on="0"/>
        <pt x="358" y="586" on="1"/>
        <pt x="351" y="572" on="1"/>
        <pt x="346" y="572" on="1"/>
        <pt x="300" y="604" on="0"/>
        <pt x="251" y="642" on="1"/>
        <pt x="202" y="604" on="0"/>
        <pt x="156" y="572" on="1"/>
        <pt x="151" y="572" on="1"/>
        <pt x="144" y="586" on="1"/>
        <pt x="191" y="619" on="0"/>
        <pt x="242" y="662" on="1"/>
        <pt x="258" y="662" on="1"/>
      </contour>
      <contour>
        <pt x="429" y="0" on="1"/>
        <pt x="419" y="35" on="1"/>
        <pt x="370" y="161" on="1"/>
        <pt x="122" y="161" on="1"/>
        <pt x="69" y="35" on="1"/>
        <pt x="57" y="0" on="1"/>
        <pt x="34" y="0" on="1"/>
        <pt x="241" y="491" on="1"/>
        <pt x="262" y="491" on="1"/>
        <pt x="452" y="0" on="1"/>
      </contour>
      <contour>
        <pt x="252" y="461" on="1"/>
        <pt x="249" y="461" on="1"/>
        <pt x="130" y="180" on="1"/>
        <pt x="362" y="180" on="1"/>
      </contour>
    </TTGlyph>
    <TTGlyph name="acute" xMin="115" yMin="518" xMax="276" yMax="669">
      <contour>
        <pt x="276" y="658" on="1"/>
        <pt x="275" y="653" on="1"/>
        <pt x="206" y="584" on="0"/>
        <pt x="131" y="518" on="1"/>
        <pt x="126" y="519" on="1"/>
        <pt x="115" y="532" on="1"/>
        <pt x="184" y="590" on="0"/>
        <pt x="261" y="669" on="1"/>
        <pt x="266" y="668" on="1"/>
      </contour>
    </TTGlyph>
    <TTGlyph name="acute.cap" xMin="102" yMin="539" xMax="290" yMax="651">
      <contour>
        <pt x="290" y="637" on="1"/>
        <pt x="288" y="632" on="1"/>
        <pt x="221" y="594" on="0"/>
        <pt x="114" y="539" on="1"/>
        <pt x="109" y="542" on="1"/>
        <pt x="102" y="557" on="1"/>
        <pt x="193" y="601" on="0"/>
        <pt x="278" y="651" on="1"/>
        <pt x="283" y="649" on="1"/>
      </contour>
    </TTGlyph>
    <TTGlyph name="adieresis" xMin="34" yMin="0" xMax="452" yMax="654">
      <contour>
        <pt x="161" y="614" on="0"/>
        <pt x="161" y="634" on="1"/>
        <pt x="161" y="654" on="0"/>
        <pt x="181" y="654" on="1"/>
        <pt x="201" y="654" on="0"/>
        <pt x="201" y="634" on="1"/>
        <pt x="201" y="614" on="0"/>
        <pt x="181" y="614" on="1"/>
      </contour>
      <contour>
        <pt x="301" y="614" on="0"/>
        <pt x="301" y="634" on="1"/>
        <pt x="301" y="654" on="0"/>
        <pt x="321" y="654" on="1"/>
        <pt x="341" y="654" on="0"/>
        <pt x="341" y="634" on="1"/>
        <pt x="341" y="614" on="0"/>
        <pt x="321" y="614" on="1"/>
      </contour>
      <contour>
        <pt x="429" y="0" on="1"/>
        <pt x="419" y="35" on="1"/>
        <pt x="370" y="161" on="1"/>
        <pt x="122" y="161" on="1"/>
        <pt x="69" y="35" on="1"/>
        <pt x="57" y="0" on="1"/>
        <pt x="34" y="0" on="1"/>
        <pt x="241" y="491" on="1"/>
        <pt x="262" y="491" on="1"/>
        <pt x="452" y="0" on="1"/>
      </contour>
      <contour>
        <pt x="252" y="461" on="1"/>
        <pt x="249" y="461" on="1"/>
        <pt x="130" y="180" on="1"/>
        <pt x="362" y="180" on="1"/>
      </contour>
    </TTGlyph>
    <TTGlyph name="adotbelow" xMin="34" yMin="-128" xMax="452" yMax="491">
      <contour>
        <pt x="429" y="0" on="1"/>
        <pt x="419" y="35" on="1"/>
        <pt x="370" y="161" on="1"/>
        <pt x="122" y="161" on="1"/>
        <pt x="69" y="35" on="1"/>
        <pt x="57" y="0" on="1"/>
        <pt x="34" y="0" on="1"/>
        <pt x="241" y="491" on="1"/>
        <pt x="262" y="491" on="1"/>
        <pt x="452" y="0" on="1"/>
      </contour>
      <contour>
        <pt x="252" y="461" on="1"/>
        <pt x="249" y="461" on="1"/>
        <pt x="130" y="180" on="1"/>
        <pt x="362" y="180" on="1"/>
      </contour>
      <contour>
        <pt x="266" y="-88" on="0"/>
        <pt x="266" y="-108" on="1"/>
        <pt x="266" y="-128" on="0"/>
        <pt x="246" y="-128" on="1"/>
        <pt x="226" y="-128" on="0"/>
        <pt x="226" y="-108" on="1"/>
        <pt x="226" y="-88" on="0"/>
        <pt x="246" y="-88" on="1"/>
      </contour>
    </TTGlyph>
    <TTGlyph name="ae" xMin="7" yMin="0" xMax="649" yMax="491">
      <contour>
        <pt x="646" y="0" on="1"/>
        <pt x="394" y="0" on="1"/>
        <pt x="389" y="35" on="1"/>
        <pt x="356" y="221" on="1"/>
        <pt x="142" y="186" on="1"/>
        <pt x="50" y="35" on="1"/>
        <pt x="33" y="0" on="1"/>
        <pt x="7" y="0" on="1"/>
        <pt x="307" y="491" on="1"/>
        <pt x="558" y="491" on="1"/>
        <pt x="561" y="487" on="1"/>
        <pt x="557" y="471" on="1"/>
        <pt x="333" y="472" on="1"/>
        <pt x="373" y="243" on="1"/>
        <pt x="565" y="273" on="1"/>
        <pt x="568" y="271" on="1"/>
        <pt x="566" y="254" on="1"/>
        <pt x="376" y="225" on="1"/>
        <pt x="412" y="19" on="1"/>
        <pt x="647" y="19" on="1"/>
        <pt x="649" y="16" on="1"/>
      </contour>
      <contour>
        <pt x="313" y="460" on="1"/>
        <pt x="310" y="460" on="1"/>
        <pt x="156" y="208" on="1"/>
        <pt x="352" y="240" on="1"/>
      </contour>
    </TTGlyph>
    <TTGlyph name="aeacute" xMin="7" yMin="0" xMax="649" yMax="708">
      <component glyphName="ae" x="0" y="0" flags="0x1000"/>
      <component glyphName="acute" x="241" y="39" flags="0x1000"/>
    </TTGlyph>
    <TTGlyph name="agrave" xMin="34" yMin="0" xMax="452" yMax="708">
      <contour>
        <pt x="241" y="623" on="0"/>
        <pt x="172" y="692" on="1"/>
        <pt x="171" y="697" on="1"/>
        <pt x="181" y="707" on="1"/>
        <pt x="186" y="708" on="1"/>
        <pt x="263" y="629" on="0"/>
        <pt x="332" y="571" on="1"/>
        <pt x="321" y="558" on="1"/>
        <pt x="316" y="557" on="1"/>
      </contour>
      <contour>
        <pt x="429" y="0" on="1"/>
        <pt x="419" y="35" on="1"/>
        <pt x="370" y="161" on="1"/>
        <pt x="122" y="161" on="1"/>
        <pt x="69" y="35" on="1"/>
        <pt x="57" y="0" on="1"/>
        <pt x="34" y="0" on="1"/>
        <pt x="241" y="491" on="1"/>
        <pt x="262" y="491" on="1"/>
        <pt x="452" y="0" on="1"/>
      </contour>
      <contour>
        <pt x="252" y="461" on="1"/>
        <pt x="249" y="461" on="1"/>
        <pt x="130" y="180" on="1"/>
        <pt x="362" y="180" on="1"/>
      </contour>
    </TTGlyph>
    <TTGlyph name="ahookabove" xMin="34" yMin="0" xMax="452" yMax="716">
      <component glyphName="a" x="0" y="0" flags="0x1000"/>
      <component glyphName="hookabove" x="56" y="39" flags="0x1000"/>
    </TTGlyph>
    <TTGlyph name="amacron" xMin="34" yMin="0" xMax="452" yMax="646">
      <component glyphName="a" x="0" y="0" flags="0x1000"/>
      <component glyphName="macron" x="56" y="39" flags="0x1000"/>
    </TTGlyph>
    <TTGlyph name="ampersand" xMin="56" yMin="-10" xMax="838" yMax="711">
      <contour>
        <pt x="819" y="312" on="0"/>
        <pt x="769" y="271" on="0"/>
        <pt x="726" y="268" on="1"/>
        <pt x="692" y="268" on="0"/>
        <pt x="602" y="288" on="1"/>
        <pt x="605" y="199" on="0"/>
        <pt x="535" y="64" on="0"/>
        <pt x="402" y="-10" on="0"/>
        <pt x="312" y="-10" on="1"/>
        <pt x="236" y="-10" on="0"/>
        <pt x="120" y="58" on="0"/>
        <pt x="56" y="181" on="0"/>
        <pt x="56" y="262" on="1"/>
        <pt x="56" y="329" on="0"/>
        <pt x="103" y="436" on="0"/>
        <pt x="184" y="495" on="0"/>
        <pt x="231" y="495" on="1"/>
        <pt x="277" y="495" on="0"/>
        <pt x="333" y="450" on="0"/>
        <pt x="333" y="414" on="1"/>
        <pt x="333" y="383" on="0"/>
        <pt x="314" y="354" on="1"/>
        <pt x="418" y="425" on="0"/>
        <pt x="582" y="611" on="0"/>
        <pt x="626" y="711" on="1"/>
        <pt x="630" y="711" on="1"/>
        <pt x="635" y="702" on="0"/>
        <pt x="638" y="691" on="1"/>
        <pt x="589" y="586" on="0"/>
        <pt x="417" y="396" on="0"/>
        <pt x="198" y="251" on="0"/>
        <pt x="80" y="213" on="1"/>
        <pt x="94" y="120" on="0"/>
        <pt x="218" y="11" on="0"/>
        <pt x="312" y="11" on="1"/>
        <pt x="396" y="11" on="0"/>
        <pt x="521" y="81" on="0"/>
        <pt x="586" y="209" on="0"/>
        <pt x="582" y="292" on="1"/>
        <pt x="521" y="305" on="0"/>
        <pt x="500" y="305" on="1"/>
        <pt x="432" y="305" on="0"/>
        <pt x="404" y="228" on="1"/>
        <pt x="399" y="226" on="1"/>
        <pt x="386" y="236" on="1"/>
        <pt x="405" y="281" on="0"/>
        <pt x="455" y="322" on="0"/>
        <pt x="498" y="325" on="1"/>
        <pt x="522" y="325" on="0"/>
        <pt x="604" y="307" on="1"/>
        <pt x="697" y="288" on="0"/>
        <pt x="724" y="288" on="1"/>
        <pt x="792" y="288" on="0"/>
        <pt x="820" y="365" on="1"/>
        <pt x="825" y="367" on="1"/>
        <pt x="838" y="357" on="1"/>
      </contour>
      <contour>
        <pt x="189" y="475" on="0"/>
        <pt x="117" y="422" on="0"/>
        <pt x="76" y="325" on="0"/>
        <pt x="76" y="262" on="1"/>
        <pt x="76" y="242" on="0"/>
        <pt x="77" y="233" on="1"/>
        <pt x="176" y="266" on="0"/>
        <pt x="269" y="324" on="1"/>
        <pt x="317" y="362" on="0"/>
        <pt x="312" y="416" on="1"/>
        <pt x="311" y="443" on="0"/>
        <pt x="267" y="475" on="0"/>
        <pt x="232" y="475" on="1"/>
      </contour>
    </TTGlyph>
    <TTGlyph name="aogonek" xMin="34" yMin="-196" xMax="508" yMax="491">
      <contour>
        <pt x="472" y="-196" on="0"/>
        <pt x="428" y="-196" on="1"/>
        <pt x="404" y="-196" on="0"/>
        <pt x="369" y="-165" on="0"/>
        <pt x="369" y="-138" on="1"/>
        <pt x="369" y="-116" on="0"/>
        <pt x="393" y="-60" on="0"/>
        <pt x="429" y="0" on="1"/>
        <pt x="419" y="35" on="1"/>
        <pt x="370" y="161" on="1"/>
        <pt x="122" y="161" on="1"/>
        <pt x="69" y="35" on="1"/>
        <pt x="57" y="0" on="1"/>
        <pt x="34" y="0" on="1"/>
        <pt x="241" y="491" on="1"/>
        <pt x="262" y="491" on="1"/>
        <pt x="452" y="0" on="1"/>
        <pt x="414" y="-61" on="0"/>
        <pt x="389" y="-117" on="0"/>
        <pt x="389" y="-136" on="1"/>
        <pt x="389" y="-156" on="0"/>
        <pt x="412" y="-176" on="0"/>
        <pt x="429" y="-176" on="1"/>
        <pt x="464" y="-176" on="0"/>
        <pt x="495" y="-123" on="1"/>
        <pt x="497" y="-123" on="1"/>
        <pt x="508" y="-139" on="1"/>
      </contour>
      <contour>
        <pt x="252" y="461" on="1"/>
        <pt x="249" y="461" on="1"/>
        <pt x="130" y="180" on="1"/>
        <pt x="362" y="180" on="1"/>
      </contour>
    </TTGlyph>
    <TTGlyph name="approxequal" xMin="86" yMin="165" xMax="424" yMax="380">
      <component glyphName="asciitilde" x="15" y="76" flags="0x1000"/>
      <component glyphName="asciitilde" x="15" y="-68" flags="0x1000"/>
    </TTGlyph>
    <TTGlyph name="aring" xMin="34" yMin="0" xMax="452" yMax="707">
      <component glyphName="a" x="0" y="0" flags="0x1000"/>
      <component glyphName="ring" x="56" y="39" flags="0x1000"/>
    </TTGlyph>
    <TTGlyph name="aringacute" xMin="34" yMin="0" xMax="452" yMax="806">
      <contour>
        <pt x="171" y="744" on="1"/>
        <pt x="264" y="770" on="0"/>
        <pt x="361" y="806" on="1"/>
        <pt x="366" y="803" on="1"/>
        <pt x="370" y="790" on="1"/>
        <pt x="368" y="785" on="1"/>
        <pt x="294" y="758" on="0"/>
        <pt x="180" y="724" on="1"/>
        <pt x="176" y="728" on="1"/>
      </contour>
      <contour>
        <pt x="179" y="668" on="0"/>
        <pt x="218" y="707" on="0"/>
        <pt x="249" y="707" on="1"/>
        <pt x="282" y="707" on="0"/>
        <pt x="320" y="665" on="0"/>
        <pt x="320" y="637" on="1"/>
        <pt x="320" y="606" on="0"/>
        <pt x="277" y="568" on="0"/>
        <pt x="249" y="568" on="1"/>
        <pt x="221" y="568" on="0"/>
        <pt x="179" y="607" on="0"/>
        <pt x="179" y="638" on="1"/>
      </contour>
      <contour>
        <pt x="300" y="658" on="0"/>
        <pt x="273" y="687" on="0"/>
        <pt x="249" y="687" on="1"/>
        <pt x="226" y="687" on="0"/>
        <pt x="199" y="660" on="0"/>
        <pt x="199" y="638" on="1"/>
        <pt x="199" y="615" on="0"/>
        <pt x="228" y="588" on="0"/>
        <pt x="249" y="588" on="1"/>
        <pt x="270" y="588" on="0"/>
        <pt x="300" y="614" on="0"/>
        <pt x="300" y="637" on="1"/>
      </contour>
      <contour>
        <pt x="429" y="0" on="1"/>
        <pt x="419" y="35" on="1"/>
        <pt x="370" y="161" on="1"/>
        <pt x="122" y="161" on="1"/>
        <pt x="69" y="35" on="1"/>
        <pt x="57" y="0" on="1"/>
        <pt x="34" y="0" on="1"/>
        <pt x="241" y="491" on="1"/>
        <pt x="262" y="491" on="1"/>
        <pt x="452" y="0" on="1"/>
      </contour>
      <contour>
        <pt x="252" y="461" on="1"/>
        <pt x="249" y="461" on="1"/>
        <pt x="130" y="180" on="1"/>
        <pt x="362" y="180" on="1"/>
      </contour>
    </TTGlyph>
    <TTGlyph name="arrowdown" xMin="55" yMin="0" xMax="443" yMax="454">
      <contour>
        <pt x="251" y="0" on="1"/>
        <pt x="247" y="0" on="1"/>
        <pt x="55" y="190" on="1"/>
        <pt x="63" y="204" on="1"/>
        <pt x="69" y="204" on="1"/>
        <pt x="239" y="37" on="1"/>
        <pt x="239" y="452" on="1"/>
        <pt x="241" y="454" on="1"/>
        <pt x="259" y="452" on="1"/>
        <pt x="259" y="37" on="1"/>
        <pt x="429" y="204" on="1"/>
        <pt x="435" y="204" on="1"/>
        <pt x="443" y="190" on="1"/>
      </contour>
    </TTGlyph>
    <TTGlyph name="arrowdownleft" xMin="104" yMin="64" xMax="434" yMax="394">
      <component glyphName="arrowdown" x="-69" y="243" scalex="0.706970214844" scale01="-0.706970214844" scale10="0.706970214844" scaley="0.706970214844" flags="0x1000"/>
    </TTGlyph>
    <TTGlyph name="arrowdownright" xMin="62" yMin="63" xMax="392" yMax="393">
      <component glyphName="arrowdown" x="213" y="-110" scalex="0.706970214844" scale01="0.706970214844" scale10="-0.706970214844" scaley="0.706970214844" flags="0x1000"/>
    </TTGlyph>
    <TTGlyph name="arrowleft" xMin="21" yMin="33" xMax="475" yMax="421">
      <component glyphName="arrowdown" x="21" y="476" scalex="0.0" scale01="-1.0" scale10="1.0" scaley="0.0" flags="0x1000"/>
    </TTGlyph>
    <TTGlyph name="arrowright" xMin="22" yMin="34" xMax="476" yMax="422">
      <component glyphName="arrowdown" x="476" y="-21" scalex="0.0" scale01="1.0" scale10="-1.0" scaley="0.0" flags="0x1000"/>
    </TTGlyph>
    <TTGlyph name="arrowup" xMin="54" yMin="1" xMax="442" yMax="455">
      <component glyphName="arrowdown" x="497" y="455" scale="-1.0" flags="0x1000"/>
    </TTGlyph>
    <TTGlyph name="arrowupleft" xMin="105" yMin="61" xMax="435" yMax="391">
      <component glyphName="arrowdown" x="284" y="564" scalex="-0.706970214844" scale01="-0.706970214844" scale10="0.706970214844" scaley="-0.706970214844" flags="0x1000"/>
    </TTGlyph>
    <TTGlyph name="arrowupright" xMin="64" yMin="61" xMax="394" yMax="391">
      <component glyphName="arrowdown" x="567" y="212" scalex="-0.706970214844" scale01="0.706970214844" scale10="-0.706970214844" scaley="-0.706970214844" flags="0x1000"/>
    </TTGlyph>
    <TTGlyph name="asciicircum" xMin="25" yMin="112" xMax="382" yMax="487">
      <contour>
        <pt x="380" y="117" on="1"/>
        <pt x="365" y="112" on="1"/>
        <pt x="212" y="462" on="1"/>
        <pt x="208" y="462" on="1"/>
        <pt x="44" y="116" on="1"/>
        <pt x="39" y="113" on="1"/>
        <pt x="25" y="120" on="1"/>
        <pt x="196" y="484" on="1"/>
        <pt x="200" y="487" on="1"/>
        <pt x="222" y="487" on="1"/>
        <pt x="382" y="121" on="1"/>
      </contour>
    </TTGlyph>
    <TTGlyph name="asciitilde" xMin="71" yMin="233" xMax="409" yMax="304">
      <contour>
        <pt x="137" y="279" on="0"/>
        <pt x="103" y="250" on="1"/>
        <pt x="84" y="233" on="1"/>
        <pt x="78" y="233" on="1"/>
        <pt x="71" y="242" on="1"/>
        <pt x="71" y="247" on="1"/>
        <pt x="135" y="300" on="1"/>
        <pt x="141" y="303" on="1"/>
        <pt x="153" y="301" on="0"/>
        <pt x="234" y="281" on="1"/>
        <pt x="313" y="258" on="0"/>
        <pt x="333" y="258" on="1"/>
        <pt x="341" y="258" on="0"/>
        <pt x="361" y="273" on="0"/>
        <pt x="389" y="298" on="0"/>
        <pt x="396" y="304" on="1"/>
        <pt x="402" y="304" on="1"/>
        <pt x="409" y="294" on="1"/>
        <pt x="409" y="290" on="1"/>
        <pt x="344" y="236" on="1"/>
        <pt x="338" y="234" on="1"/>
        <pt x="315" y="236" on="0"/>
        <pt x="237" y="258" on="1"/>
        <pt x="164" y="279" on="0"/>
        <pt x="147" y="279" on="1"/>
      </contour>
    </TTGlyph>
    <TTGlyph name="asterisk" xMin="41" yMin="437" xMax="327" yMax="715">
      <contour>
        <pt x="188" y="600" on="1"/>
        <pt x="174" y="598" on="1"/>
        <pt x="171" y="603" on="1"/>
        <pt x="176" y="712" on="1"/>
        <pt x="187" y="715" on="0"/>
        <pt x="197" y="715" on="1"/>
        <pt x="199" y="713" on="1"/>
      </contour>
      <contour>
        <pt x="148" y="569" on="1"/>
        <pt x="143" y="568" on="1"/>
        <pt x="41" y="606" on="1"/>
        <pt x="41" y="620" on="0"/>
        <pt x="44" y="627" on="1"/>
        <pt x="47" y="629" on="1"/>
        <pt x="151" y="583" on="1"/>
      </contour>
      <contour>
        <pt x="323" y="609" on="0"/>
        <pt x="327" y="597" on="1"/>
        <pt x="326" y="595" on="1"/>
        <pt x="215" y="570" on="1"/>
        <pt x="210" y="583" on="1"/>
        <pt x="213" y="587" on="1"/>
        <pt x="317" y="616" on="1"/>
      </contour>
      <contour>
        <pt x="271" y="452" on="1"/>
        <pt x="263" y="441" on="0"/>
        <pt x="256" y="437" on="1"/>
        <pt x="253" y="437" on="1"/>
        <pt x="195" y="535" on="1"/>
        <pt x="206" y="544" on="1"/>
        <pt x="211" y="542" on="1"/>
      </contour>
      <contour>
        <pt x="167" y="530" on="1"/>
        <pt x="100" y="445" on="1"/>
        <pt x="90" y="448" on="0"/>
        <pt x="81" y="455" on="1"/>
        <pt x="80" y="458" on="1"/>
        <pt x="156" y="543" on="1"/>
        <pt x="168" y="536" on="1"/>
      </contour>
    </TTGlyph>
    <TTGlyph name="at" xMin="44" yMin="-185" xMax="763" yMax="592">
      <contour>
        <pt x="538" y="592" on="0"/>
        <pt x="684" y="514" on="0"/>
        <pt x="763" y="375" on="0"/>
        <pt x="763" y="284" on="1"/>
        <pt x="763" y="152" on="0"/>
        <pt x="609" y="5" on="0"/>
        <pt x="463" y="-4" on="1"/>
        <pt x="499" y="271" on="1"/>
        <pt x="494" y="271" on="1"/>
        <pt x="401" y="94" on="0"/>
        <pt x="292" y="-4" on="1"/>
        <pt x="281" y="-4" on="1"/>
        <pt x="254" y="16" on="0"/>
        <pt x="229" y="80" on="0"/>
        <pt x="229" y="137" on="1"/>
        <pt x="229" y="222" on="0"/>
        <pt x="282" y="364" on="0"/>
        <pt x="385" y="452" on="0"/>
        <pt x="456" y="457" on="1"/>
        <pt x="460" y="457" on="1"/>
        <pt x="525" y="452" on="1"/>
        <pt x="538" y="459" on="1"/>
        <pt x="543" y="456" on="1"/>
        <pt x="497" y="106" on="1"/>
        <pt x="489" y="16" on="1"/>
        <pt x="613" y="28" on="0"/>
        <pt x="743" y="165" on="0"/>
        <pt x="743" y="284" on="1"/>
        <pt x="743" y="370" on="0"/>
        <pt x="670" y="500" on="0"/>
        <pt x="533" y="572" on="0"/>
        <pt x="441" y="572" on="1"/>
        <pt x="329" y="572" on="0"/>
        <pt x="158" y="476" on="0"/>
        <pt x="64" y="305" on="0"/>
        <pt x="64" y="194" on="1"/>
        <pt x="64" y="83" on="0"/>
        <pt x="159" y="-79" on="0"/>
        <pt x="334" y="-165" on="0"/>
        <pt x="450" y="-165" on="1"/>
        <pt x="451" y="-169" on="1"/>
        <pt x="438" y="-185" on="1"/>
        <pt x="321" y="-183" on="0"/>
        <pt x="143" y="-89" on="0"/>
        <pt x="44" y="79" on="0"/>
        <pt x="44" y="190" on="1"/>
        <pt x="44" y="309" on="0"/>
        <pt x="143" y="492" on="0"/>
        <pt x="323" y="592" on="0"/>
        <pt x="441" y="592" on="1"/>
      </contour>
      <contour>
        <pt x="297" y="24" on="0"/>
        <pt x="369" y="104" on="0"/>
        <pt x="463" y="246" on="0"/>
        <pt x="508" y="336" on="1"/>
        <pt x="511" y="362" on="1"/>
        <pt x="518" y="432" on="1"/>
        <pt x="458" y="437" on="1"/>
        <pt x="395" y="436" on="0"/>
        <pt x="300" y="353" on="0"/>
        <pt x="249" y="218" on="0"/>
        <pt x="249" y="141" on="1"/>
        <pt x="249" y="100" on="0"/>
        <pt x="263" y="48" on="0"/>
        <pt x="282" y="24" on="0"/>
        <pt x="289" y="24" on="1"/>
      </contour>
    </TTGlyph>
    <TTGlyph name="atilde" xMin="34" yMin="0" xMax="452" yMax="670">
      <component glyphName="a" x="0" y="0" flags="0x1000"/>
      <component glyphName="tilde" x="56" y="39" flags="0x1000"/>
    </TTGlyph>
    <TTGlyph name="b" xMin="108" yMin="-2" xMax="389" yMax="492">
      <contour>
        <pt x="326" y="249" on="0"/>
        <pt x="389" y="189" on="0"/>
        <pt x="389" y="136" on="1"/>
        <pt x="389" y="70" on="0"/>
        <pt x="291" y="-2" on="0"/>
        <pt x="200" y="-2" on="1"/>
        <pt x="137" y="-2" on="0"/>
        <pt x="108" y="0" on="1"/>
        <pt x="108" y="491" on="1"/>
        <pt x="213" y="492" on="1"/>
        <pt x="278" y="492" on="0"/>
        <pt x="349" y="433" on="0"/>
        <pt x="349" y="378" on="1"/>
        <pt x="349" y="288" on="0"/>
        <pt x="270" y="257" on="1"/>
      </contour>
      <contour>
        <pt x="128" y="473" on="1"/>
        <pt x="128" y="265" on="1"/>
        <pt x="234" y="263" on="1"/>
        <pt x="279" y="271" on="0"/>
        <pt x="327" y="330" on="0"/>
        <pt x="327" y="377" on="1"/>
        <pt x="327" y="421" on="0"/>
        <pt x="267" y="473" on="0"/>
        <pt x="216" y="473" on="1"/>
      </contour>
      <contour>
        <pt x="279" y="16" on="0"/>
        <pt x="368" y="79" on="0"/>
        <pt x="368" y="136" on="1"/>
        <pt x="368" y="234" on="0"/>
        <pt x="241" y="245" on="1"/>
        <pt x="128" y="244" on="1"/>
        <pt x="128" y="19" on="1"/>
        <pt x="161" y="16" on="0"/>
        <pt x="197" y="16" on="1"/>
      </contour>
    </TTGlyph>
    <TTGlyph name="b.sups" xMin="71" yMin="346" xMax="302" yMax="799">
      <contour>
        <pt x="243" y="643" on="0"/>
        <pt x="302" y="569" on="0"/>
        <pt x="302" y="502" on="1"/>
        <pt x="302" y="428" on="0"/>
        <pt x="228" y="346" on="0"/>
        <pt x="161" y="346" on="1"/>
        <pt x="123" y="346" on="0"/>
        <pt x="86" y="354" on="1"/>
        <pt x="75" y="349" on="1"/>
        <pt x="71" y="352" on="1"/>
        <pt x="71" y="796" on="1"/>
        <pt x="93" y="799" on="1"/>
        <pt x="92" y="597" on="1"/>
        <pt x="94" y="597" on="1"/>
        <pt x="135" y="643" on="0"/>
        <pt x="190" y="643" on="1"/>
      </contour>
      <contour>
        <pt x="218" y="364" on="0"/>
        <pt x="281" y="435" on="0"/>
        <pt x="281" y="501" on="1"/>
        <pt x="281" y="559" on="0"/>
        <pt x="232" y="623" on="0"/>
        <pt x="187" y="623" on="1"/>
        <pt x="132" y="623" on="0"/>
        <pt x="92" y="574" on="1"/>
        <pt x="92" y="476" on="1"/>
        <pt x="92" y="373" on="1"/>
        <pt x="131" y="364" on="0"/>
        <pt x="160" y="364" on="1"/>
      </contour>
    </TTGlyph>
    <TTGlyph name="backslash" xMin="21" yMin="-110" xMax="244" yMax="675">
      <component glyphName="slash" x="291" y="0" scalex="-1.0" scaley="1.0" flags="0x1000"/>
    </TTGlyph>
    <TTGlyph name="bar" xMin="150" yMin="-265" xMax="170" yMax="791">
      <contour>
        <pt x="170" y="-265" on="1"/>
        <pt x="153" y="-265" on="1"/>
        <pt x="150" y="-261" on="1"/>
        <pt x="150" y="789" on="1"/>
        <pt x="168" y="791" on="1"/>
        <pt x="170" y="789" on="1"/>
      </contour>
    </TTGlyph>
    <TTGlyph name="braceleft" xMin="54" yMin="-147" xMax="263" yMax="653">
      <contour>
        <pt x="242" y="653" on="0"/>
        <pt x="260" y="648" on="1"/>
        <pt x="263" y="645" on="1"/>
        <pt x="259" y="628" on="1"/>
        <pt x="232" y="633" on="0"/>
        <pt x="220" y="633" on="1"/>
        <pt x="184" y="633" on="0"/>
        <pt x="149" y="591" on="0"/>
        <pt x="149" y="546" on="1"/>
        <pt x="149" y="517" on="0"/>
        <pt x="159" y="445" on="1"/>
        <pt x="168" y="387" on="0"/>
        <pt x="168" y="357" on="1"/>
        <pt x="168" y="280" on="0"/>
        <pt x="102" y="254" on="1"/>
        <pt x="102" y="252" on="1"/>
        <pt x="168" y="226" on="0"/>
        <pt x="168" y="149" on="1"/>
        <pt x="168" y="119" on="0"/>
        <pt x="159" y="61" on="1"/>
        <pt x="149" y="-11" on="0"/>
        <pt x="149" y="-40" on="1"/>
        <pt x="149" y="-85" on="0"/>
        <pt x="184" y="-127" on="0"/>
        <pt x="220" y="-127" on="1"/>
        <pt x="232" y="-127" on="0"/>
        <pt x="259" y="-122" on="1"/>
        <pt x="263" y="-139" on="1"/>
        <pt x="260" y="-142" on="1"/>
        <pt x="242" y="-147" on="0"/>
        <pt x="223" y="-147" on="1"/>
        <pt x="129" y="-147" on="0"/>
        <pt x="129" y="-40" on="1"/>
        <pt x="129" y="-8" on="0"/>
        <pt x="139" y="64" on="1"/>
        <pt x="148" y="122" on="0"/>
        <pt x="148" y="149" on="1"/>
        <pt x="148" y="192" on="0"/>
        <pt x="103" y="238" on="0"/>
        <pt x="54" y="244" on="1"/>
        <pt x="54" y="262" on="1"/>
        <pt x="103" y="268" on="0"/>
        <pt x="148" y="314" on="0"/>
        <pt x="148" y="357" on="1"/>
        <pt x="148" y="384" on="0"/>
        <pt x="139" y="442" on="1"/>
        <pt x="129" y="514" on="0"/>
        <pt x="129" y="546" on="1"/>
        <pt x="129" y="653" on="0"/>
        <pt x="223" y="653" on="1"/>
      </contour>
    </TTGlyph>
    <TTGlyph name="braceright" xMin="18" yMin="-147" xMax="227" yMax="653">
      <component glyphName="braceleft" x="281" y="506" scale="-1.0" flags="0x1000"/>
    </TTGlyph>
    <TTGlyph name="bracketleft" xMin="117" yMin="-133" xMax="267" yMax="646">
      <contour>
        <pt x="267" y="627" on="1"/>
        <pt x="137" y="618" on="1"/>
        <pt x="137" y="-105" on="1"/>
        <pt x="267" y="-114" on="1"/>
        <pt x="267" y="-129" on="1"/>
        <pt x="263" y="-133" on="1"/>
        <pt x="117" y="-123" on="1"/>
        <pt x="117" y="636" on="1"/>
        <pt x="263" y="646" on="1"/>
        <pt x="267" y="642" on="1"/>
      </contour>
    </TTGlyph>
    <TTGlyph name="bracketright" xMin="14" yMin="-133" xMax="164" yMax="646">
      <component glyphName="bracketleft" x="281" y="513" scale="-1.0" flags="0x1000"/>
    </TTGlyph>
    <TTGlyph name="breve" xMin="94" yMin="522" xMax="296" yMax="640">
      <contour>
        <pt x="277" y="522" on="0"/>
        <pt x="195" y="522" on="1"/>
        <pt x="113" y="522" on="0"/>
        <pt x="94" y="627" on="1"/>
        <pt x="107" y="640" on="1"/>
        <pt x="112" y="640" on="1"/>
        <pt x="125" y="542" on="0"/>
        <pt x="195" y="542" on="1"/>
        <pt x="265" y="542" on="0"/>
        <pt x="278" y="640" on="1"/>
        <pt x="283" y="640" on="1"/>
        <pt x="296" y="627" on="1"/>
      </contour>
    </TTGlyph>
    <TTGlyph name="breve.cap" xMin="94" yMin="543" xMax="296" yMax="628">
      <contour>
        <pt x="285" y="581" on="0"/>
        <pt x="232" y="543" on="0"/>
        <pt x="194" y="543" on="1"/>
        <pt x="156" y="543" on="0"/>
        <pt x="104" y="581" on="0"/>
        <pt x="94" y="617" on="1"/>
        <pt x="107" y="628" on="1"/>
        <pt x="112" y="628" on="1"/>
        <pt x="127" y="563" on="0"/>
        <pt x="194" y="563" on="1"/>
        <pt x="261" y="563" on="0"/>
        <pt x="278" y="628" on="1"/>
        <pt x="283" y="628" on="1"/>
        <pt x="296" y="617" on="1"/>
      </contour>
    </TTGlyph>
    <TTGlyph name="breveacute" xMin="94" yMin="523" xMax="296" yMax="711">
      <contour>
        <pt x="264" y="696" on="1"/>
        <pt x="234" y="661" on="0"/>
        <pt x="203" y="629" on="1"/>
        <pt x="183" y="608" on="1"/>
        <pt x="178" y="609" on="1"/>
        <pt x="166" y="621" on="1"/>
        <pt x="192" y="648" on="0"/>
        <pt x="249" y="711" on="1"/>
        <pt x="254" y="711" on="1"/>
        <pt x="265" y="701" on="1"/>
      </contour>
      <contour>
        <pt x="285" y="561" on="0"/>
        <pt x="232" y="523" on="0"/>
        <pt x="194" y="523" on="1"/>
        <pt x="156" y="523" on="0"/>
        <pt x="104" y="561" on="0"/>
        <pt x="94" y="597" on="1"/>
        <pt x="107" y="608" on="1"/>
        <pt x="112" y="608" on="1"/>
        <pt x="127" y="543" on="0"/>
        <pt x="194" y="543" on="1"/>
        <pt x="261" y="543" on="0"/>
        <pt x="278" y="608" on="1"/>
        <pt x="283" y="608" on="1"/>
        <pt x="296" y="597" on="1"/>
      </contour>
    </TTGlyph>
    <TTGlyph name="brevegrave" xMin="94" yMin="523" xMax="296" yMax="711">
      <contour>
        <pt x="193" y="648" on="0"/>
        <pt x="219" y="621" on="1"/>
        <pt x="207" y="609" on="1"/>
        <pt x="202" y="608" on="1"/>
        <pt x="182" y="629" on="1"/>
        <pt x="151" y="661" on="0"/>
        <pt x="121" y="696" on="1"/>
        <pt x="120" y="701" on="1"/>
        <pt x="131" y="711" on="1"/>
        <pt x="136" y="711" on="1"/>
      </contour>
      <contour>
        <pt x="285" y="561" on="0"/>
        <pt x="232" y="523" on="0"/>
        <pt x="194" y="523" on="1"/>
        <pt x="156" y="523" on="0"/>
        <pt x="104" y="561" on="0"/>
        <pt x="94" y="597" on="1"/>
        <pt x="107" y="608" on="1"/>
        <pt x="112" y="608" on="1"/>
        <pt x="127" y="543" on="0"/>
        <pt x="194" y="543" on="1"/>
        <pt x="261" y="543" on="0"/>
        <pt x="278" y="608" on="1"/>
        <pt x="283" y="608" on="1"/>
        <pt x="296" y="597" on="1"/>
      </contour>
    </TTGlyph>
    <TTGlyph name="brevehookabove" xMin="94" yMin="523" xMax="296" yMax="747">
      <component glyphName="breve.cap" x="0" y="-20" flags="0x1000"/>
      <component glyphName="hookabove" x="4" y="70" flags="0x1000"/>
    </TTGlyph>
    <TTGlyph name="brevetilde" xMin="65" yMin="523" xMax="331" yMax="721">
      <component glyphName="breve.cap" x="0" y="-20" flags="0x1000"/>
      <component glyphName="tilde" x="12" y="90" scalex="0.951965332031" scaley="1.0" flags="0x1000"/>
    </TTGlyph>
    <TTGlyph name="brokenbar" xMin="150" yMin="-265" xMax="170" yMax="791">
      <contour>
        <pt x="170" y="368" on="1"/>
        <pt x="153" y="366" on="1"/>
        <pt x="150" y="369" on="1"/>
        <pt x="150" y="789" on="1"/>
        <pt x="168" y="791" on="1"/>
        <pt x="170" y="789" on="1"/>
      </contour>
      <contour>
        <pt x="170" y="-265" on="1"/>
        <pt x="153" y="-265" on="1"/>
        <pt x="150" y="-261" on="1"/>
        <pt x="150" y="157" on="1"/>
        <pt x="167" y="160" on="1"/>
        <pt x="170" y="155" on="1"/>
      </contour>
    </TTGlyph>
    <TTGlyph name="bullet" xMin="95" yMin="218" xMax="135" yMax="258">
      <component glyphName="period" x="0" y="220" flags="0x1000"/>
    </TTGlyph>
    <TTGlyph name="bulletoperator" xMin="95" yMin="218" xMax="135" yMax="258">
      <component glyphName="period" x="0" y="220" flags="0x1000"/>
    </TTGlyph>
    <TTGlyph name="c" xMin="58" yMin="-4" xMax="422" yMax="494">
      <contour>
        <pt x="358" y="494" on="0"/>
        <pt x="421" y="450" on="1"/>
        <pt x="415" y="432" on="1"/>
        <pt x="409" y="432" on="1"/>
        <pt x="350" y="475" on="0"/>
        <pt x="277" y="475" on="1"/>
        <pt x="180" y="475" on="0"/>
        <pt x="79" y="356" on="0"/>
        <pt x="79" y="244" on="1"/>
        <pt x="79" y="133" on="0"/>
        <pt x="176" y="15" on="0"/>
        <pt x="267" y="15" on="1"/>
        <pt x="347" y="15" on="0"/>
        <pt x="416" y="66" on="1"/>
        <pt x="422" y="64" on="1"/>
        <pt x="420" y="46" on="1"/>
        <pt x="348" y="-4" on="0"/>
        <pt x="268" y="-4" on="1"/>
        <pt x="166" y="-4" on="0"/>
        <pt x="58" y="124" on="0"/>
        <pt x="58" y="244" on="1"/>
        <pt x="58" y="364" on="0"/>
        <pt x="171" y="494" on="0"/>
        <pt x="277" y="494" on="1"/>
      </contour>
    </TTGlyph>
    <TTGlyph name="c.sups" xMin="39" yMin="346" xMax="246" yMax="644">
      <contour>
        <pt x="206" y="644" on="0"/>
        <pt x="244" y="618" on="1"/>
        <pt x="238" y="600" on="1"/>
        <pt x="234" y="600" on="1"/>
        <pt x="199" y="624" on="0"/>
        <pt x="159" y="624" on="1"/>
        <pt x="114" y="624" on="0"/>
        <pt x="60" y="553" on="0"/>
        <pt x="60" y="493" on="1"/>
        <pt x="60" y="435" on="0"/>
        <pt x="114" y="366" on="0"/>
        <pt x="160" y="366" on="1"/>
        <pt x="205" y="366" on="0"/>
        <pt x="242" y="392" on="1"/>
        <pt x="246" y="390" on="1"/>
        <pt x="244" y="372" on="1"/>
        <pt x="204" y="346" on="0"/>
        <pt x="157" y="346" on="1"/>
        <pt x="103" y="346" on="0"/>
        <pt x="39" y="426" on="0"/>
        <pt x="39" y="492" on="1"/>
        <pt x="39" y="562" on="0"/>
        <pt x="104" y="644" on="0"/>
        <pt x="159" y="644" on="1"/>
      </contour>
    </TTGlyph>
    <TTGlyph name="cacute" xMin="58" yMin="-4" xMax="422" yMax="708">
      <component glyphName="c" x="0" y="0" flags="0x1000"/>
      <component glyphName="acute" x="93" y="39" flags="0x1000"/>
    </TTGlyph>
    <TTGlyph name="caron" xMin="85" yMin="520" xMax="305" yMax="658">
      <contour>
        <pt x="267" y="603" on="0"/>
        <pt x="204" y="520" on="1"/>
        <pt x="186" y="520" on="1"/>
        <pt x="123" y="603" on="0"/>
        <pt x="85" y="646" on="1"/>
        <pt x="94" y="658" on="1"/>
        <pt x="99" y="658" on="1"/>
        <pt x="147" y="605" on="0"/>
        <pt x="195" y="541" on="1"/>
        <pt x="243" y="605" on="0"/>
        <pt x="291" y="658" on="1"/>
        <pt x="296" y="658" on="1"/>
        <pt x="305" y="646" on="1"/>
      </contour>
    </TTGlyph>
    <TTGlyph name="caron.alt" xMin="179" yMin="505" xMax="211" yMax="655">
      <contour>
        <pt x="199" y="507" on="1"/>
        <pt x="182" y="505" on="1"/>
        <pt x="179" y="509" on="1"/>
        <pt x="191" y="653" on="1"/>
        <pt x="208" y="655" on="1"/>
        <pt x="211" y="651" on="1"/>
      </contour>
    </TTGlyph>
    <TTGlyph name="caron.cap" xMin="88" yMin="544" xMax="302" yMax="634">
      <contour>
        <pt x="255" y="587" on="0"/>
        <pt x="204" y="544" on="1"/>
        <pt x="188" y="544" on="1"/>
        <pt x="122" y="596" on="0"/>
        <pt x="88" y="620" on="1"/>
        <pt x="95" y="634" on="1"/>
        <pt x="100" y="634" on="1"/>
        <pt x="146" y="602" on="0"/>
        <pt x="195" y="564" on="1"/>
        <pt x="244" y="602" on="0"/>
        <pt x="290" y="634" on="1"/>
        <pt x="295" y="634" on="1"/>
        <pt x="302" y="620" on="1"/>
      </contour>
    </TTGlyph>
    <TTGlyph name="ccaron" xMin="58" yMin="-4" xMax="422" yMax="697">
      <component glyphName="c" x="0" y="0" flags="0x1000"/>
      <component glyphName="caron" x="62" y="39" flags="0x1000"/>
    </TTGlyph>
    <TTGlyph name="ccedilla" xMin="58" yMin="-178" xMax="422" yMax="494">
      <contour>
        <pt x="351" y="-1" on="0"/>
        <pt x="276" y="-4" on="1"/>
        <pt x="260" y="-55" on="1"/>
        <pt x="291" y="-75" on="1"/>
        <pt x="324" y="-96" on="0"/>
        <pt x="324" y="-125" on="1"/>
        <pt x="324" y="-149" on="0"/>
        <pt x="289" y="-178" on="0"/>
        <pt x="264" y="-178" on="1"/>
        <pt x="227" y="-178" on="0"/>
        <pt x="205" y="-145" on="1"/>
        <pt x="211" y="-127" on="1"/>
        <pt x="215" y="-127" on="1"/>
        <pt x="225" y="-143" on="0"/>
        <pt x="247" y="-158" on="0"/>
        <pt x="264" y="-158" on="1"/>
        <pt x="282" y="-158" on="0"/>
        <pt x="304" y="-141" on="0"/>
        <pt x="304" y="-125" on="1"/>
        <pt x="304" y="-114" on="0"/>
        <pt x="293" y="-101" on="0"/>
        <pt x="280" y="-92" on="1"/>
        <pt x="236" y="-64" on="1"/>
        <pt x="256" y="-4" on="1"/>
        <pt x="160" y="0" on="0"/>
        <pt x="58" y="128" on="0"/>
        <pt x="58" y="244" on="1"/>
        <pt x="58" y="364" on="0"/>
        <pt x="171" y="494" on="0"/>
        <pt x="277" y="494" on="1"/>
        <pt x="358" y="494" on="0"/>
        <pt x="421" y="450" on="1"/>
        <pt x="415" y="432" on="1"/>
        <pt x="409" y="432" on="1"/>
        <pt x="350" y="475" on="0"/>
        <pt x="277" y="475" on="1"/>
        <pt x="180" y="475" on="0"/>
        <pt x="79" y="356" on="0"/>
        <pt x="79" y="244" on="1"/>
        <pt x="79" y="133" on="0"/>
        <pt x="176" y="15" on="0"/>
        <pt x="267" y="15" on="1"/>
        <pt x="347" y="15" on="0"/>
        <pt x="416" y="66" on="1"/>
        <pt x="422" y="64" on="1"/>
        <pt x="420" y="46" on="1"/>
      </contour>
    </TTGlyph>
    <TTGlyph name="ccircumflex" xMin="58" yMin="-4" xMax="422" yMax="697">
      <contour>
        <pt x="185" y="614" on="0"/>
        <pt x="248" y="697" on="1"/>
        <pt x="266" y="697" on="1"/>
        <pt x="329" y="614" on="0"/>
        <pt x="367" y="571" on="1"/>
        <pt x="358" y="559" on="1"/>
        <pt x="353" y="559" on="1"/>
        <pt x="305" y="612" on="0"/>
        <pt x="257" y="676" on="1"/>
        <pt x="209" y="612" on="0"/>
        <pt x="161" y="559" on="1"/>
        <pt x="156" y="559" on="1"/>
        <pt x="147" y="571" on="1"/>
      </contour>
      <contour>
        <pt x="358" y="494" on="0"/>
        <pt x="421" y="450" on="1"/>
        <pt x="415" y="432" on="1"/>
        <pt x="409" y="432" on="1"/>
        <pt x="350" y="475" on="0"/>
        <pt x="277" y="475" on="1"/>
        <pt x="180" y="475" on="0"/>
        <pt x="79" y="356" on="0"/>
        <pt x="79" y="244" on="1"/>
        <pt x="79" y="133" on="0"/>
        <pt x="176" y="15" on="0"/>
        <pt x="267" y="15" on="1"/>
        <pt x="347" y="15" on="0"/>
        <pt x="416" y="66" on="1"/>
        <pt x="422" y="64" on="1"/>
        <pt x="420" y="46" on="1"/>
        <pt x="348" y="-4" on="0"/>
        <pt x="268" y="-4" on="1"/>
        <pt x="166" y="-4" on="0"/>
        <pt x="58" y="124" on="0"/>
        <pt x="58" y="244" on="1"/>
        <pt x="58" y="364" on="0"/>
        <pt x="171" y="494" on="0"/>
        <pt x="277" y="494" on="1"/>
      </contour>
    </TTGlyph>
    <TTGlyph name="cdotaccent" xMin="58" yMin="-4" xMax="422" yMax="670">
      <contour>
        <pt x="277" y="670" on="0"/>
        <pt x="277" y="650" on="1"/>
        <pt x="277" y="630" on="0"/>
        <pt x="257" y="630" on="1"/>
        <pt x="237" y="630" on="0"/>
        <pt x="237" y="650" on="1"/>
        <pt x="237" y="670" on="0"/>
        <pt x="257" y="670" on="1"/>
      </contour>
      <contour>
        <pt x="358" y="494" on="0"/>
        <pt x="421" y="450" on="1"/>
        <pt x="415" y="432" on="1"/>
        <pt x="409" y="432" on="1"/>
        <pt x="350" y="475" on="0"/>
        <pt x="277" y="475" on="1"/>
        <pt x="180" y="475" on="0"/>
        <pt x="79" y="356" on="0"/>
        <pt x="79" y="244" on="1"/>
        <pt x="79" y="133" on="0"/>
        <pt x="176" y="15" on="0"/>
        <pt x="267" y="15" on="1"/>
        <pt x="347" y="15" on="0"/>
        <pt x="416" y="66" on="1"/>
        <pt x="422" y="64" on="1"/>
        <pt x="420" y="46" on="1"/>
        <pt x="348" y="-4" on="0"/>
        <pt x="268" y="-4" on="1"/>
        <pt x="166" y="-4" on="0"/>
        <pt x="58" y="124" on="0"/>
        <pt x="58" y="244" on="1"/>
        <pt x="58" y="364" on="0"/>
        <pt x="171" y="494" on="0"/>
        <pt x="277" y="494" on="1"/>
      </contour>
    </TTGlyph>
    <TTGlyph name="cedilla" xMin="134" yMin="-178" xMax="253" yMax="11">
      <contour>
        <pt x="220" y="-75" on="1"/>
        <pt x="253" y="-96" on="0"/>
        <pt x="253" y="-125" on="1"/>
        <pt x="253" y="-149" on="0"/>
        <pt x="218" y="-178" on="0"/>
        <pt x="193" y="-178" on="1"/>
        <pt x="156" y="-178" on="0"/>
        <pt x="134" y="-145" on="1"/>
        <pt x="140" y="-127" on="1"/>
        <pt x="144" y="-127" on="1"/>
        <pt x="154" y="-143" on="0"/>
        <pt x="176" y="-158" on="0"/>
        <pt x="193" y="-158" on="1"/>
        <pt x="211" y="-158" on="0"/>
        <pt x="233" y="-141" on="0"/>
        <pt x="233" y="-125" on="1"/>
        <pt x="233" y="-114" on="0"/>
        <pt x="222" y="-101" on="0"/>
        <pt x="209" y="-92" on="1"/>
        <pt x="165" y="-64" on="1"/>
        <pt x="190" y="11" on="1"/>
        <pt x="210" y="11" on="1"/>
        <pt x="189" y="-55" on="1"/>
      </contour>
    </TTGlyph>
    <TTGlyph name="cent" xMin="51" yMin="-114" xMax="361" yMax="650">
      <contour>
        <pt x="359" y="84" on="1"/>
        <pt x="301" y="41" on="0"/>
        <pt x="227" y="41" on="1"/>
        <pt x="214" y="41" on="1"/>
        <pt x="200" y="-114" on="1"/>
        <pt x="185" y="-114" on="1"/>
        <pt x="181" y="-110" on="1"/>
        <pt x="194" y="44" on="1"/>
        <pt x="128" y="57" on="0"/>
        <pt x="51" y="177" on="0"/>
        <pt x="51" y="268" on="1"/>
        <pt x="51" y="339" on="0"/>
        <pt x="95" y="445" on="0"/>
        <pt x="175" y="503" on="0"/>
        <pt x="228" y="503" on="1"/>
        <pt x="233" y="503" on="1"/>
        <pt x="246" y="650" on="1"/>
        <pt x="262" y="650" on="1"/>
        <pt x="266" y="645" on="1"/>
        <pt x="254" y="501" on="1"/>
        <pt x="314" y="493" on="0"/>
        <pt x="357" y="461" on="1"/>
        <pt x="350" y="444" on="1"/>
        <pt x="344" y="444" on="1"/>
        <pt x="304" y="474" on="0"/>
        <pt x="252" y="481" on="1"/>
        <pt x="216" y="61" on="1"/>
        <pt x="228" y="61" on="1"/>
        <pt x="261" y="61" on="0"/>
        <pt x="329" y="84" on="0"/>
        <pt x="355" y="104" on="1"/>
        <pt x="361" y="102" on="1"/>
      </contour>
      <contour>
        <pt x="71" y="186" on="0"/>
        <pt x="138" y="77" on="0"/>
        <pt x="196" y="64" on="1"/>
        <pt x="231" y="483" on="1"/>
        <pt x="228" y="483" on="1"/>
        <pt x="157" y="483" on="0"/>
        <pt x="71" y="366" on="0"/>
        <pt x="71" y="268" on="1"/>
      </contour>
    </TTGlyph>
    <TTGlyph name="circle1" xMin="-17" yMin="-12" xMax="459" yMax="464">
      <contour>
        <pt x="285" y="464" on="0"/>
        <pt x="395" y="400" on="0"/>
        <pt x="459" y="290" on="0"/>
        <pt x="459" y="226" on="1"/>
        <pt x="459" y="162" on="0"/>
        <pt x="395" y="52" on="0"/>
        <pt x="285" y="-12" on="0"/>
        <pt x="221" y="-12" on="1"/>
        <pt x="157" y="-12" on="0"/>
        <pt x="47" y="52" on="0"/>
        <pt x="-17" y="162" on="0"/>
        <pt x="-17" y="226" on="1"/>
        <pt x="-17" y="290" on="0"/>
        <pt x="47" y="400" on="0"/>
        <pt x="157" y="464" on="0"/>
        <pt x="221" y="464" on="1"/>
      </contour>
    </TTGlyph>
    <TTGlyph name="circle2" xMin="-16" yMin="-14" xMax="647" yMax="649">
      <contour>
        <pt x="405" y="649" on="0"/>
        <pt x="558" y="560" on="0"/>
        <pt x="647" y="407" on="0"/>
        <pt x="647" y="317" on="1"/>
        <pt x="647" y="227" on="0"/>
        <pt x="558" y="75" on="0"/>
        <pt x="405" y="-14" on="0"/>
        <pt x="315" y="-14" on="1"/>
        <pt x="225" y="-14" on="0"/>
        <pt x="73" y="75" on="0"/>
        <pt x="-16" y="227" on="0"/>
        <pt x="-16" y="317" on="1"/>
        <pt x="-16" y="407" on="0"/>
        <pt x="73" y="560" on="0"/>
        <pt x="225" y="649" on="0"/>
        <pt x="315" y="649" on="1"/>
      </contour>
    </TTGlyph>
    <TTGlyph name="circumflex" xMin="85" yMin="520" xMax="305" yMax="658">
      <component glyphName="caron" x="390" y="1178" scale="-1.0" flags="0x1000"/>
    </TTGlyph>
    <TTGlyph name="circumflex.cap" xMin="88" yMin="553" xMax="302" yMax="643">
      <component glyphName="caron.cap" x="390" y="1187" scale="-1.0" flags="0x1000"/>
    </TTGlyph>
</ttFont>
